<svg width="42" height="44" viewBox="0 0 42 44" fill="none" xmlns="http://www.w3.org/2000/svg">
<g clip-path="url(#clip0_39962_16476)">
<path d="M9.1875 36H2.625V41.3333H9.1875V36Z" fill="#2A42E4"/>
<path d="M19.0312 33.334H12.4688V41.334H19.0312V33.334Z" fill="#2A42E4"/>
<path d="M29.5312 29.334H22.9688V41.334H29.5312V29.334Z" fill="#2A42E4"/>
<path d="M40.0312 22H33.4688V41.3333H40.0312V22Z" fill="#2A42E4"/>
<path d="M32.1563 4C30.9881 4 29.8462 4.35189 28.8749 5.01118C27.9036 5.67047 27.1466 6.60754 26.6996 7.7039C26.2526 8.80026 26.1356 10.0067 26.3635 11.1705C26.5914 12.3344 27.1539 13.4035 27.9799 14.2426C28.8059 15.0818 29.8583 15.6532 31.004 15.8847C32.1497 16.1162 33.3372 15.9974 34.4165 15.5433C35.4957 15.0892 36.4181 14.3201 37.0671 13.3334C37.7161 12.3467 38.0625 11.1867 38.0625 10C38.0625 8.4087 37.4402 6.88258 36.3326 5.75736C35.225 4.63214 33.7227 4 32.1563 4ZM33.4688 13.3333H32.8125V14.6667H31.5V13.3333H30.1875V12H33.4688C33.6428 12 33.8097 11.9298 33.9328 11.8047C34.0559 11.6797 34.125 11.5101 34.125 11.3333C34.125 11.1565 34.0559 10.987 33.9328 10.8619C33.8097 10.7369 33.6428 10.6667 33.4688 10.6667H31.5C30.9779 10.6667 30.4771 10.456 30.1079 10.0809C29.7387 9.70581 29.5313 9.1971 29.5313 8.66667C29.5313 8.13623 29.7387 7.62753 30.1079 7.25245C30.4771 6.87738 30.9779 6.66667 31.5 6.66667V5.33333H32.8125V6.66667H34.7813V8H31.5C31.326 8 31.159 8.07024 31.036 8.19526C30.9129 8.32029 30.8438 8.48986 30.8438 8.66667C30.8438 8.84348 30.9129 9.01305 31.036 9.13807C31.159 9.2631 31.326 9.33333 31.5 9.33333H33.4688C33.9909 9.33333 34.4917 9.54405 34.8609 9.91912C35.2301 10.2942 35.4375 10.8029 35.4375 11.3333C35.4375 11.8638 35.2301 12.3725 34.8609 12.7475C34.4917 13.1226 33.9909 13.3333 33.4688 13.3333Z" fill="#2A42E4"/>
<path d="M40.6875 9.33398H39.375V10.6673H40.6875V9.33398Z" fill="#2A42E4"/>
<path d="M24.9375 9.33398H23.625V10.6673H24.9375V9.33398Z" fill="#2A42E4"/>
<path d="M32.8125 17.334H31.5V18.6673H32.8125V17.334Z" fill="#2A42E4"/>
<path d="M32.8125 1.33398H31.5V2.66732H32.8125V1.33398Z" fill="#2A42E4"/>
<path d="M37.7249 14.7135L36.7969 15.6562L37.7249 16.599L38.6528 15.6562L37.7249 14.7135Z" fill="#2A42E4"/>
<path d="M26.5881 3.40104L25.6602 4.34375L26.5881 5.28646L27.5161 4.34375L26.5881 3.40104Z" fill="#2A42E4"/>
<path d="M26.5881 14.7135L25.6602 15.6562L26.5881 16.599L27.5161 15.6562L26.5881 14.7135Z" fill="#2A42E4"/>
<path d="M37.7249 3.40104L36.7969 4.34375L37.7249 5.28646L38.6528 4.34375L37.7249 3.40104Z" fill="#2A42E4"/>
<path d="M24.9375 21.3327H23.625V17.9993H20.3438V16.666H24.2812C24.3674 16.666 24.4528 16.6832 24.5324 16.7167C24.612 16.7502 24.6844 16.7993 24.7453 16.8612C24.8063 16.9231 24.8546 16.9966 24.8876 17.0775C24.9206 17.1584 24.9375 17.2451 24.9375 17.3327V21.3327Z" fill="#2A42E4"/>
<path d="M1.3125 30.0007V28.6673C4.9492 28.6619 8.54623 27.8994 11.8816 26.4269C15.217 24.9545 18.22 22.8033 20.7052 20.1061L21.8328 18.8789L22.7922 19.7891L21.6646 21.0163C19.0563 23.8468 15.9048 26.1043 12.4044 27.6496C8.90404 29.1948 5.12909 29.995 1.3125 30.0007Z" fill="#2A42E4"/>
<path d="M18.3747 16.0017V13.5517L16.9133 13.0235C16.8027 12.6562 16.6574 12.3005 16.4794 11.9615L17.1463 10.5349C16.6769 9.86442 16.1002 9.2786 15.4403 8.80176L14.0358 9.47929C13.7022 9.29844 13.3521 9.1508 12.9904 9.03845L12.4705 7.44336H10.0587L9.53883 9.03845C9.17723 9.15078 8.82717 9.2984 8.49357 9.47925L7.08915 8.80167C6.42916 9.27853 5.85248 9.86436 5.38307 10.5348L6.05001 11.9615C5.87199 12.3005 5.72667 12.6561 5.61607 13.0235L4.0459 13.5517V16.0017L5.61607 16.5298C5.72666 16.8972 5.87197 17.2528 6.04997 17.5918L5.38299 19.0184C5.8524 19.6889 6.42907 20.2748 7.08907 20.7516L8.49349 20.0741C8.82716 20.2549 9.17725 20.4026 9.53889 20.5149L10.0588 21.9996H12.4705L12.9904 20.515C13.352 20.4026 13.7021 20.255 14.0358 20.0742L15.4402 20.7517C16.1002 20.2748 16.6768 19.689 17.1462 19.0185L16.4793 17.5918C16.6573 17.2529 16.8026 16.8972 16.9132 16.5298L18.3747 16.0017ZM11.2646 18.11C10.6157 18.11 9.98128 17.9145 9.44168 17.5482C8.90208 17.182 8.48152 16.6614 8.23317 16.0523C7.98482 15.4432 7.91984 14.773 8.04645 14.1264C8.17305 13.4798 8.48556 12.8858 8.94445 12.4197C9.40335 11.9535 9.98801 11.636 10.6245 11.5074C11.261 11.3788 11.9208 11.4448 12.5203 11.6971C13.1199 11.9494 13.6324 12.3766 13.9929 12.9248C14.3535 13.4729 14.5459 14.1174 14.5459 14.7767C14.5459 15.6607 14.2002 16.5086 13.5848 17.1337C12.9695 17.7588 12.1349 18.11 11.2646 18.11Z" fill="#2A42E4"/>
<path d="M3.07402 21.3679L1.10547 22.0352L1.52075 23.2995L3.4893 22.6322L3.07402 21.3679Z" fill="#2A42E4"/>
<path d="M5.69882 23.3666L1.76172 24.7012L2.177 25.9655L6.1141 24.6309L5.69882 23.3666Z" fill="#2A42E4"/>
</g>
<defs>
<clipPath id="clip0_39962_16476">
<rect width="42" height="44" fill="white"/>
</clipPath>
</defs>
</svg>
