<svg width="40" height="40" viewBox="0 0 40 40" fill="none" xmlns="http://www.w3.org/2000/svg">
<g id="Offer letter icon" clip-path="url(#clip0_40484_64741)">
<path id="Vector" d="M37.9331 14.7213C36.6659 13.4382 35.2595 12.0874 33.6395 10.5967V2.97764C33.6394 2.90925 33.6252 2.84154 33.5977 2.77838C33.5702 2.71522 33.5298 2.65784 33.479 2.60951C33.4282 2.56119 33.3679 2.52287 33.3016 2.49675C33.2352 2.47063 33.1641 2.45721 33.0923 2.45726H24.5067C24.0267 2.02716 23.5491 1.59364 23.0799 1.16583C22.2473 0.416656 21.1453 -0.000732422 19.9999 -0.000732422C18.8545 -0.000732422 17.7525 0.416656 16.9199 1.16583C16.4467 1.59706 15.9679 2.03021 15.4927 2.45726H6.55947C6.4876 2.45721 6.41642 2.47065 6.35001 2.49682C6.2836 2.523 6.22325 2.56138 6.17243 2.60978C6.12161 2.65819 6.0813 2.71566 6.05382 2.77891C6.02634 2.84216 6.01222 2.90995 6.01227 2.9784V10.9205C4.55507 12.2683 3.26267 13.514 2.07068 14.7213C1.97514 14.8178 1.92191 14.9455 1.92188 15.0782V37.5742C1.92182 37.6427 1.93594 37.7105 1.96342 37.7737C1.9909 37.837 2.03121 37.8944 2.08203 37.9428C2.13285 37.9912 2.1932 38.0296 2.25961 38.0558C2.32602 38.082 2.3972 38.0954 2.46908 38.0954H37.5347C37.6065 38.0954 37.6777 38.082 37.7441 38.0558C37.8106 38.0296 37.8709 37.9912 37.9217 37.9428C37.9725 37.8944 38.0128 37.837 38.0403 37.7737C38.0678 37.7105 38.0819 37.6427 38.0819 37.5742V15.0782C38.0818 14.9455 38.0286 14.8178 37.9331 14.7213ZM17.6787 1.91783C18.3075 1.35507 19.138 1.04179 20.0009 1.04179C20.8638 1.04179 21.6942 1.35507 22.3231 1.91783C22.5191 2.09649 22.7175 2.27668 22.9163 2.45687H17.0851C17.2835 2.27732 17.4813 2.09764 17.6787 1.91783ZM6.01227 12.3776V16.9449C6.0103 17.0145 6.02298 17.0837 6.04959 17.1486C6.07619 17.2134 6.11616 17.2726 6.16715 17.3225C6.21814 17.3723 6.27911 17.412 6.34646 17.4391C6.41381 17.4662 6.48617 17.4801 6.55927 17.4801C6.63238 17.4801 6.70474 17.4662 6.77209 17.4391C6.83944 17.412 6.90041 17.3723 6.9514 17.3225C7.00239 17.2726 7.04236 17.2134 7.06896 17.1486C7.09556 17.0837 7.10825 17.0145 7.10627 16.9449V3.49916H32.5463V17.2759C32.5443 17.3455 32.557 17.4148 32.5836 17.4796C32.6102 17.5445 32.6502 17.6036 32.7011 17.6535C32.7521 17.7034 32.8131 17.743 32.8805 17.7701C32.9478 17.7972 33.0202 17.8112 33.0933 17.8112C33.1664 17.8112 33.2387 17.7972 33.3061 17.7701C33.3734 17.743 33.4344 17.7034 33.4854 17.6535C33.5364 17.6036 33.5764 17.5445 33.603 17.4796C33.6296 17.4148 33.6422 17.3455 33.6403 17.2759V12.0496C34.7895 13.1209 35.8267 14.1205 36.7831 15.0786C33.7867 18.0976 30.4959 20.9936 27.3111 23.7952C26.1623 24.8062 24.9775 25.8489 23.8195 26.8858L20.3535 24.3502C20.258 24.2803 20.141 24.2424 20.0207 24.2424C19.9003 24.2424 19.7833 24.2803 19.6879 24.3502L16.1963 26.8988C15.0343 25.858 13.8431 24.8093 12.6891 23.794C9.50507 20.9925 6.21667 18.098 3.22108 15.0797C4.08828 14.2096 5.01027 13.3178 6.01227 12.3776ZM3.01587 37.0534V16.3849C5.87427 19.215 8.95588 21.9281 11.9459 24.5594C13.0551 25.5354 14.1983 26.5403 15.3155 27.5411L4.17388 35.674C4.11638 35.7154 4.06806 35.7673 4.03169 35.8266C3.99531 35.8858 3.97161 35.9514 3.96193 36.0194C3.95226 36.0875 3.9568 36.1567 3.97531 36.223C3.99382 36.2894 4.02593 36.3516 4.06978 36.4061C4.11363 36.4606 4.16836 36.5063 4.23083 36.5406C4.2933 36.5748 4.36227 36.597 4.43376 36.6058C4.50526 36.6146 4.57788 36.6098 4.64744 36.5918C4.717 36.5737 4.78213 36.5428 4.83908 36.5007L20.0191 25.4203L35.1663 36.5007C35.2813 36.5849 35.4268 36.622 35.5706 36.6041C35.7144 36.5861 35.8449 36.5145 35.9333 36.4049C36.0216 36.2953 36.0607 36.1568 36.0418 36.0198C36.023 35.8828 35.9477 35.7586 35.8327 35.6744L24.6979 27.5289C25.8115 26.5334 26.9483 25.5323 28.0527 24.5605C31.0443 21.9289 34.1291 19.2146 36.9879 16.383V37.0534H3.01587ZM10.3359 13.4458C10.336 13.3078 10.3935 13.1755 10.4958 13.0778C10.5982 12.9802 10.737 12.9251 10.8819 12.9247H28.7695C28.9146 12.9247 29.0538 12.9796 29.1564 13.0773C29.259 13.1751 29.3167 13.3076 29.3167 13.4458C29.3167 13.584 29.259 13.7166 29.1564 13.8143C29.0538 13.9121 28.9146 13.967 28.7695 13.967H10.8819C10.7372 13.9668 10.5985 13.912 10.496 13.8148C10.3936 13.7175 10.3357 13.5855 10.3351 13.4477L10.3359 13.4458ZM10.3359 17.0294C10.3359 16.8914 10.3934 16.759 10.4957 16.6613C10.5981 16.5636 10.737 16.5086 10.8819 16.5083H28.7695C28.912 16.512 29.0474 16.5685 29.1468 16.6658C29.2462 16.7631 29.3019 16.8935 29.3019 17.0293C29.3019 17.165 29.2462 17.2954 29.1468 17.3927C29.0474 17.49 28.912 17.5465 28.7695 17.5502H10.8819C10.81 17.5502 10.7389 17.5366 10.6725 17.5104C10.6061 17.4842 10.5458 17.4457 10.4951 17.3973C10.4443 17.3489 10.404 17.2914 10.3766 17.2281C10.3491 17.1649 10.335 17.0971 10.3351 17.0287L10.3359 17.0294ZM10.3359 20.6104C10.336 20.4724 10.3935 20.3402 10.4959 20.2425C10.5982 20.1449 10.737 20.0899 10.8819 20.0896H28.7695C28.912 20.0933 29.0474 20.1498 29.1468 20.2471C29.2462 20.3444 29.3019 20.4748 29.3019 20.6106C29.3019 20.7464 29.2462 20.8768 29.1468 20.9741C29.0474 21.0714 28.912 21.1279 28.7695 21.1315H10.8819C10.81 21.1315 10.7388 21.118 10.6724 21.0917C10.606 21.0654 10.5457 21.027 10.4949 20.9785C10.4441 20.93 10.4039 20.8725 10.3765 20.8092C10.349 20.7459 10.335 20.6781 10.3351 20.6096L10.3359 20.6104ZM10.3359 6.28126C10.3359 6.14324 10.3934 6.01086 10.4957 5.91316C10.5981 5.81545 10.737 5.76042 10.8819 5.76011H28.7695C28.912 5.76378 29.0474 5.82028 29.1468 5.91758C29.2462 6.01487 29.3019 6.14529 29.3019 6.28106C29.3019 6.41684 29.2462 6.54726 29.1468 6.64455C29.0474 6.74185 28.912 6.79835 28.7695 6.80202H10.8819C10.7369 6.80192 10.5979 6.74702 10.4953 6.64938C10.3928 6.55174 10.3352 6.41934 10.3351 6.28126H10.3359ZM10.3359 9.86221C10.336 9.72426 10.3935 9.59197 10.4959 9.49435C10.5982 9.39674 10.737 9.34175 10.8819 9.34145H28.7695C28.912 9.34512 29.0474 9.40161 29.1468 9.49891C29.2462 9.59621 29.3019 9.72662 29.3019 9.8624C29.3019 9.99817 29.2462 10.1286 29.1468 10.2259C29.0474 10.3232 28.912 10.3797 28.7695 10.3834H10.8819C10.7369 10.3833 10.5979 10.3284 10.4953 10.2307C10.3928 10.1331 10.3352 10.0007 10.3351 9.86259L10.3359 9.86221Z" fill="#F1A3AD"/>
</g>
<defs>
<clipPath id="clip0_40484_64741">
<rect width="40" height="40" fill="white"/>
</clipPath>
</defs>
</svg>
