<svg width="48" height="49" viewBox="0 0 48 49" fill="none" xmlns="http://www.w3.org/2000/svg">
<g id="noun-hire-5813060 1">
<path id="Vector" d="M37.1091 32.234C36.6478 31.7892 36.1537 31.312 35.6241 30.7998C37.2628 28.1994 38.2134 25.1124 38.2134 21.8039C38.2134 12.5638 30.7987 5.04688 21.6844 5.04688C12.57 5.04688 5.15625 12.5638 5.15625 21.8039C5.15625 31.044 12.5709 38.561 21.6853 38.561C24.8644 38.561 27.8363 37.6457 30.36 36.0623C31.2891 37.0669 32.0916 37.946 32.8116 38.7349C36.1228 42.3636 37.2384 43.5869 38.5734 43.6135C38.5875 43.6135 38.6016 43.6135 38.6156 43.6135C39.5944 43.6135 40.2684 42.9311 41.1947 41.9911C42.1594 41.0131 42.8569 40.306 42.8438 39.2424C42.825 37.7474 41.5003 36.4691 37.1091 32.234ZM7.03125 21.8039C7.03125 13.6122 13.605 6.94774 21.6853 6.94774C29.7656 6.94774 36.3394 13.6122 36.3394 21.8039C36.3394 29.9957 29.7656 36.6601 21.6853 36.6601C13.605 36.6601 7.03125 29.9957 7.03125 21.8039ZM39.8681 40.6462C39.375 41.1461 38.8172 41.7117 38.6109 41.7117H38.6091C38.0719 41.7012 36.4425 39.9153 34.1869 37.4433C33.5128 36.7038 32.7656 35.8855 31.9106 34.9598C32.8706 34.1909 33.7444 33.3165 34.5159 32.3547C34.9763 32.8004 35.4103 33.2186 35.8172 33.6111C39.0244 36.7048 40.9603 38.5724 40.9697 39.2662C40.9725 39.5276 40.4616 40.0465 39.8691 40.6462H39.8681Z" fill="#48BE97"/>
<path id="Vector_2" d="M28.6978 24.7206C27.5419 23.6875 25.6369 23.6875 21.8438 23.6875C18.0506 23.6875 16.1456 23.6875 14.9897 24.7206C13.7812 25.8003 13.7812 27.5396 13.7812 31.0058C13.7812 31.5305 14.2013 31.9563 14.7188 31.9563H28.9688C29.4862 31.9563 29.9062 31.5305 29.9062 31.0058C29.9062 27.5405 29.9062 25.8003 28.6978 24.7206ZM15.6572 30.0554C15.6647 27.9103 15.7266 26.5958 16.2291 26.1472C16.8544 25.5884 18.7322 25.5884 21.8438 25.5884C24.9553 25.5884 26.8331 25.5884 27.4584 26.1472C27.9609 26.5968 28.0228 27.9103 28.0303 30.0554H15.6572Z" fill="#48BE97"/>
<path id="Vector_3" d="M21.8438 21.8818C24.6356 21.8818 26.9062 19.5799 26.9062 16.7495C26.9062 13.9191 24.6356 11.6172 21.8438 11.6172C19.0519 11.6172 16.7812 13.9191 16.7812 16.7495C16.7812 19.5799 19.0519 21.8818 21.8438 21.8818ZM21.8438 13.518C23.6016 13.518 25.0312 14.9675 25.0312 16.7495C25.0312 18.5316 23.6016 19.981 21.8438 19.981C20.0859 19.981 18.6562 18.5316 18.6562 16.7495C18.6562 14.9675 20.0859 13.518 21.8438 13.518Z" fill="#48BE97"/>
</g>
</svg>
