<svg width="56" height="56" viewBox="0 0 56 56" fill="none" xmlns="http://www.w3.org/2000/svg">
<g id="Group">
<path id="Vector" d="M16.3307 11.6663V4.66634C16.3307 4.0475 16.5766 3.45401 17.0141 3.01643C17.4517 2.57884 18.0452 2.33301 18.6641 2.33301H37.3307C37.9496 2.33301 38.5431 2.57884 38.9806 3.01643C39.4182 3.45401 39.6641 4.0475 39.6641 4.66634V11.6663H48.9974C49.6162 11.6663 50.2097 11.9122 50.6473 12.3498C51.0849 12.7873 51.3307 13.3808 51.3307 13.9997V46.6663C51.3307 47.2852 51.0849 47.8787 50.6473 48.3163C50.2097 48.7538 49.6162 48.9997 48.9974 48.9997H6.9974C6.37856 48.9997 5.78506 48.7538 5.34748 48.3163C4.9099 47.8787 4.66406 47.2852 4.66406 46.6663V13.9997C4.66406 13.3808 4.9099 12.7873 5.34748 12.3498C5.78506 11.9122 6.37856 11.6663 6.9974 11.6663H16.3307ZM37.3307 34.9997H30.3307V37.333H25.6641V34.9997H18.6641V44.333H37.3307V34.9997ZM18.6641 16.333V30.333H25.6641V27.9997H30.3307V30.333H37.3307V16.333H18.6641ZM13.9974 30.333V16.333H9.33073V30.333H13.9974ZM41.9974 30.333H46.6641V16.333H41.9974V30.333ZM13.9974 34.9997H9.33073V44.333H13.9974V34.9997ZM41.9974 34.9997V44.333H46.6641V34.9997H41.9974ZM20.9974 6.99967V11.6663H34.9974V6.99967H20.9974Z" fill="#F1A3AD"/>
</g>
</svg>
