<svg width="56" height="56" viewBox="0 0 56 56" fill="none" xmlns="http://www.w3.org/2000/svg">
<g id="chart-mixed">
<path id="Icon" d="M14 18.6667L18.6667 14M25.6667 14L30.3333 18.6667M37.3333 18.6667L42 14M7 49V39.6667M21 49V30.3333M35 49V35M49 49V25.6667M14 22.1667C14 24.0997 12.433 25.6667 10.5 25.6667C8.567 25.6667 7 24.0997 7 22.1667C7 20.2337 8.567 18.6667 10.5 18.6667C12.433 18.6667 14 20.2337 14 22.1667ZM25.6667 10.5C25.6667 12.433 24.0997 14 22.1667 14C20.2337 14 18.6667 12.433 18.6667 10.5C18.6667 8.567 20.2337 7 22.1667 7C24.0997 7 25.6667 8.567 25.6667 10.5ZM37.3333 22.1667C37.3333 24.0997 35.7663 25.6667 33.8333 25.6667C31.9003 25.6667 30.3333 24.0997 30.3333 22.1667C30.3333 20.2337 31.9003 18.6667 33.8333 18.6667C35.7663 18.6667 37.3333 20.2337 37.3333 22.1667ZM49 10.5C49 12.433 47.433 14 45.5 14C43.567 14 42 12.433 42 10.5C42 8.567 43.567 7 45.5 7C47.433 7 49 8.567 49 10.5Z" stroke="#F1A3AD" stroke-width="1.3" stroke-linecap="round" stroke-linejoin="round"/>
</g>
</svg>
