<svg width="51" height="51" viewBox="0 0 51 51" fill="none" xmlns="http://www.w3.org/2000/svg">
<g id="noun-diversity-inclusion-5717306 1">
<path id="Vector" fill-rule="evenodd" clip-rule="evenodd" d="M25.5002 13.1063C27.8801 13.1067 30.1808 13.9431 31.9846 15.4634C33.7885 16.9838 34.9758 19.0873 35.3309 21.3919C36.8475 20.9142 38.4746 20.8862 40.0074 21.3117C41.5402 21.7371 42.9103 22.5969 43.9456 23.7829C44.9808 24.9689 45.6349 26.4282 45.8255 27.9773C46.0162 29.5265 45.7349 31.0962 45.0171 32.4892C44.2993 33.8822 43.177 35.0362 41.7913 35.8062C40.4056 36.5761 38.8184 36.9276 37.2293 36.8165C35.6402 36.7054 34.1201 36.1366 32.8601 35.1816C31.6002 34.2267 30.6567 32.9282 30.1482 31.4495C28.7157 32.1901 27.1203 32.5772 25.5005 32.5772C23.8806 32.5772 22.2853 32.1901 20.8528 31.4495C20.3442 32.9277 19.4008 34.2256 18.1411 35.1801C16.8814 36.1347 15.3617 36.7031 13.773 36.8141C12.1843 36.9251 10.5976 36.5736 9.21236 35.8039C7.82709 35.0341 6.7051 33.8804 5.98745 32.4879C5.26979 31.0954 4.98851 29.5261 5.17896 27.9774C5.36941 26.4288 6.02309 24.9698 7.05783 23.784C8.09256 22.5981 9.46216 21.7384 10.9944 21.3128C12.5267 20.8872 14.1532 20.9147 15.6696 21.3919C16.0247 19.0873 17.212 16.9838 19.0158 15.4634C20.8196 13.9431 23.1204 13.1067 25.5002 13.1063ZM15.3271 40.9828L8.83611 40.7604C8.76208 40.7581 8.6883 40.7701 8.61901 40.7957C8.54971 40.8213 8.48625 40.8601 8.43226 40.9097C8.37826 40.9594 8.33479 41.019 8.30432 41.0851C8.27386 41.1512 8.257 41.2226 8.25471 41.2951C8.25471 41.3067 8.25471 41.3182 8.25471 41.3298L8.48233 47.688C8.49137 47.8313 8.55708 47.9656 8.66551 48.0624C8.77395 48.1591 8.91659 48.2107 9.0632 48.2062C9.20981 48.2017 9.34887 48.1414 9.45089 48.0382C9.55291 47.935 9.60987 47.7969 9.6097 47.6533L9.43039 42.6405C13.9185 46.559 19.7372 48.6975 25.7494 48.6381C31.7616 48.5788 37.5351 46.3258 41.9416 42.3196C46.3481 38.3134 49.0709 32.8418 49.5778 26.9742C50.0847 21.1067 48.3393 15.2648 44.6827 10.5905C44.5917 10.4739 44.4571 10.3975 44.3086 10.3781C44.1601 10.3586 44.0099 10.3978 43.8908 10.4869C43.7718 10.576 43.6938 10.7077 43.674 10.8532C43.6541 10.9986 43.6941 11.1458 43.7851 11.2624C47.253 15.7085 48.91 21.2582 48.4342 26.8338C47.9583 32.4093 45.3836 37.6127 41.2101 41.4332C37.0366 45.2537 31.5622 47.4188 25.8502 47.5078C20.1381 47.5968 14.5961 45.6035 10.3006 41.915L15.2932 42.0864C15.4399 42.0865 15.5809 42.0307 15.6863 41.9308C15.7917 41.8309 15.8532 41.6947 15.8578 41.5511C15.8624 41.4076 15.8098 41.2679 15.711 41.1617C15.6122 41.0555 15.4751 40.9911 15.3287 40.9822L15.3271 40.9828ZM41.3908 2.29744L41.5701 7.31068C37.0818 3.39438 31.264 1.25755 25.2532 1.31764C19.2423 1.37773 13.4703 3.63041 9.06459 7.63562C4.65893 11.6408 1.93618 17.1108 1.42824 22.977C0.920306 28.8431 2.66368 34.6841 6.31778 39.3587C6.36283 39.4164 6.41905 39.4648 6.48322 39.5013C6.5474 39.5377 6.61827 39.5614 6.6918 39.5711C6.76533 39.5807 6.84007 39.576 6.91177 39.5574C6.98346 39.5387 7.05069 39.5064 7.10963 39.4622C7.16856 39.4181 7.21805 39.3631 7.25526 39.3002C7.29247 39.2374 7.31668 39.1679 7.3265 39.0959C7.33632 39.0239 7.33156 38.9507 7.3125 38.8805C7.29343 38.8103 7.26043 38.7444 7.21538 38.6867C3.74684 34.2406 2.08944 28.6906 2.56511 23.1147C3.04079 17.5388 5.61559 12.3351 9.78938 8.51439C13.9632 4.69365 19.438 2.52864 25.1504 2.43989C30.8628 2.35114 36.4049 4.34499 40.7004 8.03415L35.7077 7.86274C35.5611 7.86272 35.4202 7.9186 35.3149 8.01856C35.2096 8.11852 35.1482 8.25469 35.1437 8.39824C35.1391 8.54178 35.1918 8.68142 35.2906 8.78756C35.3894 8.8937 35.5265 8.95801 35.6728 8.96687L42.1633 9.18927H42.1987C42.3483 9.18446 42.4898 9.12177 42.5922 9.01493C42.6947 8.90809 42.7497 8.76583 42.7452 8.61933L42.5181 2.26116C42.5091 2.11772 42.4433 1.98338 42.3348 1.88663C42.2263 1.78987 42.0836 1.73832 41.937 1.7429C41.7903 1.74749 41.6513 1.80784 41.5493 1.91117C41.4473 2.0145 41.3904 2.15268 41.3908 2.29638V2.29744ZM13.1904 29.2212C13.6165 29.2206 14.0291 29.0753 14.358 28.8101C14.6869 28.5449 14.9117 28.1761 14.9942 27.7668C15.0766 27.3574 15.0116 26.9327 14.8101 26.5651C14.6086 26.1974 14.2832 25.9095 13.8894 25.7505C13.4955 25.5915 13.0575 25.5712 12.65 25.693C12.2425 25.8148 11.8908 26.0713 11.6547 26.4186C11.4187 26.766 11.3129 27.1828 11.3555 27.5979C11.398 28.0131 11.5862 28.401 11.8881 28.6955C12.0591 28.8628 12.2622 28.9954 12.4857 29.0856C12.7092 29.1758 12.9487 29.2219 13.1904 29.2212ZM15.2927 29.4773C15.2544 29.5144 15.2152 29.5507 15.1751 29.5861C15.9956 29.9002 16.7266 30.4036 17.306 31.0535C17.8855 31.7033 18.2963 32.4805 18.5036 33.3191C19.1243 32.5995 19.5855 31.7614 19.858 30.858C19.3619 30.5221 18.8978 30.1431 18.4714 29.7254C17.5469 28.8226 16.8138 27.7496 16.3142 26.5683C15.8146 25.387 15.5583 24.1207 15.5601 22.842C15.5601 22.7369 15.5601 22.6317 15.5654 22.5266C15.2482 22.4135 14.9229 22.3233 14.5921 22.2568C13.5815 22.0537 12.5374 22.0734 11.5355 22.3144C10.5336 22.5554 9.59904 23.0117 8.79948 23.6502C7.99993 24.2887 7.35544 25.0934 6.91274 26.0061C6.47005 26.9187 6.24023 27.9164 6.23994 28.9268C6.23778 30.5351 6.81924 32.0918 7.88053 33.3191C8.08743 32.4809 8.49766 31.704 9.07642 31.0541C9.65518 30.4043 10.3854 29.9007 11.2052 29.5861C11.1651 29.5511 11.1259 29.5148 11.0876 29.4773C10.6716 29.07 10.3882 28.551 10.2733 27.9859C10.1584 27.4208 10.2173 26.8351 10.4423 26.3028C10.6674 25.7705 11.0486 25.3155 11.5377 24.9954C12.0268 24.6753 12.6019 24.5044 13.1902 24.5044C13.7784 24.5044 14.3535 24.6753 14.8426 24.9954C15.3317 25.3155 15.7129 25.7705 15.938 26.3028C16.1631 26.8351 16.2219 27.4208 16.107 27.9859C15.9922 28.551 15.7088 29.07 15.2927 29.4773ZM17.5109 34.2618C17.4342 33.1908 16.9458 32.1881 16.1441 31.4558C15.3424 30.7236 14.2871 30.3162 13.1909 30.3158C12.0946 30.3154 11.039 30.722 10.2368 31.4537C9.43451 32.1854 8.94532 33.1877 8.86778 34.2587C10.0954 35.2123 11.6158 35.7321 13.1828 35.7339C14.7497 35.7358 16.2713 35.2194 17.5013 34.2687L17.5093 34.2618H17.5109ZM37.81 29.2212C38.2361 29.2207 38.6488 29.0755 38.9778 28.8104C39.3068 28.5452 39.5317 28.1765 39.6142 27.7672C39.6968 27.3578 39.6318 26.9331 39.4304 26.5653C39.229 26.1976 38.9036 25.9097 38.5097 25.7506C38.1158 25.5915 37.6778 25.5712 37.2703 25.6929C36.8628 25.8147 36.511 26.0712 36.2749 26.4185C36.0388 26.7659 35.933 27.1827 35.9756 27.5979C36.0181 28.0131 36.2063 28.401 36.5082 28.6955C36.6791 28.8628 36.8821 28.9953 37.1055 29.0856C37.3289 29.1758 37.5684 29.2219 37.81 29.2212ZM39.9128 29.4773C39.8749 29.5144 39.8357 29.5507 39.7953 29.5861C40.615 29.9007 41.3453 30.4043 41.924 31.0541C42.5028 31.704 42.913 32.4809 43.1199 33.3191C43.9749 32.3278 44.5227 31.1178 44.6989 29.8317C44.875 28.5456 44.6721 27.2369 44.1141 26.06C43.5561 24.8831 42.6662 23.8869 41.5492 23.1889C40.4323 22.4908 39.135 22.12 37.81 22.1201C37.3393 22.1192 36.8697 22.1649 36.4083 22.2563C36.0778 22.3228 35.7526 22.4129 35.4356 22.526C35.4388 22.6312 35.4409 22.7363 35.4409 22.8415C35.4426 24.1202 35.1862 25.3865 34.6865 26.5678C34.1868 27.7491 33.4536 28.8221 32.5291 29.7249C32.1027 30.1424 31.6388 30.5215 31.143 30.8574C31.4157 31.762 31.8777 32.601 32.4996 33.3212C32.7068 32.4827 33.1176 31.7055 33.6971 31.0556C34.2765 30.4057 35.0075 29.9023 35.828 29.5882C35.7876 29.5532 35.7484 29.5169 35.7104 29.4794C35.2945 29.0721 35.0113 28.5532 34.8966 27.9883C34.7818 27.4233 34.8407 26.8378 35.0657 26.3056C35.2908 25.7734 35.6719 25.3186 36.1609 24.9986C36.6499 24.6786 37.2248 24.5078 37.813 24.5078C38.4011 24.5078 38.976 24.6786 39.465 24.9986C39.954 25.3186 40.3352 25.7734 40.5602 26.3056C40.7853 26.8378 40.8441 27.4233 40.7294 27.9883C40.6146 28.5532 40.3314 29.0721 39.9155 29.4794L39.9128 29.4773ZM42.1311 34.2587C42.0535 33.1877 41.5643 32.1854 40.7621 31.4537C39.9598 30.722 38.9042 30.3154 37.808 30.3158C36.7117 30.3162 35.6564 30.7236 34.8547 31.4558C34.053 32.1881 33.5646 33.1908 33.4879 34.2618L33.4965 34.2687C34.7263 35.2195 36.2479 35.7358 37.8147 35.734C39.3816 35.7322 40.9019 35.2123 42.1294 34.2587H42.1311ZM25.5002 23.3447C26.0636 23.3444 26.6094 23.1529 27.0447 22.8027C27.48 22.4525 27.7779 21.9653 27.8876 21.4241C27.9973 20.8829 27.912 20.3213 27.6462 19.8348C27.3805 19.3483 26.9508 18.9671 26.4302 18.7561C25.9097 18.5451 25.3306 18.5174 24.7915 18.6777C24.2525 18.838 23.7869 19.1764 23.474 19.6353C23.1612 20.0941 23.0204 20.645 23.0757 21.194C23.1311 21.7431 23.3791 22.2564 23.7775 22.6464C24.0035 22.8682 24.2721 23.0441 24.5677 23.1639C24.8634 23.2837 25.1803 23.3452 25.5002 23.3447ZM28.0234 23.4304C27.9218 23.5296 27.8142 23.6229 27.7013 23.7095C28.798 24.0867 29.7755 24.7373 30.5372 25.5973C31.2989 26.4572 31.8185 27.4968 32.0449 28.6134C33.1844 27.3741 33.9327 25.8379 34.1991 24.1907C34.4656 22.5435 34.2388 20.856 33.5463 19.3324C32.8537 17.8089 31.7251 16.5146 30.297 15.6062C28.8689 14.6979 27.2025 14.2145 25.4997 14.2145C23.7968 14.2145 22.1305 14.6979 20.7024 15.6062C19.2743 16.5146 18.1456 17.8089 17.4531 19.3324C16.7605 20.856 16.5338 22.5435 16.8002 24.1907C17.0667 25.8379 17.815 27.3741 18.9545 28.6134C19.1815 27.4973 19.7015 26.4583 20.4634 25.5989C21.2252 24.7395 22.2026 24.0894 23.2992 23.7127C22.7292 23.2752 22.3087 22.6783 22.0934 22.0012C21.8781 21.3241 21.8782 20.5988 22.0938 19.9218C22.3093 19.2447 22.7301 18.6479 23.3002 18.2107C23.8702 17.7734 24.5627 17.5163 25.2855 17.4736C26.0083 17.4309 26.7272 17.6045 27.3469 17.9715C27.9665 18.3385 28.4575 18.8814 28.7546 19.5281C29.0517 20.1749 29.1409 20.8948 29.0103 21.5924C28.8797 22.29 28.5355 22.9321 28.0234 23.4335V23.4304ZM31.0329 29.5535C30.9478 28.1731 30.3278 26.8765 29.2996 25.9286C28.2713 24.9808 26.9123 24.4531 25.5002 24.4535C24.0881 24.4531 22.7292 24.9808 21.7009 25.9286C20.6726 26.8765 20.0526 28.1731 19.9675 29.5535C21.5343 30.7919 23.4869 31.4673 25.5002 31.4673C27.5136 31.4673 29.4662 30.7919 31.0329 29.5535Z" fill="#EB9F68"/>
</g>
</svg>
