<svg width="50" height="49" viewBox="0 0 50 49" fill="none" xmlns="http://www.w3.org/2000/svg">
<g id="noun-file-5966456 2">
<path id="Vector" d="M15.6061 45.9143H39.192C40.5748 45.9143 41.6998 44.8031 41.6998 43.4373V10.6999C41.6998 9.33406 40.5748 8.22288 39.192 8.22288H36.9029V5.95036C36.9029 4.58453 35.7779 3.47335 34.3951 3.47335C13.399 3.47335 13.61 3.42705 13.3951 3.55051C13.3209 3.59295 8.47325 8.3502 8.47325 8.39264C8.22325 8.63957 8.31309 8.39264 8.30137 38.6878C8.30137 40.0536 9.42637 41.1648 10.8092 41.1648H13.0982V43.4373C13.0982 44.8031 14.2232 45.9143 15.6061 45.9143ZM9.47325 38.6878V9.38036H11.7623C13.1451 9.38036 14.2701 8.26917 14.2701 6.90335V4.63083H34.3951C35.1334 4.63083 35.7311 5.22114 35.7311 5.95036V38.6878C35.7311 39.417 35.1334 40.0073 34.3951 40.0073H10.8092C10.0709 40.0073 9.47325 39.417 9.47325 38.6878ZM10.3014 8.22288L13.1022 5.45264V6.90335C13.1022 7.63256 12.5045 8.22288 11.7662 8.22288H10.3014ZM34.3951 41.1648C35.7779 41.1648 36.9029 40.0536 36.9029 38.6878V9.38036H39.192C39.9303 9.38036 40.5279 9.97067 40.5279 10.6999V43.4373C40.5279 44.1665 39.9303 44.7568 39.192 44.7568H15.6061C14.8678 44.7568 14.2701 44.1665 14.2701 43.4373V41.1648H34.3951Z" fill="#F1A3AD"/>
<path id="Vector_2" d="M18.1406 12.0129H27.0586C27.832 12.0129 27.832 10.8555 27.0586 10.8555H18.1406C17.3672 10.8555 17.3672 12.0129 18.1406 12.0129Z" fill="#F1A3AD"/>
<path id="Vector_3" d="M13.6836 16.3294H31.5195C32.293 16.3294 32.293 15.1719 31.5195 15.1719H13.6836C12.9102 15.1719 12.9102 16.3294 13.6836 16.3294Z" fill="#F1A3AD"/>
<path id="Vector_4" d="M13.6836 20.6458H31.5195C32.293 20.6458 32.293 19.4883 31.5195 19.4883H13.6836C12.9102 19.4883 12.9102 20.6458 13.6836 20.6458Z" fill="#F1A3AD"/>
<path id="Vector_5" d="M18.1406 23.8008C17.3672 23.8008 17.3672 24.9583 18.1406 24.9583H27.0586C27.832 24.9583 27.832 23.8008 27.0586 23.8008H18.1406Z" fill="#F1A3AD"/>
<path id="Vector_6" d="M13.6836 29.2747H31.5195C32.293 29.2747 32.293 28.1172 31.5195 28.1172H13.6836C12.9102 28.1172 12.9102 29.2747 13.6836 29.2747Z" fill="#F1A3AD"/>
<path id="Vector_7" d="M13.6836 33.5911H31.5195C32.293 33.5911 32.293 32.4336 31.5195 32.4336H13.6836C12.9102 32.4336 12.9102 33.5911 13.6836 33.5911Z" fill="#F1A3AD"/>
</g>
</svg>
