<svg width="40" height="35" viewBox="0 0 40 35" fill="none" xmlns="http://www.w3.org/2000/svg">
<path id="Vector" d="M0.725 33.9816C0.5875 34.1908 0.59375 34.4616 0.74375 34.6647C0.8625 34.8308 1.05625 34.9293 1.25625 34.9293C1.3 34.9293 1.34375 34.9293 1.39375 34.917L7.1375 33.6616C8.79375 34.4924 10.65 34.9293 12.5125 34.9293C18.9937 34.9293 24.275 29.7847 24.375 23.4216C27.1875 24.1724 30.2687 23.8893 32.8812 22.5847L38.625 23.8339C38.6687 23.8462 38.7125 23.8462 38.7625 23.8462C38.9625 23.8462 39.1562 23.7477 39.275 23.5816C39.4187 23.3785 39.425 23.1077 39.2937 22.8985L36.95 19.2493C38.525 17.2247 39.3875 14.7201 39.3875 12.1478C39.3875 5.69852 34.0625 0.455444 27.5125 0.455444C20.9625 0.455444 15.75 5.60006 15.65 11.957C14.65 11.6862 13.6 11.5324 12.5125 11.5324C5.95 11.5385 0.625 16.7816 0.625 23.2308C0.625 25.797 1.4875 28.3016 3.06875 30.3324L0.725 33.9816ZM27.5 1.69237C33.3562 1.69237 38.125 6.38775 38.125 12.1539C38.125 14.5847 37.2625 16.9539 35.6875 18.8185C35.5125 19.0216 35.4937 19.317 35.6375 19.5385L37.4187 22.3077L32.9187 21.3293C32.775 21.2985 32.6187 21.317 32.4875 21.3847C29.9937 22.6893 26.9875 22.9416 24.3125 22.117C23.8875 17.6801 20.925 13.957 16.875 12.3693C16.875 12.2954 16.8687 12.2216 16.8687 12.1478C16.8687 6.3816 21.6375 1.68621 27.4937 1.68621L27.5 1.69237ZM1.875 23.2308C1.875 17.4647 6.64375 12.7693 12.5 12.7693C18.3562 12.7693 23.125 17.4647 23.125 23.2308C23.125 28.997 18.3562 33.6924 12.5 33.6924C10.7625 33.6924 9.0375 33.2677 7.50625 32.4616C7.4125 32.4124 7.3125 32.3878 7.2125 32.3878C7.16875 32.3878 7.11875 32.3878 7.075 32.4001L2.58125 33.3785L4.3625 30.6093C4.50625 30.3816 4.4875 30.0924 4.31875 29.8893C2.74375 28.0185 1.88125 25.6493 1.88125 23.2185L1.875 23.2308Z" fill="#F1A3AD"/>
</svg>
