<svg width="20" height="20" viewBox="0 0 20 20" fill="none" xmlns="http://www.w3.org/2000/svg">
<g id="Group">
<path id="Vector" d="M10.8333 11.6668H9.16667C7.79967 11.6663 6.45853 12.0394 5.28823 12.7459C4.11793 13.4524 3.163 14.4653 2.52667 15.6752C2.50878 15.4506 2.49989 15.2254 2.5 15.0002C2.5 10.3977 6.23083 6.66683 10.8333 6.66683V2.0835L19.5833 9.16683L10.8333 16.2502V11.6668ZM9.16667 10.0002H12.5V12.7568L16.9342 9.16683L12.5 5.57683V8.3335H10.8333C9.87521 8.33242 8.92816 8.53834 8.05699 8.93718C7.18582 9.33602 6.4111 9.91835 5.78583 10.6443C6.86193 10.2178 8.00914 9.99926 9.16667 10.0002Z" fill="#3B4B54"/>
</g>
</svg>
