<svg width="405" height="410" viewBox="0 0 405 410" fill="none" xmlns="http://www.w3.org/2000/svg">
<path opacity="0.36" d="M167.509 284.364C246.034 284.364 309.691 220.707 309.691 142.182C309.691 63.6571 246.034 0 167.509 0C88.9842 0 25.3271 63.6571 25.3271 142.182C25.3271 220.707 88.9842 284.364 167.509 284.364Z" fill="#DADEEA"/>
<path opacity="0.36" d="M207.104 409.537C315.21 409.537 402.847 403.697 402.847 396.493C402.847 389.289 315.21 383.449 207.104 383.449C98.9985 383.449 11.3613 389.289 11.3613 396.493C11.3613 403.697 98.9985 409.537 207.104 409.537Z" fill="#7DBBF1"/>
<path d="M147.152 270.59C147.152 270.59 146.603 259.306 130.638 253.297C130.638 253.297 133.109 268.534 147.152 270.59Z" fill="#48BE97"/>
<path d="M145.884 290.542C145.884 290.542 144.225 275.981 123.053 269.543C123.053 269.543 127.532 289.061 145.884 290.542Z" fill="#48BE97"/>
<path d="M151.176 319.404C151.176 319.404 148.77 302.52 123.931 295.723C123.931 295.723 129.779 318.281 151.176 319.404Z" fill="#48BE97"/>
<path d="M168.52 349.665C168.52 349.665 159.107 331.423 128.184 333.522C128.184 333.522 143.753 356.851 168.52 349.665Z" fill="#48BE97"/>
<path d="M147.129 270.806C147.129 270.806 149.314 259.722 165.984 256.1C165.984 256.1 161.322 270.815 147.129 270.806Z" fill="#48BE97"/>
<path d="M145.479 290.728C145.479 290.728 149.239 276.563 171.123 273.275C171.123 273.275 163.851 291.933 145.479 290.728Z" fill="#48BE97"/>
<path d="M150.775 319.273C150.775 319.273 148.654 302.35 170.83 289.258C170.83 289.258 171.123 312.56 150.775 319.273Z" fill="#48BE97"/>
<path d="M167.157 349.85C167.157 349.85 158.878 331.067 179.938 308.326C179.938 308.326 188.307 335.095 167.157 349.85Z" fill="#48BE97"/>
<path d="M147.385 270.244C147.385 270.244 131.764 335.302 203.268 381.783" stroke="#48BE97" stroke-width="2.0108" stroke-miterlimit="10" stroke-linecap="round"/>
<path d="M265.19 291.464C265.19 291.464 267.295 280.365 283.939 276.623C283.939 276.623 279.383 291.371 265.19 291.464Z" fill="#48BE97"/>
<path d="M263.281 311.588C263.281 311.588 266.939 297.396 288.799 293.951C288.799 293.951 281.662 312.661 263.281 311.588Z" fill="#48BE97"/>
<path d="M254.635 338.775C254.635 338.775 263.424 324.159 288.949 327.568C288.949 327.568 274.782 346.07 254.635 338.775Z" fill="#48BE97"/>
<path d="M233.994 366.822C233.994 366.822 248.902 352.712 277.398 364.903C277.398 364.903 254.999 381.783 233.994 366.822Z" fill="#48BE97"/>
<path d="M265.184 291.68C265.184 291.68 264.554 280.4 248.546 274.506C248.546 274.506 251.126 289.725 265.184 291.68Z" fill="#48BE97"/>
<path d="M263.29 311.533C263.29 311.533 261.527 296.984 240.309 290.699C240.309 290.699 244.927 310.184 263.29 311.533Z" fill="#48BE97"/>
<path d="M254.863 339.178C254.863 339.178 259.306 322.712 239.155 306.676C239.155 306.676 235.64 329.713 254.863 339.178Z" fill="#48BE97"/>
<path d="M234.408 367.193C234.408 367.193 245.207 349.736 227.498 324.299C227.498 324.299 215.504 349.653 234.408 367.193Z" fill="#48BE97"/>
<path d="M265.009 291.09C265.009 291.09 267.297 345.748 224.5 374.547" stroke="#48BE97" stroke-width="2.0108" stroke-miterlimit="10" stroke-linecap="round"/>
<path d="M60.3288 396.494C65.1568 386.024 73.7538 355.308 60.5088 348.884C52.2028 344.856 49.7637 351.754 49.7637 351.754C49.7637 351.754 55.7658 318.153 41.5378 318.081C33.2418 318.039 31.8427 327.563 31.8427 327.563C31.8427 327.563 27.3347 317.056 21.8147 314.002C9.82075 307.366 -4.45725 314.227 6.60775 332.999C9.60775 338.089 13.7727 341.753 13.7727 341.753C13.7727 341.753 1.26875 337.042 0.045752 345.985C-1.17725 354.928 22.5247 369.131 22.5247 369.131C22.5247 369.131 15.4307 369.401 15.1528 377.595C14.7758 388.667 37.6318 396.493 37.6318 396.493H60.3288V396.494Z" fill="#36A871"/>
<path d="M15.0723 322.188C30.6193 344.982 43.3913 351.755 53.7873 394.203" stroke="white" stroke-width="0.794" stroke-miterlimit="10" stroke-linecap="round"/>
<path d="M70.8738 396.496C70.3628 380.932 93.3359 348.597 79.4209 340.756C70.6949 335.839 68.2318 344.727 68.2318 344.727C68.2318 344.727 87.8878 311.419 69.0818 309.187C62.5278 308.409 58.7269 317.987 58.7269 317.987C58.7269 317.987 58.5688 300.838 53.3198 294.414C44.7568 283.934 26.8358 289.791 31.0628 312.384C33.3808 324.775 41.8939 329.68 41.8939 329.68C41.8939 329.68 33.2838 323.108 29.1758 331.737C23.6728 343.298 42.1228 358.234 42.1228 358.234C42.1228 358.234 33.8668 352.118 28.4118 362.121C21.0408 375.636 49.0698 396.497 49.0698 396.497H70.8738V396.496Z" fill="#48BE97"/>
<path d="M46.002 306.854C56.525 333.575 62.01 362.894 64.282 393.868" stroke="white" stroke-width="0.794" stroke-miterlimit="10" stroke-linecap="round"/>
<path d="M347.251 396.496C350.671 383.858 334.19 358.96 346.992 352.593C355.02 348.601 359.334 352.684 359.334 352.684C359.334 352.684 349.882 327.588 365.568 325.776C371.035 325.144 372.692 330.016 372.692 330.016C372.692 330.016 374.864 322.584 380.726 317.92C391.839 309.079 406.32 312.356 398.528 330.702C394.255 340.763 390.88 342.238 390.88 342.238C390.88 342.238 398.604 340.742 400.27 347.748C402.502 357.136 384.003 372.849 384.003 372.849C384.003 372.849 390.651 373.475 391.527 378.448C393.463 389.443 370.148 396.495 370.148 396.495H347.251V396.496Z" fill="#36A871"/>
<path d="M393.462 319.756C372.177 337.038 371.389 372.21 360.607 392.52" stroke="white" stroke-width="0.7248" stroke-miterlimit="10" stroke-linecap="round"/>
<path d="M337.629 396.494C329.923 383.819 313.159 346.631 325.447 338.854C333.153 333.977 337.451 342.329 337.451 342.329C337.451 342.329 322.686 301.649 337.606 301.563C346.305 301.512 350.173 313.043 350.173 313.043C350.173 313.043 353.126 301.11 357.263 293.938C366.785 277.432 389.116 284.024 381.234 310.223C379.237 316.862 373.235 325.287 373.235 325.287C373.235 325.287 387.104 324.454 386.735 336.454C386.386 347.838 367.167 358.544 367.167 358.544C367.167 358.544 379.945 355.696 382.302 365.617C385.487 379.022 357.262 396.496 357.262 396.496H337.629V396.494Z" fill="#48BE97"/>
<path d="M370.608 300.52C359.871 336.903 344.141 342.33 343.918 393.721" stroke="white" stroke-width="0.7248" stroke-miterlimit="10" stroke-linecap="round"/>
<path d="M207.215 302.049C207.215 302.049 208.085 294.341 219.286 290.922C219.286 290.922 216.927 301.254 207.215 302.049Z" fill="#36A871"/>
<path d="M207.211 315.776C207.211 315.776 208.984 305.871 223.773 302.387C223.773 302.387 219.85 315.564 207.211 315.776Z" fill="#36A871"/>
<path d="M202.323 335.317C202.323 335.317 204.71 323.853 222.026 320.283C222.026 320.283 217.033 335.483 202.323 335.317Z" fill="#36A871"/>
<path d="M189.116 355.293C189.116 355.293 196.363 343.206 217.46 345.996C217.46 345.996 205.771 361.3 189.116 355.293Z" fill="#36A871"/>
<path d="M207.221 302.196C207.221 302.196 206.209 294.506 194.946 291.295C194.946 291.295 197.496 301.582 207.221 302.196Z" fill="#36A871"/>
<path d="M207.48 315.92C207.48 315.92 205.523 306.05 190.673 302.84C190.673 302.84 194.839 315.943 207.48 315.92Z" fill="#36A871"/>
<path d="M202.603 335.247C202.603 335.247 204.797 323.745 190.175 313.805C190.175 313.805 188.955 329.758 202.603 335.247Z" fill="#36A871"/>
<path d="M190.042 355.482C190.042 355.482 196.536 342.974 183.101 326.471C183.101 326.471 176.195 344.447 190.042 355.482Z" fill="#36A871"/>
<path d="M207.071 301.801C207.071 301.801 214.929 347.061 163.903 375.781" stroke="#36A871" stroke-width="1.3805" stroke-miterlimit="10" stroke-linecap="round"/>
<path d="M208.439 396.494C195.423 396.494 196.057 396.494 193.703 396.494C183.458 396.494 167.509 367.785 167.509 356.657C167.509 345.601 183.396 316.265 193.703 316.265C198.76 316.265 195.344 316.265 208.439 316.265C221.491 316.265 231.803 320.326 239.089 328.333C246.092 336.041 249.64 345.569 249.64 356.657C249.64 367.818 246.048 377.299 238.966 384.836C231.681 392.575 221.413 396.494 208.439 396.494ZM169.459 281.607L169.686 270.082C170.078 250.189 172.775 234.66 177.933 222.605C183.141 210.432 193.102 197.655 208.383 183.543L208.621 183.329L244.025 152.446C256.919 140.051 263.188 127.433 263.188 113.879C263.188 100.987 259.498 91.3403 251.907 84.3863C244.138 77.2793 232.072 73.6733 216.05 73.6733C200.119 73.6733 187.381 77.1163 178.188 83.9063C169.818 90.0853 165.921 97.8133 165.921 108.228V119.53H92.8672L93.0342 108.064C93.4472 79.5933 105.544 56.3223 128.988 38.8983C151.449 22.2033 180.741 13.7383 216.05 13.7383C252.802 13.7383 282.135 22.4493 303.235 39.6283C325.028 57.3793 336.077 81.8863 336.077 112.471C336.077 142.556 319.985 172.105 288.248 200.296L288.005 200.506L258.634 225.139C247.826 235.421 242.572 250.198 242.572 270.305V281.607H169.459Z" fill="#65A4DA"/>
<path d="M193.703 396.494C180.687 396.494 170.441 392.549 163.249 384.768C156.297 377.243 152.772 367.785 152.772 356.657C152.772 345.601 156.253 336.098 163.119 328.41C170.318 320.35 180.607 316.264 193.702 316.264C206.754 316.264 217.066 320.325 224.352 328.332C231.355 336.04 234.903 345.568 234.903 356.656C234.903 367.817 231.311 377.298 224.229 384.835C216.945 392.575 206.677 396.494 193.703 396.494ZM154.723 281.607L154.95 270.082C155.342 250.189 158.039 234.66 163.197 222.605C168.406 210.432 178.366 197.655 193.647 183.543L193.885 183.329L229.289 152.446C242.183 140.051 248.452 127.433 248.452 113.879C248.452 100.987 244.762 91.3403 237.171 84.3863C229.402 77.2793 217.336 73.6733 201.314 73.6733C185.383 73.6733 172.645 77.1163 163.452 83.9063C155.082 90.0853 151.185 97.8133 151.185 108.228V119.53H78.1309L78.2979 108.064C78.7109 79.5933 90.8079 56.3223 114.252 38.8983C136.713 22.2033 166.005 13.7383 201.315 13.7383C238.067 13.7383 267.4 22.4493 288.5 39.6283C310.293 57.3793 321.342 81.8863 321.342 112.471C321.342 142.556 305.25 172.105 273.513 200.296L273.27 200.506L243.899 225.139C233.091 235.421 227.838 250.198 227.838 270.305V281.607H154.723Z" fill="#7DBBF1"/>
<path d="M100.312 380.865C100.68 385.623 99.1157 396.243 100.357 396.494H135.495C135.495 396.494 135.845 391.144 131.683 389.984C126.124 388.435 119.357 387.29 116.829 385.069C115.581 383.973 114.976 380.865 114.976 380.865H100.312Z" fill="#0A1930"/>
<path d="M125.855 388.498C125.855 388.498 121.39 388.094 119.79 390.635" stroke="#7DBBF1" stroke-width="0.8477" stroke-miterlimit="10" stroke-linecap="round" stroke-linejoin="round"/>
<path d="M121.825 387.307C121.825 387.307 117.36 386.902 115.76 389.444" stroke="#7DBBF1" stroke-width="0.8477" stroke-miterlimit="10" stroke-linecap="round" stroke-linejoin="round"/>
<path d="M79.8345 380.865C79.3855 387.698 80.5715 395.92 78.6465 396.494H55.2925C55.2925 396.494 54.9605 392.668 58.0755 389.486C59.3515 388.182 62.3665 386.691 63.7355 385.317C64.9785 384.07 65.1715 380.865 65.1715 380.865H79.8345Z" fill="#0A1930"/>
<path d="M65.7763 389.356C65.7763 389.356 62.7873 385.84 59.0293 388.681" stroke="#7DBBF1" stroke-width="0.8477" stroke-miterlimit="10" stroke-linecap="round" stroke-linejoin="round"/>
<path d="M69.4518 387.572C69.4518 387.572 64.9748 383.89 61.5508 386.767" stroke="#7DBBF1" stroke-width="0.8477" stroke-miterlimit="10" stroke-linecap="round" stroke-linejoin="round"/>
<path d="M125.814 190.824C126.829 197.124 126.498 203.855 126.817 203.522C127.655 202.618 137.663 197.705 138.465 197.293C142.12 195.414 145.033 195.524 147.064 195.624C147.735 195.657 149.75 195.501 149.75 195.501C149.75 195.501 151.333 195.119 152.437 195.625C153.554 196.13 153.869 197.007 152.836 197.351C151.912 197.659 150.181 197.925 150.181 197.925C150.181 197.925 153.762 197.852 156.585 197.628C157.647 197.544 157.768 198.986 157.768 198.986C157.768 198.986 158.216 198.92 158.441 198.87C159.879 198.553 160.435 200.71 159.861 200.875C158.898 201.153 158.238 201.239 158.238 201.239C158.6 201.381 159.234 202.382 158.327 202.649C157.34 202.94 154.693 203.473 154.693 203.473C155.32 203.473 155.841 204.682 155.476 204.815C154.017 205.345 149.061 206.579 148.349 206.65C147.717 206.713 144.479 206.677 143.043 206.451C141.9 206.278 139.479 205.72 139.479 205.72C139.479 205.72 123.283 218.937 120.876 218.339C119.094 217.887 115.663 215.759 115.105 212.581C114.533 209.39 110.692 190.437 110.692 190.437C112.194 180.877 124.277 181.29 125.814 190.824Z" fill="#F4A484"/>
<path d="M138.275 200.912C138.275 200.912 138.194 204 139.206 205.404" stroke="#E08D68" stroke-width="0.5651" stroke-miterlimit="10" stroke-linecap="round" stroke-linejoin="round"/>
<path d="M147.768 198.254C147.768 198.254 146.169 200.919 141.196 200.566C144.972 201.254 147.359 205.1 147.359 205.1" stroke="#E08D68" stroke-width="0.5651" stroke-miterlimit="10" stroke-linecap="round" stroke-linejoin="round"/>
<path d="M154.349 203.457L148.926 204.236" stroke="#E08D68" stroke-width="0.5651" stroke-miterlimit="10" stroke-linecap="round" stroke-linejoin="round"/>
<path d="M157.422 201.152L149.26 202.098" stroke="#E08D68" stroke-width="0.5651" stroke-miterlimit="10" stroke-linecap="round" stroke-linejoin="round"/>
<path d="M157.09 198.988L149.683 199.684" stroke="#E08D68" stroke-width="0.5651" stroke-miterlimit="10" stroke-linecap="round" stroke-linejoin="round"/>
<path d="M110.762 123.551C110.762 123.551 112.264 125.119 112.628 128.596C112.992 132.073 110.282 136.69 110.282 136.69L110.762 123.551Z" fill="#24292D"/>
<path d="M120.936 237.694C122.071 248.472 115.933 382.311 115.933 382.311H100.276C100.276 382.311 95.3665 287.102 96.0275 273.209C96.6885 259.317 93.6845 246.139 94.5685 237.693C95.4525 229.249 119.02 219.513 120.936 237.694Z" fill="#FE5456"/>
<path d="M99.9892 238.092C100.004 286.482 80.3802 382.311 80.3802 382.311H64.2432C64.2432 382.311 72.3762 273.291 72.6782 259.348C72.8952 249.338 74.0252 242.373 75.0122 233.896C76.6792 219.584 99.9842 219.873 99.9892 238.092Z" fill="#FE5456"/>
<path opacity="0.36" d="M121.034 247.797C120.322 247.401 119.508 246.938 118.683 246.429C116.355 245.016 115.665 245.333 99.8315 246.316C99.6275 246.327 99.4244 246.339 99.2094 246.35C97.6494 246.44 96.1125 246.452 94.6205 246.395C84.6295 245.988 76.4804 242.496 74.1064 241.377C74.4004 238.936 74.7164 236.483 75.0104 233.895C76.4574 221.553 93.9984 220.061 98.7794 231.589C105.866 226.13 119.496 224.039 120.931 237.692C121.079 239.117 121.101 242.677 121.034 247.797Z" fill="#FE5456"/>
<path d="M116.024 160.69C127.506 171.466 126.864 200.137 126.864 200.137C126.864 200.137 116.291 207.165 110.002 204.423C110.002 204.423 105.245 175.02 107.756 165.953C109.29 160.414 113.889 158.686 116.024 160.69Z" fill="#021946"/>
<path opacity="0.36" d="M123.992 187.937C123.838 193.435 123.88 198.608 123.565 202.022C119.937 203.876 114.071 206.192 110.002 204.418C110.002 204.418 105.244 175.021 107.753 165.956C108.431 163.537 109.686 161.842 111.064 160.881L116.026 160.689C116.026 160.689 116.037 160.7 116.049 160.712C116.603 161.3 124.557 167.805 123.992 187.937Z" fill="#021946"/>
<path d="M86.567 156.346C86.567 156.346 69.728 159.113 69.213 162.185C68.698 165.257 75.107 209.546 75.107 219.942C75.107 230.338 73.892 240.179 73.892 240.179C73.892 240.179 87.384 243.959 100.268 243.723C113.152 243.487 121.373 241.566 121.373 241.566C121.373 241.566 120.626 228.779 120.369 220.273C120.112 211.767 122.122 186.954 122.142 177.864C122.16 169.958 118.445 163.501 116.023 160.691C114.022 158.369 103.5 155.926 103.5 155.926L86.567 156.346Z" fill="#021946"/>
<path opacity="0.36" d="M78.5374 216.502C77.0904 219.113 75.9494 221.294 75.0564 223.103C75.0904 222.063 75.1014 221.001 75.1014 219.938C75.1014 213.032 72.2644 191.151 70.5244 176.357L83.5444 168.807C85.1494 173.859 85.1494 204.556 78.5374 216.502Z" fill="#021946"/>
<path d="M88.1014 150.136L86.5674 156.382C86.5674 156.382 93.1794 167.401 100.984 166.299C108.789 165.197 103.501 155.924 103.501 155.924L103.812 151.788L89.4144 143.254L88.1014 150.136Z" fill="#E08D68"/>
<path d="M111.524 126.531C111.931 128.603 111.759 135.365 111.353 140.586C110.96 145.636 109.601 152.955 106.733 153.595C103.865 154.236 91.5449 151.856 90.9699 144.772C88.8709 143.115 80.8949 133.349 83.7039 128.516C88.6969 119.923 110.216 119.868 111.524 126.531Z" fill="#F4A484"/>
<path d="M101.464 138.437C101.938 138.437 102.321 137.864 102.321 137.157C102.321 136.45 101.938 135.877 101.464 135.877C100.991 135.877 100.607 136.45 100.607 137.157C100.607 137.864 100.991 138.437 101.464 138.437Z" fill="#24292D"/>
<path d="M109.982 136.801C109.982 137.508 109.598 138.081 109.125 138.081C108.652 138.081 108.268 137.508 108.268 136.801C108.268 136.094 108.652 135.521 109.125 135.521C109.598 135.521 109.982 136.094 109.982 136.801Z" fill="#24292D"/>
<path d="M102.904 134.041C102.083 133.824 101.324 133.674 100.6 133.78C99.8701 133.859 99.2321 134.254 98.5391 134.758C98.6981 134.367 98.9271 133.976 99.2831 133.701C99.6181 133.401 100.063 133.221 100.515 133.157C101.428 133.041 102.339 133.397 102.904 134.041Z" fill="#24292D"/>
<path d="M106.702 133.682C107.267 133.038 108.178 132.682 109.091 132.799C109.542 132.863 109.987 133.044 110.323 133.344C110.679 133.618 110.908 134.01 111.067 134.401C110.374 133.897 109.736 133.501 109.006 133.422C108.282 133.314 107.523 133.464 106.702 133.682Z" fill="#24292D"/>
<path d="M106.076 138.682C106.196 139.42 106.598 140.083 106.954 140.743L108.082 142.727C108.271 143.063 108.465 143.395 108.625 143.773C108.697 143.968 108.787 144.154 108.794 144.442C108.789 144.527 108.792 144.602 108.745 144.724C108.701 144.838 108.661 144.866 108.615 144.938C108.525 145.047 108.426 145.133 108.328 145.192C107.938 145.442 107.556 145.543 107.165 145.621C106.777 145.696 106.389 145.736 105.993 145.718L105.979 145.646C106.66 145.302 107.408 145.015 107.901 144.618C108.018 144.515 108.074 144.426 108.039 144.459C108.025 144.367 107.991 144.188 107.935 144.026C107.829 143.69 107.69 143.338 107.545 142.992L106.619 140.905C106.347 140.194 106.027 139.471 106.002 138.685L106.076 138.682Z" fill="#E5744C"/>
<path d="M108.773 146.827C108.773 146.827 106.449 146.612 104.151 147.76C104.151 147.76 108.1 148.334 108.459 147.939C108.819 147.545 108.773 146.827 108.773 146.827Z" fill="white"/>
<path d="M111.907 128.327C111.28 129.671 106.998 131.631 99.1374 131.198C99.1374 131.198 103.071 130.121 103.934 127.042C103.934 127.042 100.766 131.891 94.5984 131.767C94.5984 131.767 95.1414 136.098 92.4794 140.547C92.4794 140.547 90.7074 142.889 90.9704 144.772C91.2174 146.542 89.3434 149.705 88.1014 150.423C87.3534 144.821 81.4874 133.869 82.6294 127.699C83.7844 121.459 89.4134 121.35 89.4134 121.35C91.9754 117.276 101.439 115.605 107.611 118.971C112.18 121.465 113.049 125.881 111.907 128.327Z" fill="#24292D"/>
<path d="M93.1229 138.63C91.8089 135.395 87.3779 135.661 87.3539 138.386C87.3149 142.862 90.0139 144.188 90.9709 144.772C91.9279 145.356 93.9159 140.581 93.1229 138.63Z" fill="#F4A484"/>
<path d="M66.1423 190.996C65.1273 197.296 64.2743 203.491 63.9553 203.159C63.1173 202.255 48.5863 198.304 47.6813 197.762C43.4343 195.222 40.4623 195.624 38.5873 195.624L35.9013 195.501C35.9013 195.501 34.3183 195.119 33.2143 195.625C32.0973 196.13 31.7823 197.007 32.8153 197.351C33.7393 197.659 35.4703 197.925 35.4703 197.925C35.4703 197.925 31.8893 197.852 29.0663 197.628C28.0043 197.544 27.8833 198.986 27.8833 198.986C27.8833 198.986 27.4353 198.92 27.2103 198.87C25.7723 198.553 25.2163 200.71 25.7903 200.875C26.7523 201.153 27.4133 201.239 27.4133 201.239C27.0513 201.381 26.4173 202.382 27.3243 202.649C28.3113 202.94 30.9583 203.473 30.9583 203.473C30.3313 203.473 29.8103 204.682 30.1753 204.815C31.6343 205.345 36.5913 206.579 37.3023 206.65C37.9343 206.713 41.1723 206.677 42.6083 206.451C43.7513 206.278 46.1603 206.178 46.1603 206.178C46.1603 206.178 66.7233 216.143 69.1833 216.453C71.4123 216.734 75.1213 215.947 76.3163 212.581C77.4013 209.526 81.9103 190.917 81.9103 190.917C80.4073 181.356 67.6783 181.461 66.1423 190.996Z" fill="#F4A484"/>
<path d="M46.4209 205.941C46.4209 205.941 47.3879 204.611 47.6299 202.758" stroke="#E08D68" stroke-width="0.5651" stroke-miterlimit="10" stroke-linecap="round" stroke-linejoin="round"/>
<path d="M37.8828 198.254C37.8828 198.254 39.4818 200.919 44.4548 200.566C40.6788 201.254 38.2918 205.1 38.2918 205.1" stroke="#E08D68" stroke-width="0.5651" stroke-miterlimit="10" stroke-linecap="round" stroke-linejoin="round"/>
<path d="M31.3008 203.457L36.7238 204.236" stroke="#E08D68" stroke-width="0.5651" stroke-miterlimit="10" stroke-linecap="round" stroke-linejoin="round"/>
<path d="M28.2275 201.152L36.3905 202.098" stroke="#E08D68" stroke-width="0.5651" stroke-miterlimit="10" stroke-linecap="round" stroke-linejoin="round"/>
<path d="M28.5615 198.988L35.9685 199.684" stroke="#E08D68" stroke-width="0.5651" stroke-miterlimit="10" stroke-linecap="round" stroke-linejoin="round"/>
<path d="M69.1833 162.156C63.6003 173.293 63.4062 198.449 63.4062 198.449C63.4062 198.449 74.4163 204.178 80.9622 201.522C80.9622 201.522 85.2083 177.579 83.5462 168.8C82.5312 163.439 71.9013 156.736 69.1833 162.156Z" fill="#021946"/>
<path d="M305.27 380.867C304.902 385.625 306.466 396.245 305.225 396.496H270.087C270.087 396.496 269.737 391.146 273.899 389.986C279.458 388.437 286.225 387.292 288.753 385.071C290.001 383.975 290.606 380.867 290.606 380.867H305.27Z" fill="#FE5456"/>
<path d="M279.727 388.5C279.727 388.5 284.192 388.095 285.792 390.637" stroke="#7DBBF1" stroke-width="0.8477" stroke-miterlimit="10" stroke-linecap="round" stroke-linejoin="round"/>
<path d="M283.756 387.309C283.756 387.309 288.221 386.904 289.821 389.446" stroke="#7DBBF1" stroke-width="0.8477" stroke-miterlimit="10" stroke-linecap="round" stroke-linejoin="round"/>
<path d="M325.746 380.867C326.195 387.7 325.009 395.922 326.934 396.496H350.288C350.288 396.496 350.62 392.67 347.505 389.488C346.229 388.184 343.214 386.693 341.845 385.319C340.602 384.072 340.41 380.867 340.41 380.867H325.746Z" fill="#FE5456"/>
<path d="M339.805 389.358C339.805 389.358 342.794 385.842 346.552 388.683" stroke="#7DBBF1" stroke-width="0.8477" stroke-miterlimit="10" stroke-linecap="round" stroke-linejoin="round"/>
<path d="M336.128 387.574C336.128 387.574 340.605 383.892 344.03 386.769" stroke="#7DBBF1" stroke-width="0.8477" stroke-miterlimit="10" stroke-linecap="round" stroke-linejoin="round"/>
<path d="M283.559 237.281C282.424 248.059 289.983 382.31 289.983 382.31H305.638C305.638 382.31 310.548 287.101 309.887 273.208C309.226 259.316 312.229 246.138 311.345 237.692C310.462 229.248 285.475 219.1 283.559 237.281Z" fill="#021946"/>
<path d="M305.926 238.092C305.911 286.482 325.535 382.311 325.535 382.311H341.672C341.672 382.311 333.539 273.291 333.237 259.348C333.02 249.338 331.89 242.373 330.903 233.896C329.236 219.584 305.931 219.873 305.926 238.092Z" fill="#021946"/>
<path opacity="0.36" d="M331.868 241.784C329.155 242.982 321.108 246.113 311.309 246.147C310.405 246.147 309.478 246.124 308.551 246.068C307.703 246.023 306.878 245.966 306.076 245.932C294.254 245.31 287.744 245.582 285.698 246.147C284.896 246.362 284.15 247.04 283.539 247.82C283.415 242.474 283.403 238.744 283.561 237.286C285.008 223.52 299.678 225.995 307.104 231.658C308.279 228.776 310.246 226.708 312.563 225.408L323.73 224.594C327.415 225.995 330.353 229.149 330.907 233.896C331.224 236.631 331.563 239.207 331.868 241.784Z" fill="#021946"/>
<path d="M290.621 160.69C279.139 171.466 279.781 200.137 279.781 200.137C279.781 200.137 290.354 207.165 296.643 204.423C296.643 204.423 301.4 175.02 298.889 165.953C297.355 160.414 292.756 158.686 290.621 160.69Z" fill="#1B84C1"/>
<path d="M322.739 156.345C322.739 156.345 338.77 161.441 339.285 164.512C339.8 167.584 330.889 209.044 330.889 219.44C330.889 229.836 332.023 240.178 332.023 240.178C332.023 240.178 318.531 243.958 305.647 243.722C292.763 243.486 283.121 241.153 283.121 241.153C283.121 241.153 283.822 228.434 284.08 219.928C284.337 211.422 284.524 186.953 284.503 177.864C284.485 169.958 288.2 163.501 290.622 160.691C292.623 158.369 305.805 155.926 305.805 155.926L322.739 156.345Z" fill="#1B84C1"/>
<path opacity="0.36" d="M330.885 219.441C330.885 222.334 330.975 225.216 331.1 227.872C328.535 222.82 323.708 218.175 321.256 217.395C318.137 216.4 291.769 205.629 289.7 206.059C288.592 206.285 286.253 205.98 284.32 205.641C284.365 202.601 284.388 199.402 284.422 196.26L298.211 157.629C302.031 156.623 305.806 155.922 305.806 155.922C304.676 156.826 303.105 161.969 301.952 164.523C300.788 167.077 294.459 193.852 294.459 193.852L316.001 195.988C318.691 175.44 324.489 167.156 324.489 167.156L337.306 177.972C334.818 191.931 330.885 212.535 330.885 219.441Z" fill="#1B84C1"/>
<path d="M321.204 150.136L322.738 156.382C322.738 156.382 316.126 167.401 308.321 166.299C300.516 165.197 305.804 155.924 305.804 155.924L305.493 151.788L319.891 143.254L321.204 150.136Z" fill="#E08D68"/>
<path d="M298.345 126.609C297.938 128.681 297.546 135.367 297.952 140.587C298.345 145.637 299.702 152.944 302.57 153.585C305.438 154.226 317.76 151.857 318.335 144.774C320.434 143.117 328.409 133.351 325.601 128.518C320.608 119.924 299.652 119.946 298.345 126.609Z" fill="#F4A484"/>
<path d="M307.841 138.439C308.315 138.439 308.698 137.866 308.698 137.159C308.698 136.452 308.315 135.879 307.841 135.879C307.368 135.879 306.984 136.452 306.984 137.159C306.984 137.866 307.368 138.439 307.841 138.439Z" fill="#24292D"/>
<path d="M300.35 137.935C300.823 137.935 301.207 137.362 301.207 136.655C301.207 135.948 300.823 135.375 300.35 135.375C299.877 135.375 299.493 135.948 299.493 136.655C299.493 137.362 299.877 137.935 300.35 137.935Z" fill="#24292D"/>
<path d="M306.332 134.562C306.778 133.759 307.707 133.247 308.689 133.262C309.175 133.281 309.668 133.412 310.056 133.691C310.458 133.943 310.757 134.316 310.95 134.728C310.511 134.569 310.146 134.389 309.768 134.287C309.399 134.168 309.035 134.113 308.672 134.109C307.938 134.081 307.197 134.289 306.332 134.562Z" fill="#24292D"/>
<path d="M303.197 134.058C302.332 133.785 301.591 133.576 300.857 133.605C300.493 133.609 300.13 133.664 299.76 133.783C299.382 133.886 299.017 134.066 298.578 134.224C298.771 133.812 299.07 133.439 299.472 133.187C299.86 132.908 300.353 132.777 300.839 132.758C301.821 132.743 302.75 133.255 303.197 134.058Z" fill="#24292D"/>
<path d="M303.304 138.685C303.282 139.495 302.969 140.247 302.701 140.987L301.784 143.161C301.64 143.522 301.501 143.887 301.395 144.239C301.337 144.409 301.298 144.595 301.28 144.714C301.274 144.747 301.276 144.763 301.274 144.771C301.274 144.771 301.253 144.733 301.275 144.766C301.285 144.799 301.337 144.846 301.381 144.897C301.851 145.322 302.632 145.63 303.326 145.997L303.311 146.071C302.902 146.087 302.501 146.04 302.1 145.954C301.697 145.867 301.302 145.748 300.903 145.463C300.802 145.384 300.706 145.295 300.621 145.156C300.582 145.112 300.527 144.982 300.513 144.882C300.501 144.792 300.5 144.709 300.507 144.645C300.529 144.373 300.618 144.183 300.691 143.984C300.854 143.599 301.046 143.25 301.235 142.901L302.358 140.829C302.713 140.139 303.111 139.446 303.229 138.682L303.304 138.685Z" fill="#E08D68"/>
<path d="M300.3 147.755C300.3 147.755 302.557 146.922 304.855 148.071C304.855 148.071 300.906 148.645 300.547 148.251C300.188 147.855 300.3 147.755 300.3 147.755Z" fill="white"/>
<path d="M297.903 129.281C298.53 130.625 309.831 130.533 315.999 130.409C315.999 130.409 314.162 136.099 316.824 140.548C316.824 140.548 318.596 142.89 318.334 144.773C318.087 146.543 321 150.661 321.174 149.236C321.713 144.806 327.855 132.203 326.193 126.153C324.786 121.033 321.571 121.271 321.571 121.271C319.009 117.197 312.638 119.393 299.837 116.573C294.754 115.454 296.762 126.834 297.903 129.281Z" fill="#24292D"/>
<path d="M316.183 138.63C317.497 135.395 321.928 135.661 321.952 138.386C321.991 142.862 319.292 144.188 318.335 144.772C317.378 145.356 315.39 140.581 316.183 138.63Z" fill="#F4A484"/>
<path d="M282.924 203.144C284.857 203.821 285.409 203.979 286.193 204C288.117 204.05 289.386 203.905 289.386 203.905C289.386 203.905 317.983 213.932 320.698 213.774C322.71 213.647 327.091 212.356 328.978 209.15C330.781 206.085 334.782 193.812 336.261 188.364C339.043 178.121 325.352 176.499 321.765 186.465C319.395 193.05 318.757 199.894 318.48 199.471C317.76 198.327 293.988 195.912 293.504 195.049C292.552 193.351 289.138 192.583 288.167 192.541C287.102 192.495 286.641 192.302 286.204 192.206C284.891 191.918 283.754 193.195 285.026 193.764C286.001 194.2 287.771 194.92 287.771 194.92C287.771 194.92 281.652 192.738 280.476 192.295C279.3 191.852 277.952 193.578 279.564 194.497C281.176 195.415 281.499 195.553 281.499 195.553C281.499 195.553 280.386 194.798 279.31 195.066C278.589 195.246 279.01 197.274 279.807 197.511C279.899 197.538 280.228 197.634 280.228 197.634C280.228 197.634 278.678 199.2 280.855 199.987C281.032 200.051 281.225 200.118 281.225 200.118C281.225 200.118 279.946 201.209 280.95 201.876C281.954 202.541 282.924 203.144 282.924 203.144Z" fill="#F4A484"/>
<path d="M302.657 160.301C301.948 163.22 300.718 162.506 300.338 163.359C299.935 164.263 292.29 193.148 292.009 194.47C291.103 198.736 285.706 202.084 282.599 200.673C279.212 199.134 278.039 194.39 278.665 191.7C279.281 189.051 293.066 161.153 293.066 161.153C293.066 161.153 294.11 152.459 294.656 152.15C296.177 151.288 299.016 150.287 299.371 150.215C300.397 150.006 305.231 150.246 305.201 150.216C305.171 150.186 305.131 151.334 304.345 151.842C304.017 152.054 300.221 152.462 300.221 152.462C300.221 152.462 303.707 152.646 303.866 152.988C304.025 153.33 304.434 157.278 304.28 157.716C303.761 159.198 302.735 160.008 302.657 160.301Z" fill="#F4A484"/>
<path d="M297.069 153.127L298.738 152.732" stroke="#E08D68" stroke-width="0.5651" stroke-miterlimit="10" stroke-linecap="round" stroke-linejoin="round"/>
<path d="M297.396 154.629C297.396 154.629 302.314 154.693 302.462 154.816C302.61 154.939 302.955 157.119 303.318 157.451C303.681 157.783 303.866 157.747 303.866 157.747" stroke="#E08D68" stroke-width="0.5651" stroke-miterlimit="10" stroke-linecap="round" stroke-linejoin="round"/>
<path d="M296.625 156.564C296.625 156.564 300.643 157.007 300.888 157.118C301.133 157.229 301.577 159.483 302.352 159.52C303.128 159.557 303.318 158.67 303.318 158.67" stroke="#E08D68" stroke-width="0.5651" stroke-miterlimit="10" stroke-linecap="round" stroke-linejoin="round"/>
<path d="M296.863 158.543L300.135 159.041" stroke="#E08D68" stroke-width="0.5651" stroke-miterlimit="10" stroke-linecap="round" stroke-linejoin="round"/>
<path d="M299.028 160.075C298.252 160.149 298.622 161.516 299.028 161.59C299.434 161.664 300.801 161.738 301.097 161.59C301.393 161.442 301.94 160.653 301.95 160.042C301.955 159.757 301.505 158.543 301.505 158.543" stroke="#E08D68" stroke-width="0.5651" stroke-miterlimit="10" stroke-linecap="round" stroke-linejoin="round"/>
<path d="M300.882 162.762C300.882 162.762 299.079 163.814 296.355 163.324" stroke="#E08D68" stroke-width="0.5651" stroke-miterlimit="10" stroke-linecap="round" stroke-linejoin="round"/>
<path d="M299.971 163.888C299.971 163.888 299.172 164.403 297.396 163.754" stroke="#E08D68" stroke-width="0.5651" stroke-miterlimit="10" stroke-linecap="round" stroke-linejoin="round"/>
<path d="M299.877 150.16C299.877 150.16 304.974 150.217 305.202 150.216C305.43 150.216 304.993 151.68 304.346 151.842C303.699 152.004 300.222 152.462 300.222 152.462C300.222 152.462 303.797 152.705 303.867 152.988C303.937 153.271 304.141 154.816 304.141 154.816" stroke="#E08D68" stroke-width="0.5651" stroke-miterlimit="10" stroke-linecap="round" stroke-linejoin="round"/>
<path d="M339.313 164.487C344.569 170.217 333.027 201.504 333.027 201.504C333.027 201.504 324.042 200.889 317.496 198.233C317.496 198.233 322.529 170.987 324.488 167.154C326.97 162.295 335.214 160.019 339.313 164.487Z" fill="#1B84C1"/>
<path d="M292.161 193.85C291.384 197.105 288.567 201.753 283.633 200.922C279.547 200.234 278.746 195.048 278.746 195.048" stroke="#E08D68" stroke-width="0.5651" stroke-miterlimit="10" stroke-linecap="round" stroke-linejoin="round"/>
<path d="M69.0292 101.02C87.5748 93.1504 96.2295 71.7367 88.3599 53.191C80.4904 34.6454 59.0766 25.9907 40.531 33.8603C21.9854 41.7298 13.3307 63.1436 21.2003 81.6892C29.0698 100.235 50.4836 108.89 69.0292 101.02Z" fill="#DADEEA"/>
<path d="M42.3783 67.4421C42.3783 70.0121 40.2953 72.0951 37.7253 72.0951C35.1553 72.0951 33.0723 70.0121 33.0723 67.4421C33.0723 64.8721 35.1553 62.7891 37.7253 62.7891C40.2953 62.7891 42.3783 64.8721 42.3783 67.4421Z" fill="white"/>
<path d="M59.4408 67.4421C59.4408 70.0121 57.3578 72.0951 54.7878 72.0951C52.2178 72.0951 50.1348 70.0121 50.1348 67.4421C50.1348 64.8721 52.2178 62.7891 54.7878 62.7891C57.3578 62.7891 59.4408 64.8721 59.4408 67.4421Z" fill="white"/>
<path d="M76.5042 67.4421C76.5042 70.0121 74.4212 72.0951 71.8512 72.0951C69.2812 72.0951 67.1982 70.0121 67.1982 67.4421C67.1982 64.8721 69.2812 62.7891 71.8512 62.7891C74.4212 62.7891 76.5042 64.8721 76.5042 67.4421Z" fill="white"/>
<path d="M53.1904 101.215C53.1904 101.215 56.9374 110.415 71.8514 110.912C71.8514 110.912 65.4614 106.349 65.4114 98.7891L53.1904 101.215Z" fill="#DADEEA"/>
<path d="M368.535 131.635C388.16 127.078 400.376 107.474 395.818 87.848C391.261 68.2225 371.657 56.0073 352.031 60.5646C332.406 65.122 320.191 84.726 324.748 104.352C329.305 123.977 348.909 136.192 368.535 131.635Z" fill="#DADEEA"/>
<path d="M372.686 96.0905C372.686 98.6605 374.769 100.743 377.339 100.743C379.909 100.743 381.992 98.6605 381.992 96.0905C381.992 93.5205 379.909 91.4375 377.339 91.4375C374.769 91.4375 372.686 93.5205 372.686 96.0905Z" fill="white"/>
<path d="M355.623 96.0905C355.623 98.6605 357.706 100.743 360.276 100.743C362.846 100.743 364.929 98.6605 364.929 96.0905C364.929 93.5205 362.846 91.4375 360.276 91.4375C357.706 91.4375 355.623 93.5205 355.623 96.0905Z" fill="white"/>
<path d="M338.561 96.0905C338.561 98.6605 340.644 100.743 343.214 100.743C345.784 100.743 347.867 98.6605 347.867 96.0905C347.867 93.5205 345.784 91.4375 343.214 91.4375C340.644 91.4375 338.561 93.5205 338.561 96.0905Z" fill="white"/>
<path d="M361.874 129.862C361.874 129.862 358.127 139.062 343.213 139.559C343.213 139.559 349.603 134.996 349.653 127.436L361.874 129.862Z" fill="#DADEEA"/>
<path d="M150.862 396.495C150.862 396.495 151.421 382.549 138.263 372.145C138.263 372.145 156.644 374.182 158.139 396.494L150.862 396.495Z" fill="#48BE97"/>
<path d="M152.803 396.493C152.803 396.493 151.075 373.378 171.682 368.604C171.682 368.604 159.834 376.942 158.656 396.493H152.803Z" fill="#36A871"/>
<path d="M152.804 396.493C152.804 396.493 157.488 375.878 177.002 376.615C177.002 376.615 162.232 384.908 161.375 396.493H152.804Z" fill="#48BE97"/>
<path d="M251.815 396.495C251.815 396.495 249.195 387.778 260.84 383.048C260.84 383.048 247.673 380.512 246.602 396.495H251.815Z" fill="#48BE97"/>
<path d="M250.424 396.494C250.424 396.494 247.998 386.764 253.031 374.65C253.031 374.65 243.7 379.235 246.232 396.494H250.424Z" fill="#36A871"/>
<path d="M250.423 396.495C250.423 396.495 249.672 385.359 235.693 385.887C235.693 385.887 245.7 389.125 244.283 396.495H250.423Z" fill="#48BE97"/>
</svg>
