<svg width="40" height="40" viewBox="0 0 40 40" fill="none" xmlns="http://www.w3.org/2000/svg">
<g id="noun-onboard-2894340 1">
<g id="Group">
<g id="Group_2">
<g id="Group_3">
<path id="Vector" d="M30.3133 22.4587C30.2127 22.4587 30.1133 22.4272 30.0314 22.3672L22.2477 16.6805L19.6221 19.2587C18.8289 20.0466 17.5714 20.1096 16.6983 19.4042C16.2014 19.0023 15.9139 18.4157 15.9102 17.7951C15.9071 17.1999 16.1727 16.6369 16.6396 16.2514L19.8014 12.9551C19.8158 12.9399 19.8314 12.926 19.8471 12.9133C19.9802 12.7611 20.1296 12.6042 20.2883 12.4478L20.3302 12.4036C20.5589 12.1811 20.7852 11.9854 21.0146 11.809C21.9139 11.1157 23.4133 10.3084 25.3946 10.4005C25.5127 10.406 25.6252 10.4545 25.7077 10.5369L31.7952 16.5817C31.8739 16.6599 31.9208 16.7623 31.9277 16.8714C31.9527 17.2496 31.9533 17.6369 31.9308 18.023C31.8402 19.5133 31.4471 20.8848 30.7283 22.2157C30.6646 22.3339 30.5508 22.4193 30.4164 22.4484C30.3821 22.4551 30.3477 22.4587 30.3133 22.4587ZM22.2021 15.6236C22.3008 15.6236 22.3996 15.6539 22.4839 15.7151L30.1421 21.309C30.6433 20.2454 30.9227 19.1478 30.9939 17.9684C31.0114 17.6757 31.0133 17.3817 31.0008 17.0933L25.1689 11.3017C23.5421 11.2605 22.3433 11.9448 21.5971 12.5199C21.3952 12.6751 21.1964 12.8472 21.0058 13.0327L20.9664 13.0745C20.7933 13.2448 20.6421 13.4054 20.5108 13.5593C20.4858 13.5884 20.4577 13.6145 20.4271 13.6363L17.2864 16.9066C16.9877 17.1575 16.8458 17.4581 16.8477 17.7896C16.8502 18.1423 17.0146 18.4763 17.2989 18.706C17.7914 19.1048 18.5046 19.0684 18.9527 18.6217L21.8689 15.7581C21.9602 15.669 22.0808 15.6236 22.2021 15.6236Z" fill="#48BE97"/>
<path id="Vector_2" d="M33.7086 18.5909C32.9361 18.5909 32.2105 18.2927 31.6648 17.7515L24.468 10.606C23.3492 9.49513 23.3492 7.68907 24.468 6.57816C25.013 6.03695 25.7386 5.73877 26.5117 5.73877C27.2848 5.73877 28.0098 6.03695 28.5555 6.57816L35.7523 13.7236C36.8717 14.8339 36.8717 16.6406 35.7523 17.7515C35.2067 18.2927 34.4811 18.5909 33.7086 18.5909ZM26.5117 6.64847C25.9936 6.64847 25.5061 6.84907 25.1386 7.21453C24.373 7.97392 24.373 9.21089 25.1386 9.97089L32.3355 17.1163C33.0705 17.8466 34.3473 17.8466 35.0823 17.1163C35.8486 16.3563 35.8486 15.12 35.0823 14.36L27.8855 7.21453C27.5173 6.84907 27.0298 6.64847 26.5117 6.64847Z" fill="#48BE97"/>
<path id="Vector_3" d="M6.28906 18.3109C5.51656 18.3109 4.79094 18.0127 4.24531 17.4715C3.12656 16.3612 3.12656 14.5545 4.24531 13.4436L11.4422 6.29813C11.9872 5.75692 12.7128 5.45874 13.4859 5.45874C14.2591 5.45874 14.9841 5.75692 15.5297 6.29813C16.6484 7.40844 16.6484 9.2151 15.5297 10.326L8.33281 17.4715C7.78781 18.0127 7.06219 18.3109 6.28906 18.3109ZM13.4859 6.36844C12.9678 6.36844 12.4803 6.56904 12.1128 6.9345L4.91594 14.0793C4.15031 14.8393 4.15031 16.0763 4.91594 16.8357C5.65094 17.566 6.92781 17.566 7.66281 16.8357L14.8597 9.69026C15.6259 8.93026 15.6259 7.69389 14.8597 6.93389C14.4916 6.56904 14.0041 6.36844 13.4859 6.36844Z" fill="#48BE97"/>
<g id="Group_4">
<path id="Vector_4" d="M10.1129 25.7728C9.64914 25.7728 9.21414 25.594 8.88789 25.2703L8.62914 25.0134C7.96227 24.3509 7.96227 23.274 8.62852 22.6116L10.2441 21.0079C10.8966 20.3612 12.0391 20.36 12.6935 21.0079L12.9516 21.2643C13.6185 21.9273 13.6185 23.0043 12.9516 23.6667L11.3379 25.2703C11.0104 25.594 10.576 25.7728 10.1129 25.7728ZM11.4685 21.4152C11.2591 21.4152 11.0629 21.4964 10.9135 21.6443L9.29852 23.2473C8.98477 23.5594 8.98477 24.0673 9.29852 24.3782L9.55727 24.6352C9.85539 24.9303 10.3685 24.9316 10.666 24.6352L12.2798 23.0316C12.5941 22.72 12.5941 22.2122 12.2798 21.9L12.0223 21.6443C11.8741 21.4964 11.6773 21.4152 11.4685 21.4152Z" fill="#48BE97"/>
<path id="Vector_5" d="M12.1584 27.8042C11.6953 27.8042 11.2603 27.6255 10.9341 27.3018L10.6759 27.0455C10.0091 26.3824 10.0091 25.3055 10.6759 24.643L12.2897 23.0394H12.2903C12.9434 22.3915 14.0866 22.3921 14.7397 23.0394L14.9984 23.2964C15.6653 23.9588 15.6653 25.0358 14.9991 25.6982L13.3834 27.3018C13.0572 27.6255 12.6222 27.8042 12.1584 27.8042ZM12.9603 23.6752L11.3466 25.2788C11.0322 25.5903 11.0322 26.0982 11.3466 26.4103L11.6041 26.6661C11.9022 26.9624 12.4153 26.9612 12.7128 26.6661L14.3278 25.063C14.6416 24.7509 14.6416 24.243 14.3278 23.9321L14.0691 23.6752C13.7716 23.3794 13.2591 23.3794 12.9603 23.6752Z" fill="#48BE97"/>
<path id="Vector_6" d="M14.2679 29.7573C13.8048 29.7573 13.3698 29.5786 13.0435 29.2549L12.7848 28.9974C12.1185 28.3355 12.1185 27.2586 12.7854 26.5961L14.3991 24.9925C15.0523 24.344 16.1966 24.3452 16.8491 24.9925L17.1079 25.2495C17.7748 25.9119 17.7748 26.9889 17.1079 27.6513L15.4929 29.2549C15.1666 29.5786 14.7316 29.7573 14.2679 29.7573ZM15.0698 25.6283L13.456 27.2319C13.1416 27.5434 13.1416 28.0513 13.4554 28.3622L13.7141 28.6198C14.011 28.9143 14.5248 28.9149 14.8223 28.6192L16.4373 27.0155C16.751 26.704 16.751 26.1961 16.4373 25.8852L16.1785 25.6283C15.8816 25.3325 15.3685 25.3325 15.0698 25.6283Z" fill="#48BE97"/>
<path id="Vector_7" d="M16.3042 31.7806C15.8405 31.7806 15.4055 31.6018 15.0792 31.2781L14.8205 31.0218C14.1536 30.3587 14.1536 29.2818 14.8205 28.6193L16.4355 27.0157C17.088 26.3684 18.2311 26.3678 18.8848 27.0157L19.1436 27.2733C19.8098 27.9351 19.8098 29.0121 19.1436 29.6745L17.5286 31.2781C17.2017 31.6018 16.7673 31.7806 16.3042 31.7806ZM17.1055 27.6515L15.4905 29.2551C15.1767 29.5666 15.1767 30.0745 15.4911 30.3866L15.7492 30.6424C16.0467 30.9381 16.5598 30.9381 16.858 30.6424L18.4723 29.0393C18.7861 28.7272 18.7861 28.2193 18.4723 27.9084L18.2136 27.6509C17.9173 27.3557 17.4036 27.3563 17.1055 27.6515Z" fill="#48BE97"/>
<g id="Group_5">
<path id="Vector_8" d="M15.7461 28.8036C15.628 28.8036 15.5098 28.7606 15.4186 28.674C15.3248 28.5855 15.2773 28.4667 15.2773 28.3491C15.2773 28.2346 15.3217 28.12 15.4111 28.0315L16.4342 27.0158C16.6148 26.8364 16.9117 26.8333 17.0973 27.0085C17.1911 27.097 17.2386 27.2158 17.2386 27.3333C17.2386 27.4479 17.1942 27.5624 17.1048 27.6509L16.0817 28.6667C15.9898 28.7582 15.868 28.8036 15.7461 28.8036Z" fill="#48BE97"/>
<path id="Vector_9" d="M21.4941 33.3285C21.0316 33.3285 20.5747 33.2175 20.176 33.0024C19.8128 32.806 19.496 32.52 19.2572 32.1739L17.5491 30.6181C17.4578 30.5345 17.4047 30.4188 17.4016 30.2969C17.3991 30.1745 17.4466 30.0569 17.5353 29.9691L18.471 29.04C18.7847 28.7278 18.7847 28.22 18.471 27.9091L18.2122 27.6515C17.9153 27.3575 17.4016 27.3557 17.1041 27.6521C16.9228 27.8321 16.626 27.8345 16.441 27.6594C16.3472 27.5709 16.2997 27.4521 16.2997 27.3345C16.2997 27.22 16.3441 27.1054 16.4335 27.0169C16.7472 26.7054 16.7472 26.1975 16.4335 25.8866L16.1747 25.6297C15.876 25.3339 15.3628 25.3339 15.066 25.6297L14.9985 25.6969L14.9966 25.6988C14.816 25.8794 14.5191 25.8824 14.3335 25.7072C14.1478 25.5321 14.1441 25.2442 14.3247 25.0642L14.3272 25.0618C14.6391 24.7497 14.6385 24.2436 14.3253 23.9333L14.0666 23.6763C13.7685 23.3806 13.256 23.3806 12.9578 23.6763L11.9941 24.6321C11.901 24.7248 11.7722 24.7769 11.636 24.7685C11.5016 24.7618 11.3772 24.7006 11.2928 24.5988C11.1453 24.4194 11.1503 24.1527 11.316 23.9878L12.2785 23.0321C12.5922 22.7206 12.5922 22.2127 12.2778 21.9006L12.0203 21.6448C11.7228 21.3491 11.2097 21.3491 10.9116 21.6448L10.2197 22.3321C10.1178 22.4327 9.97471 22.4836 9.82659 22.4654C9.68159 22.4478 9.55284 22.3654 9.47909 22.243C8.42159 20.4763 8.00096 18.3769 8.29409 16.3321C8.30784 16.2363 8.35346 16.1466 8.42346 16.0769L14.0735 10.4672C14.1522 10.3885 14.2585 10.3406 14.3716 10.3315C14.536 10.3188 14.6766 10.3084 14.821 10.306L14.9491 10.3054C16.9828 10.3054 18.8522 11.1236 20.1622 12.5678C20.4316 12.2909 20.716 12.0369 21.011 11.8097C21.9116 11.1157 23.4103 10.3084 25.3916 10.4006C25.5097 10.406 25.6222 10.4545 25.7047 10.5369L31.7922 16.5818C31.871 16.66 31.9178 16.7624 31.9247 16.8715C31.9497 17.2497 31.9503 17.6369 31.9278 18.023C31.8422 19.4248 31.4897 20.7224 30.8491 21.9794C31.0247 22.2769 31.1397 22.5951 31.191 22.9272C31.3428 23.9303 30.951 25.2442 29.7303 25.7612C29.4953 25.8606 29.2466 25.9224 28.991 25.9442C29.151 26.8697 28.8897 27.7866 28.2803 28.28C27.7691 28.6933 27.0047 28.8127 26.2428 28.6351C26.2916 29.4945 25.991 30.2891 25.4153 30.6951C25.0528 30.9503 24.5641 31.0563 24.0428 31.0109C24.0391 31.4097 23.9403 31.7903 23.7497 32.1224C23.4466 32.6527 22.9191 33.0442 22.2653 33.2254C22.0122 33.2945 21.7522 33.3285 21.4941 33.3285ZM18.5397 30.2721L19.9403 31.5478C19.9685 31.5739 19.9935 31.603 20.0147 31.6351C20.1735 31.8775 20.3872 32.0757 20.6322 32.2078C21.0391 32.4278 21.5403 32.4788 22.0078 32.3497C22.4203 32.2357 22.7478 31.9975 22.9297 31.6794C23.1116 31.3624 23.1535 30.9581 23.0472 30.5424C23.006 30.3806 23.0591 30.2097 23.186 30.0975C23.3122 29.9854 23.4922 29.9503 23.6547 30.0036C24.1272 30.1612 24.601 30.143 24.8641 29.9594C25.236 29.6969 25.4647 28.8927 25.1853 28.0509C25.126 27.8721 25.186 27.6763 25.3366 27.5581C25.4878 27.4406 25.6978 27.4248 25.8653 27.5175C26.5928 27.9248 27.3435 27.8533 27.6797 27.5806C28.0641 27.2697 28.2641 26.4527 27.9328 25.623C27.871 25.4685 27.901 25.2933 28.011 25.166C28.1216 25.0394 28.2947 24.9806 28.4622 25.0133C28.7735 25.0739 29.0803 25.0436 29.3553 24.9272C30.0903 24.6163 30.3678 23.7527 30.2628 23.06C30.2203 22.78 30.1072 22.5133 29.9272 22.2666C29.826 22.1272 29.8128 21.9442 29.8947 21.7933C30.5503 20.5781 30.9085 19.3278 30.991 17.9691C31.0085 17.6763 31.0103 17.3824 30.9978 17.0939L25.166 11.3024C23.5391 11.2612 22.3403 11.9454 21.5941 12.5206C21.2072 12.8181 20.8416 13.1678 20.5078 13.56C20.416 13.6678 20.276 13.7242 20.1341 13.7248C19.991 13.7212 19.8566 13.6539 19.7703 13.5412C18.6353 12.0624 16.8778 11.2133 14.9485 11.2133L14.8353 11.2139C14.7628 11.2151 14.6916 11.2188 14.6197 11.2242L9.20221 16.6024C9.00346 18.1981 9.28284 19.8224 9.99659 21.2509L10.241 21.0085C10.8941 20.3606 12.0372 20.3618 12.6903 21.0085L12.9485 21.2648C13.3003 21.6145 13.4666 22.08 13.4472 22.5388C13.936 22.526 14.3953 22.7018 14.7366 23.04L14.9953 23.2969C15.3278 23.6272 15.4953 24.0612 15.496 24.4951C15.9853 24.4594 16.4885 24.64 16.8447 24.9933L17.1035 25.2503C17.4535 25.5975 17.6197 26.0588 17.6028 26.5145C18.0778 26.4939 18.5435 26.6794 18.8828 27.0163L19.1416 27.2739C19.8078 27.9357 19.8078 29.0127 19.1416 29.6751L18.5397 30.2721Z" fill="#48BE97"/>
</g>
</g>
</g>
<path id="Vector_10" d="M20 38.1817C9.31625 38.1817 0.625 29.7538 0.625 19.3938C0.625 9.03384 9.31625 0.605957 20 0.605957C30.6838 0.605957 39.375 9.03384 39.375 19.3938C39.375 29.7538 30.6838 38.1817 20 38.1817ZM20 1.81808C10.0063 1.81808 1.875 9.70293 1.875 19.3938C1.875 29.0847 10.0063 36.9696 20 36.9696C29.9937 36.9696 38.125 29.0847 38.125 19.3938C38.125 9.70293 29.9937 1.81808 20 1.81808Z" fill="#48BE97"/>
</g>
</g>
</g>
</svg>
