<svg width="40" height="40" viewBox="0 0 40 40" fill="none" xmlns="http://www.w3.org/2000/svg">
<g id="Group">
<path id="Vector" d="M29.9987 28.333V36.6663H26.6654V28.333C26.6654 20.9147 31.072 14.5247 37.4104 11.6397L38.7904 14.673C36.1682 15.8656 33.9449 17.7879 32.3859 20.2102C30.8268 22.6325 29.9981 25.4524 29.9987 28.333ZM13.332 28.333V36.6663H9.9987V28.333C9.99894 25.4527 9.17007 22.6331 7.61109 20.2112C6.05211 17.7892 3.82891 15.8672 1.20703 14.6747L2.58703 11.6397C5.79151 13.0972 8.50871 15.4463 10.4141 18.4064C12.3194 21.3666 13.3324 24.8126 13.332 28.333ZM19.9987 19.9997C17.7886 19.9997 15.6689 19.1217 14.1061 17.5589C12.5433 15.9961 11.6654 13.8765 11.6654 11.6663C11.6654 9.4562 12.5433 7.33659 14.1061 5.77378C15.6689 4.21098 17.7886 3.33301 19.9987 3.33301C22.2088 3.33301 24.3284 4.21098 25.8913 5.77378C27.4541 7.33659 28.332 9.4562 28.332 11.6663C28.332 13.8765 27.4541 15.9961 25.8913 17.5589C24.3284 19.1217 22.2088 19.9997 19.9987 19.9997ZM19.9987 16.6663C20.6553 16.6663 21.3055 16.537 21.9121 16.2857C22.5187 16.0345 23.0699 15.6662 23.5342 15.2019C23.9985 14.7376 24.3668 14.1864 24.6181 13.5798C24.8694 12.9731 24.9987 12.323 24.9987 11.6663C24.9987 11.0097 24.8694 10.3596 24.6181 9.75292C24.3668 9.1463 23.9985 8.5951 23.5342 8.13081C23.0699 7.66651 22.5187 7.29822 21.9121 7.04694C21.3055 6.79567 20.6553 6.66634 19.9987 6.66634C18.6726 6.66634 17.4008 7.19313 16.4632 8.13081C15.5255 9.06849 14.9987 10.3403 14.9987 11.6663C14.9987 12.9924 15.5255 14.2642 16.4632 15.2019C17.4008 16.1396 18.6726 16.6663 19.9987 16.6663Z" fill="#F1A3AD"/>
</g>
</svg>
