<svg width="64" height="64" viewBox="0 0 64 64" fill="none" xmlns="http://www.w3.org/2000/svg">
<g id="&#226;&#156;&#168; supportive">
<path id="Vector" fill-rule="evenodd" clip-rule="evenodd" d="M21.777 7.48371C21.0065 7.75309 20.603 8.09721 20.1462 8.87371L19.8164 9.43471L19.7689 20.3963C19.7245 30.6103 19.7364 31.4058 19.9424 32.0607C20.103 32.5713 20.2975 32.8785 20.6536 33.1832C21.0826 33.5503 21.7035 33.8383 21.8185 33.7233C21.84 33.702 21.739 33.2818 21.5941 32.7898C21.3584 31.9893 21.347 31.8223 21.4866 31.1987C21.7027 30.2332 22.2934 29.4243 23.1284 28.9507L23.8125 28.5627L30.4062 28.5272L37 28.4918V19.2388C37 12.8402 36.957 9.81496 36.8604 9.43158C36.6709 8.67883 35.9071 7.83396 35.1559 7.54596C34.6164 7.33921 34.0126 7.31559 28.5 7.28559C22.8747 7.25496 22.3899 7.26921 21.777 7.48371ZM24.3751 9.89059C23.55 10.2196 23.2692 10.9375 23.7389 11.5176L23.9776 11.8127L28.3062 11.8487L32.6349 11.8846L33.0195 11.4998C33.3419 11.1776 33.3917 11.0502 33.3272 10.714C33.2849 10.4932 33.1065 10.1861 32.9306 10.0315C32.6131 9.75209 32.5851 9.75021 28.6492 9.75809C26.3294 9.76284 24.558 9.81771 24.3751 9.89059ZM26.1819 16.0571L25.875 16.3638V19.4321C25.875 22.3336 25.8886 22.5138 26.125 22.7502C26.4842 23.1095 27.1795 23.0821 27.5681 22.6933L27.875 22.3866L27.8732 19.5371C27.8724 17.97 27.8371 16.5588 27.7949 16.4015C27.7114 16.0897 27.167 15.7502 26.7505 15.7502C26.6065 15.7502 26.3506 15.8883 26.1819 16.0571ZM29.3294 16.0093L29 16.2683V19.3843C29 22.3336 29.0134 22.5136 29.25 22.7502C29.5815 23.0817 30.2935 23.0817 30.625 22.7502C30.8611 22.5141 30.875 22.3336 30.875 19.5105C30.875 17.8661 30.84 16.4296 30.7974 16.3183C30.7134 16.0995 30.1221 15.7502 29.8356 15.7502C29.7382 15.7502 29.5105 15.8668 29.3294 16.0093ZM13.776 24.7141C13.3784 24.7902 12.6246 25.5752 12.627 25.9106C12.6289 26.1843 13.0595 28.3418 13.2032 28.7982C13.2586 28.9738 13.0951 28.9031 12.5594 28.5195C11.7541 27.9427 11.2624 27.8075 10.4269 27.9327C9.69211 28.043 9.00161 28.6525 8.62811 29.5206C8.13061 30.6771 8.27349 30.9217 11.1931 33.9115C15.413 38.2327 19.1951 42.0258 19.5 42.2425C19.6719 42.3646 20.2062 42.6272 20.6875 42.8261L21.5625 43.1877L29.1875 43.2502L36.8125 43.3127L38.25 43.9573C39.0406 44.312 40.2499 44.8583 40.9374 45.1716L42.1872 45.7412L42.7302 45.2145C43.029 44.9247 44.568 43.35 46.1504 41.7151C48.9077 38.8658 49.0242 38.7257 48.9545 38.3401C48.9145 38.1187 48.7979 37.3471 48.6952 36.6252C48.2327 33.37 46.465 31.1195 44 30.648C43.5686 30.5653 39.7584 30.5017 33.7715 30.4771L24.2305 30.4377L23.8652 30.846C23.5677 31.1785 23.5 31.3667 23.5 31.8615C23.5 33.0233 24.0265 34.0128 25.0061 34.6922L25.5404 35.0627L29.3437 35.1252L33.1471 35.1877L33.4485 35.5385C33.8549 36.0112 33.8316 36.4377 33.3747 36.8947L32.9994 37.27L29.3435 37.2248C25.3015 37.1748 25.1074 37.1411 23.8407 36.2696C23.3522 35.9336 23.1555 35.8752 22.51 35.8752C20.9721 35.8752 19.0921 34.704 18.3746 33.299C18.08 32.722 18.0602 32.5555 18.0212 30.3255L17.98 27.9632L17.1755 26.9505C16.733 26.3935 16.2067 25.735 16.0061 25.4871C15.4225 24.7661 14.7399 24.5296 13.776 24.7141ZM41.8499 24.7141C41.533 24.7625 40.75 25.4981 40.75 25.7475C40.75 25.81 40.443 26.1513 40.0679 26.5062C39.3957 27.1418 38.883 28.0847 39.0566 28.3656C39.111 28.4536 39.9146 28.5002 41.3795 28.5002C44.0049 28.5002 43.9007 28.5571 44.1352 26.9945C44.255 26.196 44.2456 25.9945 44.0697 25.5855C43.757 24.8581 42.9592 24.545 41.8499 24.7141ZM27.0794 25.3843C26.7306 25.6586 26.6542 26.0877 26.8794 26.5085C26.995 26.7245 27.152 26.7502 28.3555 26.7502C29.8167 26.7502 30.0565 26.6653 30.1926 26.1002C30.2556 25.8386 30.2024 25.6912 29.9551 25.444C29.6611 25.15 29.5499 25.1252 28.5225 25.1252C27.585 25.1252 27.3566 25.1662 27.0794 25.3843ZM51.5165 38.9723C50.9839 39.5262 46.2064 44.4196 43.7364 46.9413C41.9939 48.7202 41.7292 49.1287 41.9507 49.6966C42.1387 50.1783 45.924 53.9763 46.3136 54.0742C46.842 54.2067 47.3341 53.8737 48.7081 52.454C49.382 51.7575 51.5515 49.5392 53.5292 47.5245L57.125 43.8611V43.2908C57.125 42.7251 57.1105 42.7057 55.2812 40.8298C53.0202 38.5112 53.0067 38.5002 52.4344 38.5002C52.0614 38.5002 51.8817 38.5926 51.5165 38.9723Z" fill="#2A42E4"/>
</g>
</svg>
