<svg width="20" height="20" viewBox="0 0 20 20" fill="none" xmlns="http://www.w3.org/2000/svg">
<g id="Group">
<path id="Vector" d="M17.5003 17.5H2.50033C2.27931 17.5 2.06735 17.4122 1.91107 17.2559C1.75479 17.0996 1.66699 16.8877 1.66699 16.6667V10.4058C1.66698 10.2868 1.69248 10.1691 1.74179 10.0607C1.7911 9.95229 1.86306 9.85573 1.95283 9.7775L5.00033 7.12V3.33333C5.00033 3.11232 5.08812 2.90036 5.2444 2.74408C5.40068 2.5878 5.61265 2.5 5.83366 2.5H17.5003C17.7213 2.5 17.9333 2.5878 18.0896 2.74408C18.2459 2.90036 18.3337 3.11232 18.3337 3.33333V16.6667C18.3337 16.8877 18.2459 17.0996 18.0896 17.2559C17.9333 17.4122 17.7213 17.5 17.5003 17.5ZM7.50033 15.8333H10.0003V10.785L6.66699 7.87833L3.33366 10.785V15.8333H5.83366V12.5H7.50033V15.8333ZM11.667 15.8333H16.667V4.16667H6.66699V5.93917C6.86199 5.93917 7.05783 6.0075 7.21449 6.145L11.3812 9.7775C11.4709 9.85573 11.5429 9.95229 11.5922 10.0607C11.6415 10.1691 11.667 10.2868 11.667 10.4058V15.8333ZM13.3337 9.16667H15.0003V10.8333H13.3337V9.16667ZM13.3337 12.5H15.0003V14.1667H13.3337V12.5ZM13.3337 5.83333H15.0003V7.5H13.3337V5.83333ZM10.0003 5.83333H11.667V7.5H10.0003V5.83333Z" fill="#3B4B54"/>
</g>
</svg>
