<svg width="56" height="56" viewBox="0 0 56 56" fill="none" xmlns="http://www.w3.org/2000/svg">
<g id="chart-network">
<path id="Icon" d="M21 30.3333C21 35.488 25.1787 39.6667 30.3333 39.6667C35.488 39.6667 39.6667 35.488 39.6667 30.3333C39.6667 25.1787 35.488 21 30.3333 21C25.1787 21 21 25.1787 21 30.3333ZM21 30.3333H11.6667M11.6667 30.3333C11.6667 31.622 10.622 32.6667 9.33333 32.6667C8.04467 32.6667 7 31.622 7 30.3333C7 29.0447 8.04467 28 9.33333 28C10.622 28 11.6667 29.0447 11.6667 30.3333ZM44.3333 44.3333L37.3333 37.3333M44.3333 16.3333L37.3333 23.3333M22.1667 11.6667L25.6667 21M49 46.6667C49 47.9553 47.9553 49 46.6667 49C45.378 49 44.3333 47.9553 44.3333 46.6667C44.3333 45.378 45.378 44.3333 46.6667 44.3333C47.9553 44.3333 49 45.378 49 46.6667ZM49 14C49 12.7113 47.9553 11.6667 46.6667 11.6667C45.378 11.6667 44.3333 12.7113 44.3333 14C44.3333 15.2887 45.378 16.3333 46.6667 16.3333C47.9553 16.3333 49 15.2887 49 14ZM18.6667 9.33333C18.6667 8.04467 19.7113 7 21 7C22.2887 7 23.3333 8.04467 23.3333 9.33333C23.3333 10.622 22.2887 11.6667 21 11.6667C19.7113 11.6667 18.6667 10.622 18.6667 9.33333Z" stroke="#48BE97" stroke-width="2" stroke-linecap="round" stroke-linejoin="round"/>
</g>
</svg>
