<svg width="40" height="40" viewBox="0 0 40 40" fill="none" xmlns="http://www.w3.org/2000/svg">
<g id="Hiring Process icon">
<g id="Group">
<path id="Vector" d="M19.9267 2.99023C15.459 2.99023 11.1733 4.77447 8.01355 7.94906C5.00814 10.9686 3.2552 15.0116 3.0872 19.2632L1.17991 15.4745C1.12455 15.3645 1.03782 15.2734 0.930683 15.2127C0.823547 15.152 0.700819 15.1245 0.578023 15.1335C0.496171 15.139 0.416208 15.1606 0.342729 15.1971C0.269689 15.2338 0.204603 15.2846 0.15119 15.3465C0.0977766 15.4084 0.0570817 15.4802 0.0314297 15.5578C0.00577772 15.6355 -0.00432877 15.7174 0.00168753 15.7989C0.00770383 15.8805 0.029725 15.96 0.0664933 16.0331L2.63402 21.1333C2.67562 21.2161 2.73519 21.2887 2.80839 21.3455C2.88159 21.4024 2.96658 21.4422 3.05713 21.4621C3.14769 21.4819 3.24153 21.4813 3.33182 21.4602C3.4221 21.4392 3.50654 21.3982 3.57896 21.3404L8.02485 17.7778C8.15362 17.6745 8.23612 17.5244 8.25421 17.3603C8.2723 17.1963 8.2245 17.0318 8.12132 16.9029C8.0702 16.8391 8.00701 16.786 7.93537 16.7467C7.86372 16.7073 7.78503 16.6824 7.70377 16.6735C7.62251 16.6645 7.54028 16.6716 7.46178 16.6945C7.38328 16.7173 7.31005 16.7553 7.24626 16.8065L4.33638 19.138C4.53167 15.2608 6.15143 11.5834 8.89473 8.82741C11.822 5.88623 15.7891 4.23518 19.9256 4.23518C26.8201 4.23518 32.8945 8.77941 34.8766 15.4251C34.9238 15.5832 35.0319 15.7162 35.1771 15.7947C35.3223 15.8732 35.4928 15.8908 35.651 15.8436C35.8092 15.7965 35.9421 15.6884 36.0206 15.5432C36.0991 15.3979 36.1167 15.2275 36.0696 15.0693C33.9328 7.90435 27.3688 2.99023 19.9267 2.99023ZM18.142 8.82412C18.0603 8.82411 17.9793 8.84021 17.9038 8.87149C17.8282 8.90278 17.7596 8.94864 17.7018 9.00645C17.644 9.06427 17.5981 9.1329 17.5668 9.20844C17.5355 9.28398 17.5194 9.36494 17.5194 9.44671V10.862C16.711 11.0761 15.9345 11.3978 15.211 11.8178L14.2091 10.8168C14.0924 10.7003 13.9342 10.6348 13.7692 10.6348C13.6042 10.6348 13.446 10.7003 13.3293 10.8168L10.8107 13.3333C10.7529 13.3911 10.707 13.4598 10.6757 13.5353C10.6444 13.6109 10.6282 13.6919 10.6282 13.7736C10.6282 13.8554 10.6444 13.9364 10.6757 14.012C10.707 14.0875 10.7529 14.1562 10.8107 14.214L11.8119 15.2145C11.3917 15.9371 11.0703 16.7126 10.8559 17.5201H9.43873C9.35697 17.5201 9.276 17.5362 9.20047 17.5675C9.12493 17.5988 9.05629 17.6446 8.99848 17.7025C8.94066 17.7603 8.8948 17.8289 8.86352 17.9044C8.83223 17.98 8.81613 18.0609 8.81614 18.1427V21.7013C8.81613 21.7831 8.83223 21.864 8.86352 21.9396C8.8948 22.0151 8.94066 22.0837 8.99848 22.1415C9.05629 22.1994 9.12493 22.2452 9.20047 22.2765C9.276 22.3078 9.35697 22.3239 9.43873 22.3239H10.8559C11.07 23.1316 11.3917 23.9072 11.8119 24.6295L10.8107 25.63C10.7529 25.6878 10.707 25.7565 10.6757 25.832C10.6444 25.9076 10.6282 25.9886 10.6282 26.0704C10.6282 26.1521 10.6444 26.2331 10.6757 26.3087C10.707 26.3842 10.7529 26.4529 10.8107 26.5107L13.3293 29.0272C13.446 29.1437 13.6042 29.2092 13.7692 29.2092C13.9342 29.2092 14.0924 29.1437 14.2091 29.0272L15.2112 28.026C15.9347 28.4458 16.711 28.7669 17.5194 28.9808V30.3964C17.5195 30.5614 17.5852 30.7196 17.7019 30.8363C17.8187 30.953 17.977 31.0185 18.142 31.0185H21.7037C21.8687 31.0184 22.0269 30.9529 22.1436 30.8362C22.2603 30.7196 22.3259 30.5614 22.326 30.3964V28.9808C23.135 28.7667 23.9112 28.4458 24.6345 28.026L25.6364 29.0272C25.7531 29.1438 25.9114 29.2093 26.0764 29.2093C26.2414 29.2093 26.3996 29.1438 26.5164 29.0272L29.035 26.5107C29.0928 26.4529 29.1387 26.3842 29.17 26.3087C29.2013 26.2331 29.2175 26.1521 29.2175 26.0704C29.2175 25.9886 29.2013 25.9076 29.17 25.832C29.1387 25.7565 29.0928 25.6878 29.035 25.63L28.0338 24.6295C28.4538 23.9072 28.7754 23.1316 28.9898 22.3239H30.4058C30.5709 22.3238 30.7292 22.2582 30.8459 22.1415C30.9626 22.0247 31.0282 21.8664 31.0281 21.7013V18.1427C31.0282 17.9776 30.9626 17.8193 30.8459 17.7025C30.7292 17.5858 30.5709 17.5202 30.4058 17.5201H28.9938C28.7797 16.7116 28.4571 15.9352 28.0364 15.2119L29.035 14.214C29.0928 14.1562 29.1387 14.0875 29.17 14.012C29.2013 13.9364 29.2175 13.8554 29.2175 13.7736C29.2175 13.6919 29.2013 13.6109 29.17 13.5353C29.1387 13.4598 29.0928 13.3911 29.035 13.3333L26.5164 10.8168C26.3996 10.7002 26.2414 10.6347 26.0764 10.6347C25.9114 10.6347 25.7531 10.7002 25.6364 10.8168L24.6373 11.8149C23.9133 11.394 23.1359 11.0719 22.326 10.8571V9.44671C22.326 9.28162 22.2605 9.12329 22.1438 9.00654C22.0271 8.88978 21.8688 8.82417 21.7037 8.82412H18.142ZM18.7644 10.0693H21.0811V11.3479C21.0811 11.491 21.1304 11.6297 21.2207 11.7407C21.311 11.8517 21.4368 11.9282 21.5768 11.9573C22.5792 12.1667 23.5331 12.5611 24.3884 13.1227C24.508 13.2012 24.6511 13.2362 24.7934 13.2216C24.9358 13.207 25.0688 13.1439 25.17 13.0427L26.0764 12.1371L27.7143 13.7735L26.8086 14.6785C26.7074 14.7797 26.6441 14.9128 26.6295 15.0553C26.615 15.1978 26.65 15.3409 26.7286 15.4606C27.2903 16.3154 27.6856 17.2681 27.8936 18.2693C27.9227 18.4095 27.9992 18.5353 28.1102 18.6257C28.2213 18.716 28.36 18.7653 28.5032 18.7653H29.7837V21.0789H28.4992C28.3562 21.0789 28.2175 21.1282 28.1065 21.2185C27.9955 21.3087 27.919 21.4344 27.8898 21.5745C27.6827 22.5747 27.287 23.5269 26.726 24.3811C26.6474 24.5007 26.6125 24.6438 26.627 24.7862C26.6416 24.9286 26.7048 25.0617 26.806 25.1629L27.7143 26.0705L26.0764 27.7069L25.1674 26.7987C25.0662 26.6977 24.9334 26.6347 24.7912 26.6201C24.649 26.6055 24.5061 26.6403 24.3865 26.7187C23.5314 27.2787 22.5785 27.6728 21.5773 27.8804C21.4371 27.9094 21.3112 27.9859 21.2208 28.0969C21.1304 28.208 21.0811 28.3468 21.0811 28.49V29.774H18.7644V28.49C18.7644 28.3468 18.7151 28.2081 18.6247 28.097C18.5344 27.986 18.4085 27.9095 18.2684 27.8804C17.2672 27.6733 16.3143 27.2787 15.4592 26.7187C15.3396 26.6403 15.1967 26.6054 15.0544 26.62C14.9121 26.6346 14.7792 26.6977 14.678 26.7987L13.7693 27.7069L12.1314 26.0705L13.0394 25.1629C13.1406 25.0617 13.2039 24.9286 13.2184 24.7862C13.233 24.6438 13.198 24.5007 13.1194 24.3811C12.5585 23.5269 12.1637 22.5747 11.9554 21.5745C11.9263 21.4344 11.8497 21.3087 11.7387 21.2185C11.6278 21.1282 11.4891 21.0789 11.346 21.0789H10.0606V18.7653H11.346C11.4891 18.7653 11.6278 18.716 11.7388 18.6257C11.8498 18.5354 11.9263 18.4096 11.9554 18.2695C12.1625 17.2693 12.5585 16.3173 13.1194 15.4629C13.198 15.3433 13.233 15.2002 13.2184 15.0578C13.2039 14.9154 13.1406 14.7823 13.0394 14.6811L12.1312 13.7735L13.7693 12.1371L14.678 13.0453C14.7793 13.1464 14.9122 13.2095 15.0545 13.2241C15.1968 13.2387 15.3398 13.2038 15.4594 13.1253C16.3145 12.5648 17.2672 12.1702 18.2686 11.9622C18.4087 11.9331 18.5345 11.8566 18.6248 11.7456C18.7151 11.6346 18.7644 11.4959 18.7644 11.3528V10.0693ZM19.922 14.8474C17.1256 14.8474 14.8446 17.1262 14.8446 19.9213C14.8446 22.7166 17.1256 24.9952 19.922 24.9952C22.719 24.9952 24.9999 22.7166 24.9999 19.9213C24.9999 17.1262 22.719 14.8474 19.922 14.8474ZM19.922 16.0924C22.0467 16.0924 23.755 17.7994 23.755 19.9213C23.755 22.0432 22.0467 23.7505 19.922 23.7505C17.7976 23.7505 16.0896 22.0432 16.0896 19.9213C16.0896 17.7994 17.7976 16.0924 19.922 16.0924ZM36.6761 18.3662C36.5269 18.3608 36.3807 18.4093 36.2641 18.5027L31.8183 22.0653C31.7545 22.1164 31.7014 22.1796 31.662 22.2512C31.6226 22.3229 31.5977 22.4016 31.5888 22.4828C31.5798 22.5641 31.587 22.6463 31.6098 22.7248C31.6326 22.8033 31.6707 22.8766 31.7218 22.9404C31.7729 23.0042 31.8361 23.0573 31.9077 23.0966C31.9794 23.136 32.0581 23.1609 32.1393 23.1698C32.2206 23.1788 32.3028 23.1717 32.3813 23.1488C32.4598 23.126 32.5331 23.088 32.5969 23.0368L35.5067 20.7051C35.3114 24.5822 33.6917 28.2596 30.9484 31.0156C28.0211 33.9568 24.054 35.6079 19.9176 35.6079C13.023 35.6079 6.94861 31.0637 4.96649 24.418C4.91926 24.2599 4.81115 24.1269 4.66594 24.0485C4.52073 23.97 4.3503 23.9525 4.19214 23.9996C4.03401 24.0468 3.90108 24.1549 3.82259 24.3001C3.7441 24.4452 3.72646 24.6156 3.77355 24.7738C5.91049 31.9387 12.4754 36.8528 19.9176 36.8528C24.3856 36.8528 28.671 35.0686 31.8307 31.8938C34.8361 28.8745 36.5893 24.8314 36.7573 20.5796L38.6646 24.3686C38.7388 24.516 38.8686 24.628 39.0253 24.6798C39.182 24.7316 39.3529 24.719 39.5004 24.6448C39.6478 24.5706 39.7598 24.4409 39.8116 24.2841C39.8634 24.1274 39.8508 23.9565 39.7766 23.8091L37.2093 18.7086C37.1676 18.6258 37.108 18.5534 37.0347 18.4966C36.9614 18.4398 36.8764 18.4001 36.7858 18.3804C36.7497 18.3692 36.7127 18.3613 36.6752 18.3568L36.6761 18.3662Z" fill="#F1A3AD"/>
</g>
</g>
</svg>
