<svg width="56" height="56" viewBox="0 0 56 56" fill="none" xmlns="http://www.w3.org/2000/svg">
<g id="money-bill">
<path id="Icon" d="M42.4132 14C41.4444 14.8551 40.8333 16.1062 40.8333 17.5C40.8333 20.0773 42.9227 22.1667 45.5 22.1667C45.9028 22.1667 47.8333 22.1667 48.9999 21M14 42C15.8224 40.1776 15.8224 36.8224 14 35C12.1776 33.1776 8.82245 33.1776 7 35M14 14C15.8224 15.8224 15.8224 19.1776 14 21C12.1776 22.8224 8.82245 22.8224 7 21M42 42C40.1776 40.1776 40.1776 36.8224 42 35C43.8224 33.1776 47.1776 33.1776 49 35M14.4667 42H41.5333C44.1469 42 45.4537 42 46.452 41.4914C47.33 41.044 48.044 40.33 48.4914 39.452C49 38.4537 49 37.1469 49 34.5333V21.4667C49 18.8531 49 17.5463 48.4914 16.548C48.044 15.67 47.33 14.956 46.452 14.5086C45.4537 14 44.1469 14 41.5333 14H14.4667C11.8531 14 10.5463 14 9.54804 14.5086C8.66995 14.956 7.95605 15.67 7.50864 16.548C7 17.5463 7 18.8531 7 21.4667V34.5333C7 37.1469 7 38.4537 7.50864 39.452C7.95605 40.33 8.66995 41.044 9.54804 41.4914C10.5463 42 11.8531 42 14.4667 42ZM32.6667 28C32.6667 30.5773 30.5773 32.6667 28 32.6667C25.4227 32.6667 23.3333 30.5773 23.3333 28C23.3333 25.4227 25.4227 23.3333 28 23.3333C30.5773 23.3333 32.6667 25.4227 32.6667 28Z" stroke="#0C61E7" stroke-width="2" stroke-linecap="round" stroke-linejoin="round"/>
</g>
</svg>
