<svg width="40" height="40" viewBox="0 0 40 40" fill="none" xmlns="http://www.w3.org/2000/svg">
<g id="Group">
<path id="Vector" d="M29.7363 26.0987L30.0296 26.3937L30.3263 26.0987C30.6745 25.7504 31.0879 25.4742 31.5429 25.2858C31.9979 25.0973 32.4855 25.0003 32.978 25.0003C33.4704 25.0003 33.9581 25.0973 34.413 25.2858C34.868 25.4742 35.2814 25.7504 35.6296 26.0987C35.9779 26.4469 36.2541 26.8603 36.4425 27.3153C36.631 27.7702 36.728 28.2579 36.728 28.7503C36.728 29.2428 36.631 29.7304 36.4425 30.1854C36.2541 30.6404 35.9779 31.0538 35.6296 31.402L30.0296 37.0003L24.433 31.402C23.7297 30.6987 23.3346 29.7449 23.3346 28.7503C23.3346 27.7558 23.7297 26.8019 24.433 26.0987C25.1362 25.3954 26.0901 25.0003 27.0846 25.0003C28.0792 25.0003 29.033 25.3954 29.7363 26.0987ZM20.0013 23.3337V26.667C17.3491 26.667 14.8056 27.7206 12.9302 29.5959C11.0549 31.4713 10.0013 34.0148 10.0013 36.667H6.66797C6.66801 33.2029 8.0162 29.8749 10.4271 27.3875C12.838 24.9001 16.1223 23.4486 19.5846 23.3403L20.0013 23.3337ZM20.0013 1.66699C25.5263 1.66699 30.0013 6.14199 30.0013 11.667C30.0022 14.2545 28.9998 16.7416 27.2048 18.6053C25.4098 20.469 22.9621 21.5641 20.3763 21.6603L20.0013 21.667C14.4763 21.667 10.0013 17.192 10.0013 11.667C10.0004 9.07944 11.0028 6.59234 12.7978 4.72864C14.5928 2.86494 17.0405 1.76986 19.6263 1.67366L20.0013 1.66699ZM20.0013 5.00033C16.318 5.00033 13.3346 7.98366 13.3346 11.667C13.3346 15.3503 16.318 18.3337 20.0013 18.3337C23.6846 18.3337 26.668 15.3503 26.668 11.667C26.668 7.98366 23.6846 5.00033 20.0013 5.00033Z" fill="#48BE97"/>
</g>
</svg>
