<svg width="48" height="59" viewBox="0 0 48 59" fill="none" xmlns="http://www.w3.org/2000/svg">
<g id="noun-tracking-3105569 1">
<g id="Group">
<g id="Group_2">
<g id="Group_3">
<path id="Vector" d="M24.0005 15.6699C19.5365 15.6699 15.9365 19.2571 15.9365 23.5995C15.9365 27.9891 19.5845 31.5291 24.0005 31.5291C28.4165 31.5291 32.0645 27.9891 32.0645 23.5995C32.0645 19.2099 28.4645 15.6699 24.0005 15.6699ZM24.0005 27.5171C21.7925 27.5171 20.0165 25.7707 20.0165 23.5995C20.0165 21.4283 21.7925 19.6819 24.0005 19.6819C26.2085 19.6819 27.9845 21.4283 27.9845 23.5995C27.9845 25.7707 26.2085 27.5171 24.0005 27.5171Z" fill="#2A42E4"/>
<path id="Vector_2" d="M44.7362 21.5701H40.3202C39.3602 14.2541 33.5042 8.49569 26.0642 7.55169V3.20929C26.0642 2.07649 25.1522 1.17969 24.0002 1.17969C22.8482 1.17969 21.9362 2.07649 21.9362 3.20929V7.55169C14.4962 8.49569 8.6402 14.2541 7.6802 21.5701H3.2642C2.1122 21.5701 1.2002 22.4669 1.2002 23.5997C1.2002 24.7325 2.1122 25.6293 3.2642 25.6293H7.6802C8.6402 32.9453 14.4962 38.7037 21.9362 39.6477V43.9901C21.9362 45.1229 22.8482 46.0197 24.0002 46.0197C25.1522 46.0197 26.0642 45.1229 26.0642 43.9901V39.6477C33.5042 38.7037 39.3602 32.9453 40.3202 25.6293H44.7362C45.8882 25.6293 46.8002 24.7325 46.8002 23.5997C46.8002 22.4669 45.8882 21.5701 44.7362 21.5701ZM24.0002 35.7301C17.1842 35.7301 11.6642 30.3021 11.6642 23.5997C11.6642 16.8973 17.1842 11.4693 24.0002 11.4693C30.8162 11.4693 36.3362 16.8973 36.3362 23.5997C36.3362 30.3021 30.8162 35.7301 24.0002 35.7301Z" fill="#2A42E4"/>
</g>
</g>
</g>
</g>
</svg>
