<svg width="56" height="56" viewBox="0 0 56 56" fill="none" xmlns="http://www.w3.org/2000/svg">
<g id="Group">
<path id="Vector" d="M30.3304 48.9996H41.997V53.6663H13.997V48.9996H25.6637V46.5496C21.9642 46.1782 18.4069 44.9282 15.2882 42.9037C12.1695 40.8792 9.57968 38.1389 7.73438 34.911L11.7874 32.5963C13.2125 35.0866 15.1926 37.2148 17.5737 38.8156C19.9548 40.4165 22.6729 41.4469 25.5169 41.8268C28.3608 42.2067 31.2541 41.9259 33.9719 41.0062C36.6898 40.0865 39.159 38.5526 41.1879 36.5238C43.2167 34.4949 44.7505 32.0257 45.6702 29.3079C46.5899 26.59 46.8707 23.6968 46.4908 20.8528C46.1109 18.0089 45.0805 15.2908 43.4797 12.9096C41.8788 10.5285 39.7506 8.54847 37.2604 7.12331L39.575 3.07031C43.1474 5.11092 46.1165 8.06015 48.1811 11.6188C50.2456 15.1774 51.3321 19.2188 51.3304 23.333C51.3304 35.4313 42.1207 45.3806 30.3304 46.5496V48.9996ZM27.997 39.6663C25.8521 39.6663 23.7282 39.2438 21.7465 38.423C19.7649 37.6022 17.9643 36.3991 16.4476 34.8824C14.9309 33.3657 13.7278 31.5651 12.907 29.5835C12.0862 27.6018 11.6637 25.4779 11.6637 23.333C11.6637 21.1881 12.0862 19.0641 12.907 17.0825C13.7278 15.1008 14.9309 13.3003 16.4476 11.7836C17.9643 10.2669 19.7649 9.06377 21.7465 8.24295C23.7282 7.42212 25.8521 6.99965 27.997 6.99965C32.3289 6.99965 36.4834 8.72047 39.5464 11.7836C42.6095 14.8467 44.3304 19.0011 44.3304 23.333C44.3304 27.6648 42.6095 31.8193 39.5464 34.8824C36.4834 37.9455 32.3289 39.6663 27.997 39.6663ZM27.997 34.9996C31.0912 34.9996 34.0587 33.7705 36.2466 31.5826C38.4345 29.3946 39.6637 26.4272 39.6637 23.333C39.6637 20.2388 38.4345 17.2713 36.2466 15.0834C34.0587 12.8955 31.0912 11.6663 27.997 11.6663C24.9028 11.6663 21.9354 12.8955 19.7475 15.0834C17.5595 17.2713 16.3304 20.2388 16.3304 23.333C16.3304 26.4272 17.5595 29.3946 19.7475 31.5826C21.9354 33.7705 24.9028 34.9996 27.997 34.9996Z" fill="#EFB37D"/>
</g>
</svg>
