<svg width="40" height="40" viewBox="0 0 40 40" fill="none" xmlns="http://www.w3.org/2000/svg">
<g id="Group">
<path id="Vector" d="M19.9997 3.33398C29.1997 3.33398 36.6663 10.8007 36.6663 20.0007C36.6663 29.2007 29.1997 36.6673 19.9997 36.6673C10.7997 36.6673 3.33301 29.2007 3.33301 20.0007C3.33301 10.8007 10.7997 3.33398 19.9997 3.33398ZM19.9997 33.334C27.3663 33.334 33.333 27.3673 33.333 20.0007C33.333 12.634 27.3663 6.66732 19.9997 6.66732C12.633 6.66732 6.66634 12.634 6.66634 20.0007C6.66634 27.3673 12.633 33.334 19.9997 33.334ZM19.9997 18.334H26.6663V21.6673H19.9997V26.6673L13.333 20.0007L19.9997 13.334V18.334Z" fill="#1C00CB"/>
</g>
</svg>
