<svg width="38" height="37" viewBox="0 0 38 37" fill="none" xmlns="http://www.w3.org/2000/svg">
<path id="Vector" d="M26.875 31.6467H32.125V26.4702H37.375V5.76436H29.5V0.587891H19V5.76436H11.125V10.9408H5.875V16.1173H0.625V36.8232H26.875V31.6467ZM13.75 23.882V18.4726C14.1709 18.6233 14.6147 18.702 15.0625 18.7055H33.4375C33.8853 18.702 34.3291 18.6233 34.75 18.4726V23.882H13.75ZM21.625 3.17613H26.875V5.76436H21.625V3.17613ZM13.75 8.3526H34.75V14.9655C34.7143 15.2835 34.5604 15.5772 34.3181 15.7899C34.0757 16.0026 33.762 16.1192 33.4375 16.1173H25.5625V13.5291H22.9375V16.1173H15.0625C14.738 16.1192 14.4243 16.0026 14.182 15.7899C13.9396 15.5772 13.7857 15.2835 13.75 14.9655V8.3526ZM8.5 13.5291H11.125V26.4702H29.5V29.0585H8.5V13.5291ZM3.25 34.235V18.7055H5.875V31.6467H24.25V34.235H3.25Z" fill="#2A42E4"/>
</svg>
