<svg width="40" height="40" viewBox="0 0 40 40" fill="none" xmlns="http://www.w3.org/2000/svg">
<g clip-path="url(#clip0_40484_64787)">
<path d="M25.3625 25.8957L25.3737 25.8072C25.3737 25.4909 25.4662 25.2412 25.6525 25.0569C25.8387 24.8727 26.0413 24.7515 26.2613 24.6921C26.4813 24.6339 26.685 24.5345 26.87 24.3951C27.0562 24.2545 27.15 24.0654 27.15 23.8254C27.15 23.5866 27.0788 23.4012 26.9388 23.2678C26.7988 23.1357 26.5875 23.0703 26.3075 23.0703C26.0262 23.0703 25.8187 23.1115 25.6862 23.1963C25.5537 23.2812 25.4725 23.3672 25.4413 23.4557L25.4075 23.589C25.3387 23.7806 25.26 23.9248 25.1687 24.0242C25.0775 24.1236 24.96 24.1733 24.815 24.1733C24.6712 24.1733 24.4812 24.1296 24.2462 24.0412C23.7912 23.8715 23.5625 23.6618 23.5625 23.4121C23.5625 23.3018 23.5863 23.189 23.6313 23.0751C23.6763 22.9612 23.715 22.8654 23.745 22.7878C23.775 22.7102 23.8575 22.5769 23.99 22.3854C24.1225 22.1939 24.275 22.0266 24.445 21.8824C24.6162 21.7393 24.8575 21.6072 25.1687 21.4848C25.48 21.3636 25.825 21.303 26.205 21.303C27.0088 21.303 27.6662 21.5539 28.1737 22.0545C28.6825 22.5539 28.9375 23.1357 28.9375 23.7987C28.9375 24.1151 28.8787 24.4072 28.76 24.6763C28.6425 24.9442 28.5 25.1563 28.3337 25.3115C28 25.6206 27.6887 25.8266 27.4 25.9296L27.2175 25.9842C27.2175 26.109 27.2125 26.2048 27.2012 26.2715C27.1887 26.3381 27.155 26.4096 27.0988 26.4872C27.0413 26.5636 26.9462 26.6193 26.8137 26.6521C26.6812 26.686 26.5038 26.7018 26.2838 26.7018C26.0638 26.7018 25.8875 26.6836 25.755 26.6472C25.6225 26.6096 25.5288 26.5478 25.4763 26.4593C25.4225 26.3709 25.39 26.2921 25.3787 26.2218C25.3675 26.1515 25.3625 26.0436 25.3625 25.8957ZM25.3162 27.8666C25.3775 27.7527 25.485 27.6702 25.6413 27.6181C25.7963 27.5672 26.0412 27.5418 26.375 27.5418C26.7088 27.5418 26.95 27.6133 27.0988 27.7563C27.2463 27.9006 27.32 28.1781 27.32 28.5902C27.32 28.8848 27.2825 29.103 27.2062 29.2472C27.13 29.3902 27.015 29.486 26.8587 29.5345C26.7037 29.5818 26.4625 29.606 26.1363 29.606C25.81 29.606 25.5588 29.5284 25.385 29.3745C25.2563 29.2484 25.1912 29.0351 25.1912 28.7333V28.5575C25.1912 28.3878 25.1962 28.2593 25.2087 28.1709C25.22 28.0824 25.2562 27.9806 25.3162 27.8666Z" fill="#7DBBF1"/>
<path d="M12.8013 15.7127C12.8775 15.5697 12.9938 15.4715 13.1488 15.4206C13.305 15.3685 13.5475 15.343 13.8775 15.343C14.2075 15.343 14.4475 15.4121 14.595 15.5527C14.7425 15.6921 14.8175 15.9127 14.8175 16.2146V16.3915C14.8175 16.5685 14.8113 16.6994 14.8 16.783C14.7888 16.8679 14.7525 16.9697 14.6913 17.0873C14.57 17.3006 14.28 17.4073 13.8213 17.4073C13.3613 17.4073 13.0575 17.3358 12.91 17.1915C12.7625 17.0485 12.6875 16.7709 12.6875 16.3588C12.6875 16.0715 12.7263 15.8558 12.8013 15.7127ZM14.3275 14.4267C14.1838 14.463 13.99 14.4812 13.7463 14.4812C13.5038 14.4812 13.31 14.463 13.1663 14.4267C13.0225 14.3891 12.9213 14.3236 12.865 14.2279C12.8075 14.1321 12.7738 14.0473 12.7625 13.9733C12.75 13.9006 12.745 13.7855 12.745 13.6315V10.1309C12.745 9.97697 12.75 9.86061 12.7625 9.78425C12.7738 9.70667 12.8087 9.6194 12.87 9.52364C12.9312 9.4291 13.0338 9.36001 13.1775 9.32001C13.3213 9.28001 13.515 9.2594 13.7588 9.2594C14.0013 9.2594 14.195 9.28001 14.3388 9.32001C14.4825 9.36001 14.5838 9.43031 14.64 9.5297C14.6975 9.6291 14.7313 9.71758 14.7425 9.79516C14.755 9.87152 14.76 9.98788 14.76 10.143V13.6424C14.76 13.7976 14.755 13.9115 14.7425 13.9842C14.7313 14.0582 14.6963 14.1406 14.635 14.2327C14.5738 14.3249 14.4713 14.3891 14.3275 14.4267Z" fill="#7DBBF1"/>
<path fill-rule="evenodd" clip-rule="evenodd" d="M13.75 1.51514C7.02375 1.51514 1.5625 6.81089 1.5625 13.3333C1.5625 19.8557 7.02375 25.1515 13.75 25.1515C20.4762 25.1515 25.9375 19.8557 25.9375 13.3333C25.9375 6.81089 20.4762 1.51514 13.75 1.51514ZM13.75 3.33332C19.4412 3.33332 24.0625 7.81453 24.0625 13.3333C24.0625 18.8521 19.4412 23.3333 13.75 23.3333C8.05875 23.3333 3.4375 18.8521 3.4375 13.3333C3.4375 7.81453 8.05875 3.33332 13.75 3.33332Z" fill="#7DBBF1"/>
<path fill-rule="evenodd" clip-rule="evenodd" d="M24.8125 13.7176C24.3813 13.7673 24.0425 14.097 23.9913 14.5139C23.435 19.0909 19.6875 22.726 14.9688 23.2642C14.5375 23.3139 14.1975 23.6424 14.1463 24.0606C14.0913 24.5188 14.0625 24.983 14.0625 25.4545C14.0625 31.977 19.5237 37.2727 26.25 37.2727C32.9762 37.2727 38.4375 31.977 38.4375 25.4545C38.4375 18.9321 32.9762 13.6364 26.25 13.6364C25.7638 13.6364 25.285 13.6642 24.8125 13.7176ZM25.7387 15.4667C25.9087 15.4582 26.0787 15.4545 26.25 15.4545C31.9412 15.4545 36.5625 19.9357 36.5625 25.4545C36.5625 30.9733 31.9412 35.4545 26.25 35.4545C20.5588 35.4545 15.9375 30.9733 15.9375 25.4545C15.9375 25.2885 15.9413 25.1236 15.95 24.9588C20.9138 24.08 24.8325 20.28 25.7387 15.4667Z" fill="#7DBBF1"/>
</g>
<defs>
<clipPath id="clip0_40484_64787">
<rect width="40" height="40" fill="white"/>
</clipPath>
</defs>
</svg>
