<svg width="20" height="20" viewBox="0 0 20 20" fill="none" xmlns="http://www.w3.org/2000/svg">
<g id="Group">
<path id="Vector" d="M12.5 2.5C12.96 2.5 13.3333 2.87333 13.3333 3.33333V6.66667C13.3333 7.12667 12.96 7.5 12.5 7.5H10.8333V9.16667H14.1667C14.6267 9.16667 15 9.54 15 10V12.5H16.6667C17.1267 12.5 17.5 12.8733 17.5 13.3333V16.6667C17.5 17.1267 17.1267 17.5 16.6667 17.5H11.6667C11.2067 17.5 10.8333 17.1267 10.8333 16.6667V13.3333C10.8333 12.8733 11.2067 12.5 11.6667 12.5H13.3333V10.8333H6.66667V12.5H8.33333C8.79333 12.5 9.16667 12.8733 9.16667 13.3333V16.6667C9.16667 17.1267 8.79333 17.5 8.33333 17.5H3.33333C2.87333 17.5 2.5 17.1267 2.5 16.6667V13.3333C2.5 12.8733 2.87333 12.5 3.33333 12.5H5V10C5 9.54 5.37333 9.16667 5.83333 9.16667H9.16667V7.5H7.5C7.04 7.5 6.66667 7.12667 6.66667 6.66667V3.33333C6.66667 2.87333 7.04 2.5 7.5 2.5H12.5ZM7.5 14.1667H4.16667V15.8333H7.5V14.1667ZM15.8333 14.1667H12.5V15.8333H15.8333V14.1667ZM11.6667 4.16667H8.33333V5.83333H11.6667V4.16667Z" fill="#3B4B54"/>
</g>
</svg>
