<svg width="20" height="20" viewBox="0 0 20 20" fill="none" xmlns="http://www.w3.org/2000/svg">
<g id="Group">
<path id="Vector" d="M10 17.416L14.125 13.291C14.9408 12.4751 15.4963 11.4357 15.7213 10.3042C15.9463 9.17264 15.8308 7.99978 15.3892 6.93391C14.9477 5.86805 14.2 4.95704 13.2408 4.31609C12.2815 3.67514 11.1537 3.33304 10 3.33304C8.8463 3.33304 7.71851 3.67514 6.75924 4.31609C5.79997 4.95704 5.05229 5.86805 4.61076 6.93391C4.16923 7.99978 4.05368 9.17264 4.27871 10.3042C4.50374 11.4357 5.05926 12.4751 5.875 13.291L10 17.416ZM10 19.7726L4.69667 14.4693C3.64779 13.4204 2.93349 12.084 2.64411 10.6292C2.35473 9.1743 2.50326 7.66631 3.07092 6.29587C3.63858 4.92543 4.59987 3.75409 5.83324 2.92999C7.0666 2.10588 8.51665 1.66602 10 1.66602C11.4834 1.66602 12.9334 2.10588 14.1668 2.92999C15.4001 3.75409 16.3614 4.92543 16.9291 6.29587C17.4968 7.66631 17.6453 9.1743 17.3559 10.6292C17.0665 12.084 16.3522 13.4204 15.3033 14.4693L10 19.7726ZM10 10.8326C10.442 10.8326 10.866 10.657 11.1785 10.3445C11.4911 10.0319 11.6667 9.60798 11.6667 9.16595C11.6667 8.72392 11.4911 8.3 11.1785 7.98744C10.866 7.67488 10.442 7.49928 10 7.49928C9.55798 7.49928 9.13405 7.67488 8.82149 7.98744C8.50893 8.3 8.33334 8.72392 8.33334 9.16595C8.33334 9.60798 8.50893 10.0319 8.82149 10.3445C9.13405 10.657 9.55798 10.8326 10 10.8326ZM10 12.4993C9.11595 12.4993 8.2681 12.1481 7.64298 11.523C7.01786 10.8979 6.66667 10.05 6.66667 9.16595C6.66667 8.2819 7.01786 7.43405 7.64298 6.80893C8.2681 6.18381 9.11595 5.83262 10 5.83262C10.8841 5.83262 11.7319 6.18381 12.357 6.80893C12.9821 7.43405 13.3333 8.2819 13.3333 9.16595C13.3333 10.05 12.9821 10.8979 12.357 11.523C11.7319 12.1481 10.8841 12.4993 10 12.4993Z" fill="#3B4B54"/>
</g>
</svg>
