<svg width="40" height="40" viewBox="0 0 40 40" fill="none" xmlns="http://www.w3.org/2000/svg">
<g id="Contact person icon" clip-path="url(#clip0_40484_64710)">
<g id="Group">
<path id="Vector" fill-rule="evenodd" clip-rule="evenodd" d="M20.1241 0.952148L20.2469 0.953642L20.3698 0.955135L20.4926 0.958121L20.6141 0.962601L20.737 0.965587L20.8584 0.97156L20.9799 0.977533L21.1014 0.983506L21.2229 0.990972L21.3443 0.998438L21.4658 1.0074L21.5859 1.01785L21.706 1.0283L21.8275 1.03875L21.9476 1.0507L22.0677 1.06264L22.1864 1.07608L22.3065 1.09102L22.4252 1.10595L22.5439 1.12088L22.6626 1.1373L22.7813 1.15373L22.9 1.17165L23.0174 1.18957L23.1361 1.20898L23.2534 1.22988L23.3708 1.24929L23.4881 1.27169L23.604 1.2926L23.7214 1.31649L23.8373 1.33889L23.9533 1.36427L24.0692 1.38816L24.1852 1.41355L24.2998 1.44042L24.4157 1.4673L24.5303 1.49418L24.6449 1.52255L24.7581 1.55241L24.8726 1.58228L24.9858 1.61214L25.099 1.6435L25.2122 1.67486L25.3254 1.70771L25.4386 1.74056L25.5504 1.7749L25.6622 1.80924L25.774 1.84359L25.8858 1.87942L25.9963 1.91675L26.1067 1.95408L26.2171 1.99141L26.3276 2.03024L26.438 2.06906L26.5471 2.10938L26.6561 2.14969L26.7652 2.19001L26.8742 2.23182L26.9819 2.27363L27.0895 2.31693L27.1972 2.36023L27.3049 2.40503L27.4126 2.44982L27.5189 2.49611L27.6251 2.5424L27.7314 2.58869L27.8363 2.63647L27.9412 2.68426L28.0462 2.73204L28.1511 2.78131L28.256 2.83208L28.3595 2.88285L28.463 2.93362L28.5666 2.98439L28.6687 3.03665L28.7722 3.09041L28.8744 3.14416L28.9752 3.19792L29.0773 3.25316L29.1781 3.30841L29.2789 3.36366L29.3782 3.4204L29.479 3.47714L29.5784 3.53538L29.6778 3.59361L29.7758 3.65185L29.8752 3.71158L29.9732 3.7713L30.0698 3.83252L30.1678 3.89374L30.2645 3.95497L30.3611 4.01619L30.4563 4.08039L30.5516 4.14311L30.6468 4.20732L30.7421 4.27152L30.8359 4.33722L30.9312 4.40143L31.0237 4.46863L31.1175 4.53433L31.21 4.60152L31.3025 4.67021L31.3936 4.73889L31.4861 4.80758L31.5772 4.87627L31.6669 4.94645L31.758 5.01663L31.8478 5.0883L31.9361 5.15998L32.0258 5.23165L32.1142 5.30332L32.2025 5.37649L32.2895 5.45115L32.3765 5.52431L32.4634 5.59897L32.549 5.67513L32.6346 5.74979L32.7202 5.82594L32.8058 5.90359L32.89 5.97974L32.9728 6.05739L33.057 6.13503L33.1398 6.21417L33.2226 6.29331L33.3041 6.37245L33.3855 6.45308L33.467 6.53372L33.547 6.61435L33.6271 6.69647L33.7072 6.7786L33.7858 6.86073L33.8645 6.94434L33.9432 7.02647L34.0205 7.11158L34.0978 7.1952L34.1737 7.28031L34.251 7.36543L34.3256 7.45054L34.4015 7.53714L34.476 7.62375L34.5506 7.71185L34.6237 7.79845L34.6969 7.88655L34.7687 7.97465L34.8405 8.06424L34.9123 8.15383L34.984 8.24342L35.0544 8.33302L35.1235 8.4241L35.1939 8.51519L35.2629 8.60627L35.3305 8.69885L35.3981 8.78994L35.4658 8.88251L35.532 8.97658L35.5983 9.07066L35.6646 9.16323L35.7294 9.2588L35.7929 9.35287L35.8578 9.44843L35.9213 9.544L35.9834 9.63956L36.0456 9.73662L36.1077 9.83368L36.1684 9.93074L36.2291 10.0278L36.2885 10.1263L36.3479 10.2249L36.4072 10.3234L36.4652 10.422L36.5232 10.522L36.5798 10.6221L36.6364 10.7221L36.693 10.8222L36.7482 10.9237L36.8034 11.0252L36.8572 11.1268L36.9097 11.2283L36.9635 11.3314L37.016 11.4344L37.0671 11.5374L37.1181 11.6404L37.1692 11.745L37.2189 11.8495L37.2686 11.954L37.3169 12.0585L37.3652 12.1646L37.4121 12.2691L37.4591 12.3751L37.5046 12.4826L37.5502 12.5886L37.5957 12.6961L37.6399 12.8022L37.6827 12.9112L37.7269 13.0187L37.7683 13.1262L37.8097 13.2352L37.8511 13.3442L37.8911 13.4532L37.9312 13.5622L37.9712 13.6727L38.0085 13.7832L38.0471 13.8937L38.0844 14.0042L38.1203 14.1147L38.1562 14.2267L38.1921 14.3387L38.2266 14.4506L38.2597 14.5626L38.2928 14.6746L38.326 14.7881L38.3577 14.9001L38.3881 15.0136L38.4185 15.1286L38.4488 15.242L38.4778 15.3555L38.5054 15.4705L38.533 15.5855L38.5606 15.7004L38.5869 15.8154L38.6117 15.9304L38.6366 16.0469L38.6614 16.1633L38.6849 16.2798L38.707 16.3963L38.729 16.5127L38.7511 16.6292L38.7718 16.7472L38.7912 16.8651L38.8105 16.9831L38.8284 17.1011L38.8464 17.219L38.8629 17.337L38.8795 17.4564L38.8947 17.5759L38.9099 17.6939L38.9237 17.8133L38.9375 17.9343L38.9499 18.0537L38.9623 18.1732L38.9734 18.2941L38.983 18.4151L38.9927 18.5345L39.001 18.6555L39.0093 18.7779L39.0175 18.8989L39.0231 19.0198L39.03 19.1423L39.0341 19.2632L39.0383 19.3857L39.0424 19.5081L39.0452 19.6305L39.0465 19.7545L39.0479 19.8769V19.9994V20.1233L39.0465 20.2457L39.0452 20.3682L39.0424 20.4906L39.0383 20.6131L39.0341 20.7355L39.03 20.8579L39.0231 20.9789L39.0175 21.1013L39.0093 21.2223L39.001 21.3432L38.9927 21.4642L38.983 21.5851L38.9734 21.7061L38.9623 21.8255L38.9499 21.9465L38.9375 22.0659L38.9237 22.1854L38.9099 22.3049L38.8947 22.4243L38.8795 22.5438L38.8629 22.6617L38.8464 22.7812L38.8284 22.8991L38.8105 23.0171L38.7912 23.1351L38.7718 23.253L38.7511 23.3695L38.729 23.4875L38.707 23.6039L38.6849 23.7204L38.6614 23.8369L38.6366 23.9518L38.6117 24.0683L38.5869 24.1833L38.5606 24.2998L38.533 24.4147L38.5054 24.5297L38.4778 24.6432L38.4488 24.7582L38.4185 24.8717L38.3881 24.9851L38.3577 25.0986L38.326 25.2121L38.2928 25.3241L38.2597 25.4376L38.2266 25.5496L38.1921 25.6616L38.1562 25.7735L38.1203 25.884L38.0844 25.996L38.0471 26.1065L38.0085 26.217L37.9712 26.326L37.9312 26.4365L37.8911 26.5455L37.8511 26.656L37.8097 26.765L37.7683 26.8725L37.7269 26.9815L37.6827 27.0891L37.6399 27.1966L37.5957 27.3041L37.5502 27.4116L37.5046 27.5176L37.4591 27.6236L37.4121 27.7296L37.3652 27.8357L37.3169 27.9402L37.2686 28.0462L37.2189 28.1507L37.1692 28.2552L37.1181 28.3583L37.0671 28.4628L37.016 28.5658L36.9635 28.6689L36.9097 28.7704L36.8572 28.8734L36.8034 28.975L36.7482 29.0765L36.693 29.1765L36.6364 29.2781L36.5798 29.3781L36.5232 29.4782L36.4652 29.5767L36.4072 29.6768L36.3479 29.7753L36.2885 29.8739L36.2291 29.9709L36.1684 30.0695L36.1077 30.1665L36.0456 30.2636L35.9834 30.3592L35.9213 30.4562L35.8578 30.5518L35.7929 30.6458L35.7294 30.7414L35.6646 30.8355L35.5983 30.9296L35.532 31.0236L35.4658 31.1162L35.3981 31.2088L35.3305 31.3014L35.2629 31.3939L35.1939 31.485L35.1235 31.5761L35.0544 31.6657L34.984 31.7568L34.9123 31.8464L34.8405 31.936L34.7687 32.0241L34.6969 32.1122L34.6237 32.2003L34.5506 32.2884L34.476 32.375L34.4015 32.4616L34.3256 32.5482L34.251 32.6348L34.1737 32.7199L34.0978 32.8035L34.0205 32.8886L33.9432 32.9722L33.8645 33.0559L33.7858 33.1395L33.7072 33.2216L33.6271 33.3037L33.547 33.3844L33.467 33.4665L33.3855 33.5471L33.3041 33.6263L33.2226 33.7054L33.1398 33.7845L33.057 33.8637L32.9728 33.9413L32.89 34.019L32.8058 34.0966L32.7202 34.1728L32.6346 34.2489L32.549 34.3251L32.4634 34.3997L32.3765 34.4744L32.2895 34.5491L32.2025 34.6222L32.1142 34.6954L32.0258 34.7686L31.9361 34.8402L31.8478 34.9119L31.758 34.9821L31.6669 35.0538L31.5772 35.1224L31.4861 35.1926L31.3936 35.2613L31.3025 35.33L31.21 35.3972L31.1175 35.4644L31.0237 35.5316L30.9312 35.5973L30.8359 35.663L30.7421 35.7287L30.6468 35.7929L30.5516 35.8571L30.4563 35.9198L30.3611 35.9825L30.2645 36.0452L30.1678 36.1065L30.0698 36.1677L29.9732 36.2289L29.8752 36.2886L29.7758 36.3469L29.6778 36.4066L29.5784 36.4648L29.479 36.5216L29.3782 36.5798L29.2789 36.6366L29.1781 36.6918L29.0773 36.747L28.9752 36.8023L28.8744 36.856L28.7722 36.9098L28.6687 36.9621L28.5666 37.0143L28.463 37.0666L28.3595 37.1174L28.256 37.1681L28.1511 37.2174L28.0462 37.2667L27.9412 37.316L27.8363 37.3637L27.7314 37.4115L27.6251 37.4578L27.5189 37.5041L27.4126 37.5489L27.3049 37.5937L27.1972 37.6385L27.0895 37.6818L26.9819 37.7251L26.8742 37.7669L26.7652 37.8087L26.6561 37.8505L26.5471 37.8908L26.438 37.9311L26.3276 37.97L26.2171 38.0088L26.1067 38.0461L25.9963 38.0835L25.8858 38.1193L25.774 38.1551L25.6622 38.191L25.5504 38.2253L25.4386 38.2582L25.3254 38.2925L25.2122 38.3239L25.099 38.3567L24.9858 38.3866L24.8726 38.4179L24.7581 38.4478L24.6449 38.4762L24.5303 38.5045L24.4157 38.5329L24.2998 38.5598L24.1852 38.5852L24.0692 38.6106L23.9533 38.6359L23.8373 38.6598L23.7214 38.6837L23.604 38.7061L23.4881 38.7285L23.3708 38.7494L23.2534 38.7703L23.1361 38.7897L23.0174 38.8092L22.9 38.8271L22.7813 38.845L22.6626 38.8629L22.5439 38.8793L22.4252 38.8943L22.3065 38.9092L22.1864 38.9226L22.0677 38.9361L21.9476 38.9495L21.8275 38.9615L21.706 38.9719L21.5859 38.9824L21.4658 38.9913L21.3443 39.0003L21.2229 39.0092L21.1014 39.0167L20.9799 39.0227L20.8584 39.0286L20.737 39.0331L20.6141 39.0376L20.4926 39.0406L20.3698 39.0436L20.2469 39.0466H20.1241L20.0012 39.0481L19.877 39.0466H19.7541L19.6326 39.0436L19.5098 39.0406L19.3869 39.0376L19.2655 39.0331L19.1426 39.0286L19.0211 39.0227L18.8997 39.0167L18.7782 39.0092L18.6567 39.0003L18.5366 38.9913L18.4151 38.9824L18.295 38.9719L18.1749 38.9615L18.0549 38.9495L17.9348 38.9361L17.8147 38.9226L17.6959 38.9092L17.5759 38.8943L17.4571 38.8793L17.3384 38.8629L17.2197 38.845L17.101 38.8271L16.9837 38.8092L16.8663 38.7897L16.7476 38.7703L16.6303 38.7494L16.5143 38.7285L16.397 38.7061L16.2797 38.6837L16.1637 38.6598L16.0478 38.6359L15.9318 38.6106L15.8172 38.5852L15.7013 38.5598L15.5867 38.5329L15.4721 38.5045L15.3576 38.4762L15.243 38.4478L15.1284 38.4179L15.0152 38.3866L14.902 38.3567L14.7888 38.3239L14.6756 38.2925L14.5638 38.2582L14.4506 38.2253L14.3388 38.191L14.227 38.1551L14.1166 38.1193L14.0048 38.0835L13.8943 38.0461L13.7839 38.0088L13.6735 37.97L13.5644 37.9311L13.454 37.8908L13.3449 37.8505L13.2359 37.8087L13.1282 37.7669L13.0192 37.7251L12.9115 37.6818L12.8038 37.6385L12.6962 37.5937L12.5899 37.5489L12.4836 37.5041L12.3759 37.4578L12.271 37.4115L12.1647 37.3637L12.0598 37.316L11.9549 37.2667L11.85 37.2174L11.7464 37.1681L11.6415 37.1174L11.538 37.0666L11.4359 37.0143L11.3323 36.9621L11.2302 36.9098L11.128 36.856L11.0259 36.8023L10.9251 36.747L10.823 36.6918L10.7236 36.6366L10.6228 36.5798L10.5234 36.5216L10.4226 36.4648L10.3246 36.4066L10.2252 36.3469L10.1272 36.2886L10.0292 36.2289L9.93122 36.1677L9.83459 36.1065L9.73797 36.0452L9.64134 35.9825L9.54471 35.9198L9.44946 35.8571L9.35422 35.7929L9.25897 35.7287L9.1651 35.663L9.07123 35.5973L8.97737 35.5316L8.88488 35.4644L8.79101 35.3972L8.69853 35.33L8.60742 35.2613L8.51632 35.1926L8.42521 35.1224L8.3341 35.0538L8.24438 34.9821L8.15465 34.9119L8.06493 34.8402L7.97658 34.7686L7.88824 34.6954L7.79989 34.6222L7.71154 34.5491L7.62458 34.4744L7.53899 34.3997L7.45203 34.3251L7.36645 34.2489L7.28086 34.1728L7.19666 34.0966L7.11245 34.019L7.02825 33.9413L6.94404 33.8637L6.86122 33.7845L6.77978 33.7054L6.69695 33.6263L6.61551 33.5471L6.53407 33.4665L6.454 33.3844L6.37394 33.3037L6.29388 33.2216L6.2152 33.1395L6.13651 33.0559L6.05921 32.9722L5.98053 32.8886L5.90323 32.8035L5.8273 32.7199L5.75138 32.6348L5.67546 32.5482L5.60092 32.4616L5.52638 32.375L5.45184 32.2884L5.37867 32.2003L5.30551 32.1122L5.23235 32.0241L5.16057 31.936L5.08879 31.8464L5.01839 31.7568L4.94799 31.6657L4.87759 31.5761L4.80857 31.485L4.73955 31.3939L4.67053 31.3014L4.60289 31.2088L4.53663 31.1162L4.46899 31.0236L4.40273 30.9296L4.33786 30.8355L4.27298 30.7414L4.2081 30.6458L4.1446 30.5518L4.0811 30.4562L4.0176 30.3592L3.95549 30.2636L3.89337 30.1665L3.83263 30.0695L3.77189 29.9709L3.71254 29.8739L3.65318 29.7753L3.59382 29.6768L3.53585 29.5767L3.47787 29.4782L3.42127 29.3781L3.36468 29.2781L3.30946 29.1765L3.25287 29.0765L3.19903 28.975L3.14519 28.8734L3.09136 28.7704L3.0389 28.6689L2.98645 28.5658L2.93399 28.4628L2.88292 28.3583L2.83322 28.2552L2.78215 28.1507L2.73384 28.0462L2.68552 27.9402L2.63721 27.8357L2.58889 27.7296L2.54196 27.6236L2.49641 27.5176L2.45085 27.4116L2.40668 27.3041L2.36251 27.1966L2.31834 27.0891L2.27554 26.9815L2.23275 26.8725L2.19134 26.765L2.14993 26.656L2.1099 26.5455L2.06987 26.4365L2.03121 26.326L1.99256 26.217L1.95529 26.1065L1.91802 25.996L1.88075 25.884L1.84486 25.7735L1.81035 25.6616L1.77584 25.5496L1.74133 25.4376L1.7082 25.3241L1.67645 25.2121L1.6447 25.0986L1.61295 24.9851L1.58259 24.8717L1.5536 24.7582L1.52461 24.6432L1.49562 24.5297L1.46801 24.4147L1.44179 24.2998L1.41556 24.1833L1.38933 24.0683L1.36448 23.9518L1.34102 23.8369L1.31755 23.7204L1.29408 23.6039L1.272 23.4875L1.25129 23.3695L1.23058 23.253L1.20988 23.1351L1.19055 23.0171L1.17261 22.8991L1.15466 22.7812L1.1381 22.6617L1.12153 22.5438L1.10635 22.4243L1.09116 22.3049L1.07736 22.1854L1.06356 22.0659L1.05113 21.9465L1.04009 21.8255L1.02905 21.7061L1.018 21.5851L1.00834 21.4642L1.00006 21.3432L0.991776 21.2223L0.984874 21.1013L0.977972 20.9789L0.972451 20.8579L0.966929 20.7355L0.962788 20.6131L0.960027 20.4906L0.957266 20.3682L0.954505 20.2457L0.953125 20.1233V19.9994V19.8769L0.954505 19.7545L0.957266 19.6305L0.960027 19.5081L0.962788 19.3857L0.966929 19.2632L0.972451 19.1423L0.977972 19.0198L0.984874 18.8989L0.991776 18.7779L1.00006 18.6555L1.00834 18.5345L1.018 18.4151L1.02905 18.2941L1.04009 18.1732L1.05113 18.0537L1.06356 17.9343L1.07736 17.8133L1.09116 17.6939L1.10635 17.5759L1.12153 17.4564L1.1381 17.337L1.15466 17.219L1.17261 17.1011L1.19055 16.9831L1.20988 16.8651L1.23058 16.7472L1.25129 16.6292L1.272 16.5127L1.29408 16.3963L1.31755 16.2798L1.34102 16.1633L1.36448 16.0469L1.38933 15.9304L1.41556 15.8154L1.44179 15.7004L1.46801 15.5855L1.49562 15.4705L1.52461 15.3555L1.5536 15.242L1.58259 15.1286L1.61295 15.0136L1.6447 14.9001L1.67645 14.7881L1.7082 14.6746L1.74133 14.5626L1.77584 14.4506L1.81035 14.3387L1.84486 14.2267L1.88075 14.1147L1.91802 14.0042L1.95529 13.8937L1.99256 13.7832L2.03121 13.6727L2.06987 13.5622L2.1099 13.4532L2.14993 13.3442L2.19134 13.2352L2.23275 13.1262L2.27554 13.0187L2.31834 12.9112L2.36251 12.8022L2.40668 12.6961L2.45085 12.5886L2.49641 12.4826L2.54196 12.3751L2.58889 12.2691L2.63721 12.1646L2.68552 12.0585L2.73384 11.954L2.78215 11.8495L2.83322 11.745L2.88292 11.6404L2.93399 11.5374L2.98645 11.4344L3.0389 11.3314L3.09136 11.2283L3.14519 11.1268L3.19903 11.0252L3.25287 10.9237L3.30946 10.8222L3.36468 10.7221L3.42127 10.6221L3.47787 10.522L3.53585 10.422L3.59382 10.3234L3.65318 10.2249L3.71254 10.1263L3.77189 10.0278L3.83263 9.93074L3.89337 9.83368L3.95549 9.73662L4.0176 9.63956L4.0811 9.544L4.1446 9.44843L4.2081 9.35287L4.27298 9.2588L4.33786 9.16323L4.40273 9.07066L4.46899 8.97658L4.53663 8.88251L4.60289 8.78994L4.67053 8.69885L4.73955 8.60627L4.80857 8.51519L4.87759 8.4241L4.94799 8.33302L5.01839 8.24342L5.08879 8.15383L5.16057 8.06424L5.23235 7.97465L5.30551 7.88655L5.37867 7.79845L5.45184 7.71185L5.52638 7.62375L5.60092 7.53714L5.67546 7.45054L5.75138 7.36543L5.8273 7.28031L5.90323 7.1952L5.98053 7.11158L6.05921 7.02647L6.13651 6.94434L6.2152 6.86073L6.29388 6.7786L6.37394 6.69647L6.454 6.61435L6.53407 6.53372L6.61551 6.45308L6.69695 6.37245L6.77978 6.29331L6.86122 6.21417L6.94404 6.13503L7.02825 6.05739L7.11245 5.97974L7.19666 5.90359L7.28086 5.82594L7.36645 5.74979L7.45203 5.67513L7.53899 5.59897L7.62458 5.52431L7.71154 5.45115L7.79989 5.37649L7.88824 5.30332L7.97658 5.23165L8.06493 5.15998L8.15465 5.0883L8.24438 5.01663L8.3341 4.94645L8.42521 4.87627L8.51632 4.80758L8.60742 4.73889L8.69853 4.67021L8.79101 4.60152L8.88488 4.53433L8.97737 4.46863L9.07123 4.40143L9.1651 4.33722L9.25897 4.27152L9.35422 4.20732L9.44946 4.14311L9.54471 4.08039L9.64134 4.01619L9.73797 3.95497L9.83459 3.89374L9.93122 3.83252L10.0292 3.7713L10.1272 3.71158L10.2252 3.65185L10.3246 3.59361L10.4226 3.53538L10.5234 3.47714L10.6228 3.4204L10.7236 3.36366L10.823 3.30841L10.9251 3.25316L11.0259 3.19792L11.128 3.14416L11.2302 3.09041L11.3323 3.03665L11.4359 2.98439L11.538 2.93362L11.6415 2.88285L11.7464 2.83208L11.85 2.78131L11.9549 2.73204L12.0598 2.68426L12.1647 2.63647L12.271 2.58869L12.3759 2.5424L12.4836 2.49611L12.5899 2.44982L12.6962 2.40503L12.8038 2.36023L12.9115 2.31693L13.0192 2.27363L13.1282 2.23182L13.2359 2.19001L13.3449 2.14969L13.454 2.10938L13.5644 2.06906L13.6735 2.03024L13.7839 1.99141L13.8943 1.95408L14.0048 1.91675L14.1166 1.87942L14.227 1.84359L14.3388 1.80924L14.4506 1.7749L14.5638 1.74056L14.6756 1.70771L14.7888 1.67486L14.902 1.6435L15.0152 1.61214L15.1284 1.58228L15.243 1.55241L15.3576 1.52255L15.4721 1.49418L15.5867 1.4673L15.7013 1.44042L15.8172 1.41355L15.9318 1.38816L16.0478 1.36427L16.1637 1.33889L16.2797 1.31649L16.397 1.2926L16.5143 1.27169L16.6303 1.24929L16.7476 1.22988L16.8663 1.20898L16.9837 1.18957L17.101 1.17165L17.2197 1.15373L17.3384 1.1373L17.4571 1.12088L17.5759 1.10595L17.6959 1.09102L17.8147 1.07608L17.9348 1.06264L18.0549 1.0507L18.1749 1.03875L18.295 1.0283L18.4151 1.01785L18.5366 1.0074L18.6567 0.998438L18.7782 0.990972L18.8997 0.983506L19.0211 0.977533L19.1426 0.97156L19.2655 0.965587L19.3869 0.962601L19.5098 0.958121L19.6326 0.955135L19.7541 0.953642L19.877 0.952148H20.0012H20.1241ZM19.8866 2.28557L19.7721 2.28707L19.6575 2.28856L19.5429 2.29155L19.4297 2.29453L19.3152 2.29901L19.202 2.30349L19.0888 2.30797L18.9756 2.31394L18.8624 2.32141L18.7506 2.32888L18.6374 2.33783L18.5256 2.34679L18.4124 2.35575L18.3006 2.36621L18.1888 2.37666L18.0783 2.3886L17.9665 2.40055L17.8561 2.41399L17.7443 2.42743L17.6338 2.44236L17.5234 2.45729L17.413 2.47372L17.3039 2.49014L17.1935 2.50657L17.0844 2.52448L16.974 2.5439L16.865 2.56181L16.7573 2.58272L16.6482 2.60213L16.5392 2.62453L16.4315 2.64543L16.3238 2.66783L16.2162 2.69172L16.1085 2.71561L16.0008 2.7395L15.8945 2.76489L15.7882 2.79027L15.682 2.81715L15.5757 2.84403L15.4694 2.87091L15.3645 2.89928L15.2582 2.92765L15.1533 2.95751L15.0484 2.98737L14.9434 3.01873L14.8399 3.05009L14.735 3.08145L14.6315 3.1143L14.5279 3.14864L14.4244 3.18149L14.3223 3.21583L14.2187 3.25167L14.1166 3.28751L14.0144 3.32334L13.9137 3.36067L13.8115 3.398L13.7107 3.43683L13.61 3.47565L13.5092 3.51447L13.4084 3.55479L13.3091 3.59511L13.2083 3.63542L13.1089 3.67723L13.0095 3.72053L12.9115 3.76384L12.8121 3.80714L12.7141 3.85044L12.6161 3.89524L12.5195 3.94003L12.4215 3.98632L12.3248 4.03261L12.2282 4.0789L12.1316 4.12668L12.0363 4.17447L11.9411 4.22374L11.8458 4.27302L11.7506 4.32229L11.6553 4.37306L11.5615 4.42383L11.4676 4.47609L11.3737 4.52686L11.2812 4.58062L11.1874 4.63288L11.0949 4.68663L11.0024 4.74039L10.9113 4.79563L10.8202 4.85088L10.7291 4.90613L10.638 4.96287L10.5469 5.01961L10.4572 5.07636L10.3674 5.13459L10.2777 5.19283L10.1894 5.25255L10.101 5.31228L10.0127 5.37201L9.92432 5.43174L9.83735 5.49296L9.75039 5.55418L9.66342 5.61689L9.57784 5.67961L9.49088 5.74232L9.40529 5.80653L9.32109 5.87074L9.2355 5.93494L9.1513 5.99915L9.06847 6.06485L8.98427 6.13055L8.90145 6.19775L8.81862 6.26494L8.7358 6.33213L8.65436 6.40082L8.57291 6.46801L8.49147 6.5382L8.41141 6.60688L8.33134 6.67706L8.25128 6.74724L8.1726 6.81892L8.09253 6.8891L8.01523 6.96077L7.93655 7.03394L7.85925 7.10561L7.78194 7.17878L7.70464 7.25344L7.62872 7.3266L7.5528 7.40126L7.47688 7.47592L7.40234 7.55208L7.32779 7.62823L7.25463 7.70438L7.18009 7.78053L7.10693 7.85818L7.03515 7.93583L6.96199 8.01347L6.89021 8.09261L6.81981 8.17175L6.74803 8.25089L6.67763 8.33003L6.60861 8.41066L6.53821 8.4913L6.46919 8.57193L6.40155 8.65405L6.33391 8.73469L6.26627 8.81831L6.19863 8.90043L6.13237 8.98405L6.06611 9.06767L6.00123 9.15129L5.93497 9.23491L5.87148 9.32002L5.8066 9.40513L5.7431 9.49024L5.68098 9.57685L5.61748 9.66196L5.55537 9.74857L5.49463 9.83667L5.43389 9.92327L5.37315 10.0114L5.31242 10.0995L5.25306 10.1891L5.1937 10.2772L5.13573 10.3667L5.07775 10.4563L5.02115 10.5459L4.96318 10.637L4.90796 10.7281L4.85136 10.8192L4.79615 10.9103L4.74231 11.0014L4.6871 11.0939L4.63464 11.1865L4.58081 11.2791L4.52835 11.3732L4.4759 11.4657L4.42482 11.5598L4.37375 11.6554L4.32405 11.7494L4.27436 11.8435L4.22466 11.9391L4.17635 12.0346L4.12804 12.1317L4.0811 12.2273L4.03417 12.3243L3.98724 12.4214L3.94168 12.5184L3.89613 12.6155L3.85196 12.7141L3.80778 12.8111L3.76361 12.9097L3.72082 13.0097L3.67941 13.1083L3.63662 13.2083L3.59658 13.3069L3.55517 13.4069L3.51514 13.5084L3.47649 13.6085L3.43784 13.71L3.39919 13.8101L3.36192 13.9116L3.32465 14.0146L3.28876 14.1162L3.25287 14.2177L3.21697 14.3207L3.18246 14.4238L3.14934 14.5268L3.11621 14.6313L3.08308 14.7343L3.05133 14.8389L3.01958 14.9434L2.98921 15.0479L2.95884 15.1524L2.92985 15.257L2.90086 15.363L2.87188 15.469L2.84427 15.575L2.81804 15.681L2.79043 15.7871L2.76559 15.8931L2.74074 16.0006L2.71589 16.1081L2.69242 16.2156L2.66896 16.3231L2.64687 16.4306L2.62478 16.5381L2.60408 16.6471L2.58337 16.7561L2.56405 16.8651L2.54472 16.9741L2.5254 17.0831L2.50745 17.1922L2.49089 17.3026L2.47432 17.4116L2.45914 17.5221L2.44395 17.6326L2.42877 17.7431L2.41496 17.8551L2.40254 17.9656L2.39012 18.0761L2.37769 18.1881L2.36665 18.3001L2.35699 18.4121L2.34733 18.5241L2.33766 18.6361L2.32938 18.7496L2.32248 18.8615L2.31558 18.975L2.31005 19.0885L2.30453 19.2005L2.29901 19.314L2.29487 19.429L2.29211 19.5424L2.28935 19.6559L2.28797 19.7709L2.28659 19.8844V19.9994V20.1143L2.28797 20.2293L2.28935 20.3428L2.29211 20.4578L2.29487 20.5713L2.29901 20.6847L2.30453 20.7982L2.31005 20.9117L2.31558 21.0252L2.32248 21.1372L2.32938 21.2507L2.33766 21.3626L2.34733 21.4761L2.35699 21.5881L2.36665 21.7001L2.37769 21.8106L2.39012 21.9226L2.40254 22.0346L2.41496 22.1451L2.42877 22.2556L2.44395 22.3661L2.45914 22.4766L2.47432 22.5871L2.49089 22.6976L2.50745 22.8066L2.5254 22.9171L2.54472 23.0261L2.56405 23.1351L2.58337 23.2441L2.60408 23.3531L2.62478 23.4606L2.64687 23.5696L2.66896 23.6771L2.69242 23.7846L2.71589 23.8921L2.74074 23.9996L2.76559 24.1056L2.79043 24.2132L2.81804 24.3192L2.84427 24.4252L2.87188 24.5312L2.90086 24.6372L2.92985 24.7417L2.95884 24.8478L2.98921 24.9523L3.01958 25.0568L3.05133 25.1613L3.08308 25.2644L3.11621 25.3689L3.14934 25.4719L3.18246 25.575L3.21697 25.678L3.25287 25.781L3.28876 25.884L3.32465 25.9856L3.36192 26.0871L3.39919 26.1887L3.43784 26.2902L3.47649 26.3917L3.51514 26.4918L3.55517 26.5918L3.59658 26.6919L3.63662 26.7919L3.67941 26.892L3.72082 26.9905L3.76361 27.0891L3.80778 27.1876L3.85196 27.2862L3.89613 27.3832L3.94168 27.4818L3.98724 27.5788L4.03417 27.6759L4.0811 27.7714L4.12804 27.8685L4.17635 27.9641L4.22466 28.0596L4.27436 28.1552L4.32405 28.2508L4.37375 28.3448L4.42482 28.4389L4.4759 28.533L4.52835 28.627L4.58081 28.7196L4.63464 28.8122L4.6871 28.9048L4.74231 28.9974L4.79615 29.0899L4.85136 29.181L4.90796 29.2721L4.96318 29.3632L5.02115 29.4528L5.07775 29.5439L5.13573 29.6335L5.1937 29.7216L5.25306 29.8111L5.31242 29.8992L5.37315 29.9873L5.43389 30.0754L5.49463 30.1635L5.55537 30.2502L5.61748 30.3368L5.68098 30.4234L5.7431 30.5085L5.8066 30.5951L5.87148 30.6802L5.93497 30.7638L6.00123 30.8489L6.06611 30.9325L6.13237 31.0162L6.19863 31.0998L6.26627 31.1819L6.33391 31.264L6.40155 31.3462L6.46919 31.4268L6.53821 31.5089L6.60861 31.5895L6.67763 31.6687L6.74803 31.7493L6.81981 31.8285L6.89021 31.9076L6.96199 31.9852L7.03515 32.0644L7.10693 32.142L7.18009 32.2182L7.25325 32.2958L7.32779 32.372L7.40234 32.4481L7.47688 32.5228L7.5528 32.5975L7.62872 32.6721L7.70464 32.7468L7.78194 32.8199L7.85925 32.8931L7.93655 32.9663L8.01523 33.0379L8.09253 33.1096L8.1726 33.1813L8.25128 33.2515L8.33134 33.3231L8.41141 33.3918L8.49147 33.462L8.57291 33.5307L8.65436 33.5994L8.7358 33.6666L8.81862 33.7353L8.90145 33.8025L8.98427 33.8682L9.06847 33.9339L9.1513 33.9996L9.2355 34.0653L9.32109 34.1295L9.40529 34.1937L9.49088 34.2564L9.57784 34.3206L9.66342 34.3833L9.75039 34.4445L9.83735 34.5058L9.92432 34.567L10.0127 34.6282L10.101 34.6879L10.1894 34.7477L10.2777 34.8059L10.3674 34.8641L10.4572 34.9224L10.5469 34.9806L10.638 35.0373L10.7291 35.0926L10.8202 35.1493L10.9113 35.2046L11.0024 35.2583L11.0949 35.3136L11.1874 35.3658L11.2812 35.4196L11.3737 35.4719L11.4676 35.5241L11.5615 35.5749L11.6553 35.6271L11.7506 35.6764L11.8458 35.7272L11.9411 35.775L12.0363 35.8242L12.1316 35.872L12.2282 35.9198L12.3248 35.9676L12.4215 36.0139L12.5195 36.0587L12.6161 36.105L12.7141 36.1483L12.8121 36.1931L12.9115 36.2364L13.0095 36.2797L13.1089 36.3215L13.2083 36.3633L13.3091 36.4051L13.4084 36.4454L13.5092 36.4857L13.61 36.5246L13.7107 36.5634L13.8115 36.6007L13.9137 36.6395L14.0144 36.6754L14.1166 36.7127L14.2187 36.7485L14.3223 36.7829L14.4244 36.8172L14.5279 36.8516L14.6315 36.8844L14.735 36.9173L14.8399 36.9501L14.9434 36.9815L15.0484 37.0113L15.1533 37.0412L15.2582 37.0711L15.3645 37.0994L15.4694 37.1278L15.5757 37.1562L15.682 37.1831L15.7882 37.2099L15.8945 37.2353L16.0008 37.2607L16.1085 37.2846L16.2162 37.3085L16.3238 37.3309L16.4315 37.3533L16.5392 37.3757L16.6482 37.3966L16.7573 37.4175L16.865 37.4369L16.974 37.4563L17.0844 37.4742L17.1935 37.4922L17.3039 37.5101L17.413 37.5265L17.5234 37.5414L17.6338 37.5578L17.7443 37.5713L17.8561 37.5847L17.9665 37.5982L18.0783 37.6101L18.1888 37.6221L18.3006 37.634L18.4124 37.6445L18.5256 37.6534L18.6374 37.6624L18.7506 37.6698L18.8624 37.6773L18.9756 37.6848L19.0888 37.6907L19.202 37.6967L19.3152 37.7012L19.4297 37.7057L19.5429 37.7087L19.6575 37.7102L19.7721 37.7131H19.8866L20.0012 37.7146L20.1158 37.7131H20.2304L20.3435 37.7102L20.4581 37.7087L20.5727 37.7057L20.6859 37.7012L20.7991 37.6967L20.9123 37.6907L21.0255 37.6848L21.1387 37.6773L21.2519 37.6698L21.3637 37.6624L21.4769 37.6534L21.5887 37.6445L21.7005 37.634L21.8123 37.6221L21.9241 37.6101L22.0345 37.5982L22.1463 37.5847L22.2568 37.5713L22.3672 37.5578L22.4776 37.5414L22.5881 37.5265L22.6985 37.5101L22.8076 37.4922L22.918 37.4742L23.027 37.4563L23.1361 37.4369L23.2451 37.4175L23.3528 37.3966L23.4619 37.3757L23.5695 37.3533L23.6772 37.3309L23.7849 37.3085L23.8925 37.2846L24.0002 37.2607L24.1065 37.2353L24.2142 37.2099L24.3205 37.1831L24.4268 37.1562L24.5317 37.1278L24.638 37.0994L24.7429 37.0711L24.8478 37.0412L24.9527 37.0113L25.0576 36.9815L25.1625 36.9501L25.266 36.9173L25.3696 36.8844L25.4731 36.8516L25.5766 36.8172L25.6788 36.7829L25.7823 36.7485L25.8845 36.7127L25.9866 36.6754L26.0888 36.6395L26.1895 36.6007L26.2917 36.5634L26.3924 36.5246L26.4932 36.4857L26.5926 36.4454L26.6934 36.4051L26.7928 36.3633L26.8921 36.3215L26.9915 36.2797L27.0895 36.2364L27.1889 36.1931L27.2869 36.1483L27.385 36.105L27.483 36.0587L27.5796 36.0139L27.6762 35.9676L27.7728 35.9198L27.8695 35.872L27.9647 35.8242L28.0613 35.775L28.1566 35.7272L28.2518 35.6764L28.3457 35.6271L28.4396 35.5749L28.5334 35.5241L28.6273 35.4719L28.7212 35.4196L28.8137 35.3658L28.9061 35.3136L28.9986 35.2583L29.0897 35.2046L29.1822 35.1493L29.2733 35.0926L29.3644 35.0373L29.4542 34.9806L29.5439 34.9224L29.6336 34.8641L29.7233 34.8059L29.8117 34.7477L29.9014 34.6879L29.9884 34.6282L30.0767 34.567L30.1637 34.5058L30.2507 34.4445L30.3376 34.3833L30.4246 34.3206L30.5102 34.2564L30.5958 34.1937L30.6813 34.1295L30.7655 34.0653L30.8497 33.9996L30.9339 33.9339L31.0168 33.8682L31.0996 33.8025L31.1824 33.7353L31.2652 33.6666L31.3467 33.5994L31.4281 33.5307L31.5096 33.462L31.5896 33.3918L31.6697 33.3231L31.7498 33.2515L31.8298 33.1813L31.9085 33.1096L31.9872 33.0379L32.0645 32.9663L32.1432 32.8931L32.2191 32.8199L32.2964 32.7468L32.3723 32.6721L32.4482 32.5975L32.5242 32.5228L32.5987 32.4481L32.6732 32.372L32.7478 32.2958L32.821 32.2182L32.8941 32.142L32.9673 32.0644L33.0391 31.9852L33.1108 31.9076L33.1826 31.8285L33.253 31.7493L33.3234 31.6687L33.3938 31.5895L33.4628 31.5089L33.5319 31.4268L33.6009 31.3462L33.6685 31.264L33.7362 31.1819L33.8024 31.0998L33.8687 31.0162L33.9349 30.9325L34.0012 30.8489L34.0661 30.7638L34.1309 30.6802L34.1944 30.5951L34.2579 30.5085L34.3214 30.4234L34.3836 30.3368L34.4457 30.2502L34.5078 30.1635L34.5685 30.0754L34.6293 29.9873L34.6886 29.8992L34.748 29.8111L34.8073 29.7216L34.8653 29.6335L34.9233 29.5439L34.9813 29.4528L35.0379 29.3632L35.0945 29.2721L35.1497 29.181L35.2049 29.0899L35.2601 28.9974L35.3139 28.9048L35.3678 28.8122L35.4202 28.7196L35.4727 28.627L35.5251 28.533L35.5762 28.4389L35.6273 28.3448L35.6784 28.2508L35.7281 28.1552L35.7764 28.0596L35.8247 27.9641L35.873 27.8685L35.9213 27.7714L35.9683 27.6759L36.0138 27.5788L36.0594 27.4818L36.1049 27.3832L36.1505 27.2862L36.1933 27.1876L36.2374 27.0891L36.2802 26.9905L36.323 26.892L36.3644 26.7919L36.4058 26.6919L36.4459 26.5918L36.4859 26.4918L36.5259 26.3917L36.5646 26.2902L36.6019 26.1887L36.6405 26.0871L36.6764 25.9856L36.7137 25.884L36.7496 25.781L36.7841 25.678L36.8186 25.575L36.8531 25.4719L36.8862 25.3689L36.918 25.2644L36.9497 25.1613L36.9815 25.0568L37.0132 24.9523L37.0422 24.8478L37.0726 24.7417L37.1016 24.6372L37.1292 24.5312L37.1568 24.4252L37.1844 24.3192L37.2106 24.2132L37.2355 24.1056L37.2617 23.9996L37.2852 23.8921L37.31 23.7846L37.3321 23.6771L37.3556 23.5696L37.3763 23.4606L37.3983 23.3531L37.4177 23.2441L37.4384 23.1351L37.4577 23.0261L37.4756 22.9171L37.4936 22.8066L37.5102 22.6976L37.5267 22.5871L37.5433 22.4766L37.5585 22.3661L37.5723 22.2556L37.5861 22.1451L37.5999 22.0346L37.6123 21.9226L37.6233 21.8106L37.6344 21.7001L37.6454 21.5881L37.6537 21.4761L37.6634 21.3626L37.6717 21.2507L37.6786 21.1372L37.6855 21.0252L37.6924 20.9117L37.6979 20.7982L37.702 20.6847L37.7062 20.5713L37.7089 20.4578L37.7117 20.3428L37.7131 20.2293L37.7145 20.1143V19.9994V19.8844L37.7131 19.7709L37.7117 19.6559L37.7089 19.5424L37.7062 19.429L37.702 19.314L37.6979 19.2005L37.6924 19.0885L37.6855 18.975L37.6786 18.8615L37.6717 18.7496L37.6634 18.6361L37.6537 18.5241L37.6454 18.4121L37.6344 18.3001L37.6233 18.1881L37.6123 18.0761L37.5999 17.9656L37.5861 17.8551L37.5723 17.7431L37.5585 17.6326L37.5433 17.5221L37.5267 17.4116L37.5102 17.3026L37.4936 17.1922L37.4756 17.0831L37.4577 16.9741L37.4384 16.8651L37.4177 16.7561L37.3983 16.6471L37.3763 16.5381L37.3556 16.4306L37.3321 16.3231L37.31 16.2156L37.2852 16.1081L37.2617 16.0006L37.2355 15.8931L37.2106 15.7871L37.1844 15.681L37.1568 15.575L37.1292 15.469L37.1016 15.363L37.0726 15.257L37.0422 15.1524L37.0132 15.0479L36.9815 14.9434L36.9497 14.8389L36.918 14.7343L36.8862 14.6313L36.8531 14.5268L36.8186 14.4238L36.7841 14.3207L36.7496 14.2177L36.7137 14.1162L36.6764 14.0146L36.6405 13.9116L36.6019 13.8101L36.5646 13.71L36.5259 13.6085L36.4859 13.5084L36.4459 13.4069L36.4058 13.3069L36.3644 13.2083L36.323 13.1083L36.2802 13.0097L36.2374 12.9097L36.1946 12.8111L36.1505 12.7141L36.1049 12.6155L36.0594 12.5184L36.0138 12.4214L35.9683 12.3243L35.9213 12.2273L35.873 12.1317L35.8247 12.0346L35.7764 11.9391L35.7281 11.8435L35.6784 11.7494L35.6273 11.6554L35.5762 11.5598L35.5251 11.4657L35.4727 11.3732L35.4202 11.2791L35.3678 11.1865L35.3139 11.0939L35.2601 11.0014L35.2049 10.9103L35.1497 10.8192L35.0945 10.7281L35.0379 10.637L34.9813 10.5459L34.9233 10.4563L34.8653 10.3667L34.8073 10.2772L34.748 10.1891L34.6886 10.0995L34.6293 10.0114L34.5685 9.92327L34.5078 9.83667L34.4457 9.74857L34.3836 9.66196L34.3214 9.57685L34.2579 9.49024L34.1944 9.40513L34.1309 9.32002L34.0661 9.23491L34.0012 9.15129L33.9349 9.06767L33.8687 8.98405L33.8024 8.90043L33.7362 8.81831L33.6685 8.73469L33.6009 8.65405L33.5319 8.57193L33.4628 8.4913L33.3938 8.41066L33.3234 8.33003L33.253 8.25089L33.1826 8.17175L33.1108 8.09261L33.0391 8.01347L32.9673 7.93583L32.8941 7.85818L32.821 7.78053L32.7478 7.70438L32.6732 7.62823L32.5987 7.55208L32.5242 7.47592L32.4482 7.40126L32.3723 7.3266L32.2964 7.25344L32.2191 7.17878L32.1432 7.10561L32.0645 7.03394L31.9872 6.96077L31.9085 6.8891L31.8298 6.81892L31.7498 6.74724L31.6697 6.67706L31.5896 6.60688L31.5096 6.5382L31.4281 6.46801L31.3467 6.40082L31.2652 6.33213L31.1824 6.26494L31.0996 6.19775L31.0168 6.13055L30.9339 6.06485L30.8497 5.99915L30.7655 5.93494L30.6813 5.87074L30.5958 5.80653L30.5102 5.74232L30.4246 5.67961L30.3376 5.61689L30.2507 5.55418L30.1637 5.49296L30.0767 5.43174L29.9884 5.37201L29.9014 5.31228L29.8117 5.25255L29.7233 5.19283L29.6336 5.13459L29.5439 5.07636L29.4542 5.01961L29.3644 4.96287L29.2733 4.90613L29.1822 4.85088L29.0911 4.79563L28.9986 4.74039L28.9061 4.68663L28.8137 4.63288L28.7212 4.58062L28.6273 4.52686L28.5334 4.47609L28.4396 4.42383L28.3457 4.37306L28.2518 4.32229L28.1566 4.27302L28.0613 4.22374L27.9647 4.17447L27.8695 4.12668L27.7728 4.0789L27.6762 4.03261L27.5796 3.98632L27.483 3.94003L27.385 3.89524L27.2869 3.85044L27.1889 3.80714L27.0895 3.76384L26.9915 3.72053L26.8921 3.67723L26.7928 3.63542L26.6934 3.59511L26.5926 3.55479L26.4932 3.51447L26.3924 3.47565L26.2917 3.43683L26.1895 3.398L26.0888 3.36067L25.9866 3.32334L25.8845 3.28751L25.7823 3.25167L25.6788 3.21583L25.5766 3.18149L25.4731 3.14864L25.3696 3.1143L25.266 3.08145L25.1625 3.05009L25.0576 3.01873L24.9527 2.98737L24.8478 2.95751L24.7429 2.92765L24.638 2.89928L24.5317 2.87091L24.4268 2.84403L24.3205 2.81715L24.2142 2.79027L24.1065 2.76489L24.0002 2.7395L23.8925 2.71561L23.7849 2.69172L23.6772 2.66783L23.5695 2.64543L23.4619 2.62453L23.3528 2.60213L23.2451 2.58272L23.1361 2.56181L23.027 2.5439L22.918 2.52448L22.8076 2.50657L22.6985 2.49014L22.5881 2.47372L22.4776 2.45729L22.3672 2.44236L22.2568 2.42743L22.1463 2.41399L22.0345 2.40055L21.9241 2.3886L21.8123 2.37666L21.7005 2.36621L21.5887 2.35575L21.4769 2.34679L21.3637 2.33783L21.2519 2.32888L21.1387 2.32141L21.0255 2.31394L20.9123 2.30797L20.7991 2.30349L20.6859 2.29901L20.5727 2.29453L20.4581 2.29155L20.3435 2.28856L20.2304 2.28707L20.1158 2.28557H20.0012H19.8866Z" fill="#F1A3AD"/>
</g>
<g id="Group_2">
<path id="Vector_2" fill-rule="evenodd" clip-rule="evenodd" d="M20.1032 12.0662L20.2061 12.0675L20.3077 12.0713L20.408 12.0751L20.5096 12.0814L20.6099 12.0878L20.7102 12.0967L20.8105 12.1056L20.9108 12.117L21.0099 12.1284L21.1089 12.1424L21.208 12.1564L21.3058 12.1716L21.4035 12.1894L21.5013 12.2072L21.5991 12.2262L21.6956 12.2465L21.7921 12.2681L21.8873 12.291L21.9826 12.3151L22.0778 12.3405L22.1731 12.3659L22.267 12.3938L22.3597 12.4218L22.4524 12.4522L22.5451 12.4827L22.6378 12.5145L22.7293 12.5475L22.8207 12.5818L22.9108 12.6161L23.001 12.6529L23.0899 12.6897L23.1788 12.7278L23.2664 12.7672L23.354 12.8078L23.4416 12.8484L23.528 12.8916L23.6143 12.9348L23.6994 12.9792L23.7845 13.0237L23.8683 13.0707L23.9508 13.1176L24.0346 13.1659L24.1159 13.2154L24.1972 13.2649L24.2785 13.317L24.3585 13.3691L24.4385 13.4211L24.5172 13.4757L24.5946 13.5303L24.6721 13.5862L24.7496 13.6434L24.8245 13.7005L24.9007 13.7589L24.9743 13.8186L25.048 13.8783L25.1216 13.9392L25.194 14.0014L25.2651 14.0637L25.3362 14.1272L25.4061 14.1919L25.4759 14.2567L25.5445 14.3227L25.6118 14.39L25.6778 14.4573L25.7439 14.5259L25.8099 14.5957L25.8746 14.6656L25.9381 14.7367L26.0004 14.8078L26.0626 14.8802L26.1235 14.9526L26.1832 15.0262L26.2429 15.1011L26.3013 15.1761L26.3585 15.2522L26.4156 15.3297L26.4715 15.4072L26.5261 15.4846L26.5794 15.5634L26.6327 15.6434L26.6848 15.7234L26.7356 15.8034L26.7864 15.8859L26.8359 15.9672L26.8842 16.0497L26.9312 16.1335L26.9769 16.2173L27.0226 16.3024L27.067 16.3875L27.1102 16.4738L27.1534 16.5602L27.194 16.6465L27.2346 16.7341L27.274 16.823L27.3121 16.9119L27.3489 17.0008L27.3858 17.091L27.42 17.1811L27.4543 17.2726L27.4873 17.364L27.5191 17.4554L27.5496 17.5481L27.5788 17.6421L27.608 17.7348L27.6346 17.8287L27.6613 17.924L27.6867 18.018L27.7108 18.1145L27.7337 18.2097L27.7553 18.3062L27.7756 18.4027L27.7946 18.5005L27.8124 18.597L27.8289 18.6948L27.8454 18.7938L27.8594 18.8929L27.8734 18.9919L27.8848 19.091L27.8962 19.1913L27.9051 19.2903L27.914 19.3906L27.9204 19.4922L27.9267 19.5926L27.9305 19.6941L27.9343 19.7957L27.9356 19.8986L27.9369 20.0002L27.9356 20.1018L27.9343 20.2046L27.9305 20.3062L27.9267 20.4078L27.9204 20.5081L27.914 20.6097L27.9051 20.71L27.8962 20.8091L27.8848 20.9094L27.8734 21.0084L27.8594 21.1075L27.8454 21.2065L27.8289 21.3043L27.8124 21.4033L27.7946 21.4999L27.7756 21.5976L27.7553 21.6941L27.7337 21.7906L27.7108 21.8859L27.6867 21.9824L27.6613 22.0764L27.6346 22.1716L27.608 22.2656L27.5788 22.3583L27.5496 22.4522L27.5191 22.5449L27.4873 22.6364L27.4543 22.7278L27.42 22.8192L27.3858 22.9094L27.3489 22.9995L27.3121 23.0884L27.274 23.1773L27.2346 23.2662L27.194 23.3538L27.1534 23.4402L27.1102 23.5265L27.067 23.6129L27.0226 23.6979L26.9769 23.783L26.9312 23.8668L26.8842 23.9506L26.8359 24.0332L26.7864 24.1145L26.7356 24.197L26.6848 24.277L26.6327 24.357L26.5794 24.437L26.5261 24.5157L26.4715 24.5932L26.4156 24.6706L26.3585 24.7481L26.3013 24.8243L26.2429 24.8992L26.1832 24.9741L26.1235 25.0478L26.0626 25.1202L26.0004 25.1925L25.9381 25.2637L25.8746 25.3348L25.8099 25.4046L25.7439 25.4745L25.6778 25.543L25.6118 25.6103L25.5445 25.6776L25.4759 25.7437L25.4061 25.8084L25.3362 25.8732L25.2651 25.9367L25.194 25.9989L25.1216 26.0611L25.048 26.1221L24.9743 26.1818L24.9007 26.2414L24.8245 26.2998L24.7496 26.357L24.6721 26.4141L24.5946 26.47L24.5172 26.5246L24.4385 26.5779L24.3585 26.6313L24.2785 26.6833L24.1972 26.7354L24.1159 26.7849L24.0346 26.8345L23.9508 26.8827L23.8683 26.9297L23.7845 26.9767L23.6994 27.0211L23.6143 27.0656L23.528 27.1087L23.4416 27.1519L23.354 27.1925L23.2664 27.2332L23.1788 27.2725L23.0899 27.3106L23.001 27.3475L22.9108 27.3843L22.8207 27.4186L22.7293 27.4529L22.6378 27.4859L22.5451 27.5176L22.4524 27.5481L22.3597 27.5786L22.267 27.6065L22.1731 27.6344L22.0778 27.6598L21.9826 27.6852L21.8873 27.7094L21.7921 27.7322L21.6956 27.7538L21.5991 27.7741L21.5013 27.7932L21.4035 27.811L21.3058 27.8287L21.208 27.844L21.1089 27.8579L21.0099 27.8719L20.9108 27.8833L20.8105 27.8948L20.7102 27.9037L20.6099 27.9125L20.5096 27.9189L20.408 27.9252L20.3077 27.9291L20.2061 27.9329L20.1032 27.9341L20.0016 27.9354L19.8988 27.9341L19.7972 27.9329L19.6956 27.9291L19.594 27.9252L19.4937 27.9189L19.3921 27.9125L19.2918 27.9037L19.1915 27.8948L19.0924 27.8833L18.9921 27.8719L18.8931 27.8579L18.7953 27.844L18.6962 27.8287L18.5985 27.811L18.5007 27.7932L18.4042 27.7741L18.3077 27.7538L18.2112 27.7322L18.1147 27.7094L18.0194 27.6852L17.9254 27.6598L17.8302 27.6344L17.7362 27.6065L17.6423 27.5786L17.5496 27.5481L17.4569 27.5176L17.3654 27.4859L17.274 27.4529L17.1826 27.4186L17.0924 27.3843L17.0023 27.3475L16.9134 27.3106L16.8245 27.2725L16.7356 27.2332L16.648 27.1925L16.5616 27.1519L16.4753 27.1087L16.3889 27.0656L16.3039 27.0211L16.2188 26.9767L16.135 26.9297L16.0512 26.8827L15.9686 26.8345L15.8861 26.7849L15.8048 26.7354L15.7248 26.6833L15.6448 26.6313L15.5648 26.5779L15.4861 26.5246L15.4074 26.47L15.3299 26.4141L15.2537 26.357L15.1775 26.2998L15.1026 26.2414L15.0277 26.1818L14.954 26.1221L14.8816 26.0611L14.8093 25.9989L14.7369 25.9367L14.667 25.8732L14.5972 25.8084L14.5274 25.7437L14.4588 25.6776L14.3915 25.6103L14.3242 25.543L14.2581 25.4745L14.1934 25.4046L14.1286 25.3348L14.0651 25.2637L14.0029 25.1925L13.9407 25.1202L13.8797 25.0478L13.8201 24.9741L13.7604 24.8992L13.702 24.8243L13.6435 24.7481L13.5877 24.6706L13.5318 24.5932L13.4772 24.5157L13.4226 24.437L13.3705 24.357L13.3185 24.277L13.2664 24.197L13.2169 24.1145L13.1674 24.0332L13.1191 23.9506L13.0721 23.8668L13.0251 23.783L12.9794 23.6979L12.9362 23.6129L12.8918 23.5265L12.8499 23.4402L12.8093 23.3538L12.7686 23.2662L12.7293 23.1773L12.6912 23.0884L12.6531 22.9995L12.6175 22.9094L12.582 22.8192L12.5489 22.7278L12.5159 22.6364L12.4842 22.5449L12.4537 22.4522L12.4232 22.3583L12.3953 22.2656L12.3674 22.1716L12.342 22.0764L12.3166 21.9824L12.2924 21.8859L12.2696 21.7906L12.248 21.6941L12.2277 21.5976L12.2086 21.4999L12.1909 21.4033L12.1731 21.3043L12.1578 21.2065L12.1426 21.1075L12.1299 21.0084L12.1185 20.9094L12.107 20.8091L12.0982 20.71L12.0893 20.6097L12.0829 20.5081L12.0766 20.4078L12.0715 20.3062L12.0689 20.2046L12.0664 20.1018V20.0002V19.8986L12.0689 19.7957L12.0715 19.6941L12.0766 19.5926L12.0829 19.4922L12.0893 19.3906L12.0982 19.2903L12.107 19.1913L12.1185 19.091L12.1299 18.9919L12.1426 18.8929L12.1578 18.7938L12.1731 18.6948L12.1909 18.597L12.2086 18.5005L12.2277 18.4027L12.248 18.3062L12.2696 18.2097L12.2924 18.1145L12.3166 18.018L12.342 17.924L12.3674 17.8287L12.3953 17.7348L12.4232 17.6421L12.4537 17.5481L12.4842 17.4554L12.5159 17.364L12.5489 17.2726L12.582 17.1811L12.6175 17.091L12.6531 17.0008L12.6912 16.9119L12.7293 16.823L12.7686 16.7341L12.8093 16.6465L12.8499 16.5602L12.8918 16.4738L12.9362 16.3875L12.9794 16.3024L13.0251 16.2173L13.0721 16.1335L13.1191 16.0497L13.1674 15.9672L13.2169 15.8859L13.2664 15.8034L13.3185 15.7234L13.3705 15.6434L13.4226 15.5634L13.4772 15.4846L13.5318 15.4072L13.5877 15.3297L13.6435 15.2522L13.702 15.1761L13.7604 15.1011L13.8201 15.0262L13.8797 14.9526L13.9407 14.8802L14.0029 14.8078L14.0651 14.7367L14.1286 14.6656L14.1934 14.5957L14.2581 14.5259L14.3242 14.4573L14.3915 14.39L14.4588 14.3227L14.5274 14.2567L14.5972 14.1919L14.667 14.1272L14.7369 14.0637L14.8093 14.0014L14.8816 13.9392L14.954 13.8783L15.0277 13.8186L15.1026 13.7589L15.1775 13.7005L15.2537 13.6434L15.3299 13.5862L15.4074 13.5303L15.4861 13.4757L15.5648 13.4211L15.6448 13.3691L15.7248 13.317L15.8048 13.2649L15.8861 13.2154L15.9686 13.1659L16.0512 13.1176L16.135 13.0707L16.2188 13.0237L16.3039 12.9792L16.3889 12.9348L16.4753 12.8916L16.5616 12.8484L16.648 12.8078L16.7356 12.7672L16.8245 12.7278L16.9134 12.6897L17.0023 12.6529L17.0924 12.6161L17.1826 12.5818L17.274 12.5475L17.3654 12.5145L17.4569 12.4827L17.5496 12.4522L17.6423 12.4218L17.7362 12.3938L17.8302 12.3659L17.9254 12.3405L18.0194 12.3151L18.1147 12.291L18.2112 12.2681L18.3077 12.2465L18.4042 12.2262L18.5007 12.2072L18.5985 12.1894L18.6962 12.1716L18.7953 12.1564L18.8931 12.1424L18.9921 12.1284L19.0924 12.117L19.1915 12.1056L19.2918 12.0967L19.3921 12.0878L19.4937 12.0814L19.594 12.0751L19.6956 12.0713L19.7972 12.0675L19.8988 12.0662L20.0016 12.0649L20.1032 12.0662ZM19.9166 13.3983L19.8315 13.4008L19.7464 13.4034L19.6613 13.4072L19.5775 13.4122L19.4937 13.4173L19.4099 13.4249L19.3274 13.4326L19.2435 13.4414L19.161 13.4516L19.0785 13.463L18.9972 13.4745L18.9147 13.4872L18.8334 13.5011L18.7521 13.5164L18.6721 13.5329L18.5908 13.5494L18.5108 13.5672L18.4321 13.5862L18.3521 13.6065L18.2734 13.6268L18.1947 13.6484L18.1172 13.6713L18.0397 13.6954L17.9623 13.7195L17.8848 13.7449L17.8086 13.7716L17.7324 13.7995L17.6562 13.8275L17.5813 13.8567L17.5064 13.8872L17.4327 13.9176L17.3591 13.9494L17.2854 13.9824L17.2131 14.0154L17.1407 14.0497L17.0683 14.0853L16.9972 14.1208L16.9261 14.1576L16.8562 14.1957L16.7864 14.2338L16.7166 14.2732L16.648 14.3138L16.5794 14.3545L16.5108 14.3964L16.4435 14.4395L16.3775 14.4827L16.3115 14.5259L16.2454 14.5716L16.1807 14.6173L16.1159 14.663L16.0524 14.71L15.9889 14.7583L15.9267 14.8065L15.8645 14.856L15.8035 14.9068L15.7426 14.9576L15.6816 15.0084L15.622 15.0618L15.5635 15.1138L15.5051 15.1684L15.448 15.2218L15.3908 15.2776L15.3337 15.3322L15.2778 15.3894L15.2232 15.4465L15.1686 15.5037L15.1153 15.5621L15.062 15.6218L15.0099 15.6802L14.9591 15.7411L14.9083 15.8021L14.8575 15.863L14.808 15.9253L14.7597 15.9875L14.7115 16.051L14.6645 16.1145L14.6188 16.1792L14.5731 16.244L14.5274 16.31L14.4842 16.376L14.4397 16.4433L14.3978 16.5107L14.3559 16.578L14.3153 16.6465L14.2747 16.7151L14.2353 16.7849L14.1972 16.8548L14.1591 16.9246L14.1223 16.9957L14.0867 17.0668L14.0512 17.1392L14.0169 17.2116L13.9826 17.284L13.9508 17.3576L13.9191 17.4313L13.8874 17.5062L13.8582 17.5799L13.8289 17.656L13.801 17.731L13.7731 17.8072L13.7464 17.8833L13.721 17.9608L13.6969 18.0383L13.6728 18.1157L13.6499 18.1932L13.6283 18.2719L13.608 18.3507L13.5877 18.4306L13.5686 18.5094L13.5508 18.5894L13.5343 18.6707L13.5178 18.7506L13.5026 18.8319L13.4886 18.9132L13.4759 18.9957L13.4632 19.077L13.4531 19.1595L13.4429 19.2421L13.434 19.3259L13.4251 19.4084L13.4188 19.4922L13.4124 19.576L13.4086 19.6611L13.4048 19.7449L13.4023 19.83L13.3997 19.9151V20.0002V20.0853L13.4023 20.1703L13.4048 20.2554L13.4086 20.3392L13.4124 20.4243L13.4188 20.5081L13.4251 20.5919L13.434 20.6745L13.4429 20.7583L13.4531 20.8408L13.4632 20.9233L13.4759 21.0046L13.4886 21.0872L13.5026 21.1684L13.5178 21.2497L13.5343 21.3297L13.5508 21.4097L13.5686 21.4897L13.5877 21.5697L13.608 21.6497L13.6283 21.7284L13.6499 21.8072L13.6728 21.8846L13.6969 21.9621L13.721 22.0395L13.7464 22.117L13.7731 22.1932L13.801 22.2694L13.8289 22.3443L13.8582 22.4205L13.8874 22.4941L13.9191 22.5691L13.9508 22.6427L13.9826 22.7164L14.0169 22.7887L14.0512 22.8611L14.0867 22.9335L14.1223 23.0046L14.1591 23.0757L14.1972 23.1456L14.2353 23.2154L14.2747 23.2852L14.3153 23.3538L14.3559 23.4224L14.3978 23.4897L14.4397 23.557L14.4842 23.6243L14.5274 23.6903L14.5731 23.7564L14.6188 23.8211L14.6645 23.8846L14.7115 23.9494L14.7597 24.0129L14.808 24.0751L14.8575 24.1373L14.9083 24.1983L14.9591 24.2592L15.0099 24.3202L15.062 24.3786L15.1153 24.4383L15.1686 24.4967L15.2232 24.5538L15.2778 24.611L15.3337 24.6668L15.3908 24.7227L15.448 24.7786L15.5051 24.8319L15.5635 24.8865L15.622 24.9386L15.6816 24.9919L15.7426 25.0427L15.8035 25.0935L15.8645 25.1443L15.9267 25.1925L15.9889 25.2421L16.0524 25.2903L16.1159 25.3373L16.1807 25.383L16.2454 25.4287L16.3115 25.4745L16.3775 25.5176L16.4435 25.5608L16.5108 25.604L16.5794 25.6459L16.648 25.6865L16.7166 25.7272L16.7864 25.7665L16.8562 25.8046L16.9261 25.8427L16.9972 25.8795L17.0683 25.9151L17.1407 25.9506L17.2131 25.9849L17.2854 26.0179L17.3591 26.051L17.4327 26.0827L17.5064 26.1132L17.5813 26.1437L17.6562 26.1729L17.7324 26.2008L17.8086 26.2287L17.8848 26.2554L17.9623 26.2808L18.0397 26.3049L18.1172 26.3291L18.1947 26.3519L18.2734 26.3735L18.3521 26.3938L18.4321 26.4141L18.5108 26.4332L18.5908 26.451L18.6721 26.4675L18.7521 26.484L18.8334 26.4992L18.9147 26.5132L18.9972 26.5259L19.0785 26.5373L19.161 26.5487L19.2435 26.5589L19.3274 26.5678L19.4099 26.5754L19.4937 26.583L19.5775 26.5881L19.6613 26.5932L19.7464 26.597L19.8315 26.5995L19.9166 26.6021H20.0016H20.0867L20.1718 26.5995L20.2569 26.597L20.3407 26.5932L20.4258 26.5881L20.5096 26.583L20.5921 26.5754L20.6759 26.5678L20.7585 26.5589L20.8423 26.5487L20.9235 26.5373L21.0061 26.5259L21.0886 26.5132L21.1699 26.4992L21.2499 26.484L21.3312 26.4675L21.4112 26.451L21.4912 26.4332L21.5712 26.4141L21.6499 26.3938L21.7299 26.3735L21.8073 26.3519L21.8861 26.3291L21.9635 26.3049L22.041 26.2808L22.1185 26.2554L22.1946 26.2287L22.2708 26.2008L22.3458 26.1729L22.4207 26.1437L22.4956 26.1132L22.5705 26.0827L22.6442 26.051L22.7178 26.0179L22.7902 25.9849L22.8626 25.9506L22.935 25.9151L23.0061 25.8795L23.0772 25.8427L23.147 25.8046L23.2169 25.7665L23.2867 25.7272L23.3553 25.6865L23.4239 25.6459L23.4912 25.604L23.5585 25.5608L23.6258 25.5176L23.6918 25.4745L23.7566 25.4287L23.8226 25.383L23.8861 25.3373L23.9508 25.2903L24.0131 25.2421L24.0766 25.1925L24.1388 25.1443L24.1997 25.0935L24.2607 25.0427L24.3204 24.9919L24.38 24.9386L24.4397 24.8865L24.4981 24.8319L24.5553 24.7786L24.6124 24.7227L24.6683 24.6668L24.7242 24.611L24.7788 24.5538L24.8334 24.4967L24.888 24.4383L24.94 24.3786L24.9921 24.3202L25.0442 24.2592L25.095 24.1983L25.1445 24.1373L25.194 24.0751L25.2435 24.0129L25.2905 23.9494L25.3388 23.8846L25.3845 23.8211L25.4302 23.7564L25.4746 23.6903L25.5191 23.6243L25.5623 23.557L25.6054 23.4897L25.6473 23.4224L25.688 23.3538L25.7286 23.2852L25.768 23.2154L25.8061 23.1456L25.8442 23.0757L25.881 23.0046L25.9166 22.9335L25.9521 22.8611L25.9864 22.7887L26.0194 22.7164L26.0524 22.6427L26.0842 22.5691L26.1146 22.4941L26.1451 22.4205L26.1743 22.3443L26.2023 22.2694L26.2302 22.1932L26.2556 22.117L26.2823 22.0395L26.3064 21.9621L26.3305 21.8846L26.3521 21.8072L26.375 21.7284L26.3953 21.6497L26.4156 21.5697L26.4346 21.4897L26.4524 21.4097L26.4689 21.3297L26.4854 21.2497L26.5007 21.1684L26.5146 21.0872L26.5273 21.0046L26.5388 20.9233L26.5502 20.8408L26.5604 20.7583L26.5692 20.6745L26.5769 20.5919L26.5845 20.5081L26.5896 20.4243L26.5946 20.3392L26.5985 20.2554L26.601 20.1703L26.6023 20.0853L26.6035 20.0002L26.6023 19.9151L26.601 19.83L26.5985 19.7449L26.5946 19.6611L26.5896 19.576L26.5845 19.4922L26.5769 19.4084L26.5692 19.3259L26.5604 19.2421L26.5502 19.1595L26.5388 19.077L26.5273 18.9957L26.5146 18.9132L26.5007 18.8319L26.4854 18.7506L26.4689 18.6707L26.4524 18.5894L26.4346 18.5094L26.4156 18.4306L26.3953 18.3507L26.375 18.2719L26.3521 18.1932L26.3305 18.1157L26.3064 18.0383L26.2823 17.9608L26.2556 17.8833L26.2302 17.8072L26.2023 17.731L26.1743 17.656L26.1451 17.5799L26.1146 17.5062L26.0842 17.4313L26.0524 17.3576L26.0194 17.284L25.9864 17.2116L25.9521 17.1392L25.9166 17.0668L25.881 16.9957L25.8442 16.9246L25.8061 16.8548L25.768 16.7849L25.7286 16.7151L25.688 16.6465L25.6473 16.578L25.6054 16.5107L25.5623 16.4433L25.5191 16.376L25.4746 16.31L25.4302 16.244L25.3845 16.1792L25.3388 16.1145L25.2905 16.051L25.2435 15.9875L25.194 15.9253L25.1445 15.863L25.095 15.8021L25.0442 15.7411L24.9921 15.6802L24.94 15.6218L24.888 15.5621L24.8334 15.5037L24.7788 15.4465L24.7242 15.3894L24.6683 15.3322L24.6124 15.2776L24.5553 15.2218L24.4981 15.1684L24.4397 15.1138L24.38 15.0618L24.3204 15.0084L24.2607 14.9576L24.1997 14.9068L24.1388 14.856L24.0766 14.8065L24.0131 14.7583L23.9508 14.71L23.8861 14.663L23.8226 14.6173L23.7566 14.5716L23.6918 14.5259L23.6258 14.4827L23.5585 14.4395L23.4912 14.3964L23.4239 14.3545L23.3553 14.3138L23.2867 14.2732L23.2169 14.2338L23.147 14.1957L23.0772 14.1576L23.0061 14.1208L22.935 14.0853L22.8626 14.0497L22.7902 14.0154L22.7178 13.9824L22.6442 13.9494L22.5705 13.9176L22.4956 13.8872L22.4207 13.8567L22.3458 13.8275L22.2708 13.7995L22.1946 13.7716L22.1185 13.7449L22.041 13.7195L21.9635 13.6954L21.8861 13.6713L21.8073 13.6484L21.7299 13.6268L21.6499 13.6065L21.5712 13.5862L21.4912 13.5672L21.4112 13.5494L21.3312 13.5329L21.2499 13.5164L21.1699 13.5011L21.0886 13.4872L21.0061 13.4745L20.9235 13.463L20.8423 13.4516L20.7585 13.4414L20.6759 13.4326L20.5921 13.4249L20.5096 13.4173L20.4258 13.4122L20.3407 13.4072L20.2569 13.4034L20.1718 13.4008L20.0867 13.3983H20.0016H19.9166Z" fill="#F1A3AD"/>
</g>
<g id="Group_3">
<path id="Vector_3" fill-rule="evenodd" clip-rule="evenodd" d="M20.0645 26.6021H20.128L20.1915 26.6033L20.255 26.6046L20.3185 26.6059L20.382 26.6071L20.4454 26.6097L20.5089 26.6122L20.5724 26.6147L20.6347 26.6173L20.6981 26.6211L20.7604 26.6249L20.8239 26.6287L20.8861 26.6325L20.9496 26.6376L21.0118 26.6427L21.074 26.6478L21.1362 26.6528L21.1985 26.6592L21.2607 26.6655L21.3229 26.6719L21.3851 26.6782L21.4474 26.6859L21.5083 26.6922L21.5705 26.6998L21.6327 26.7087L21.6937 26.7163L21.7547 26.7252L21.8169 26.7341L21.8778 26.743L21.9388 26.7519L21.9997 26.7621L22.0607 26.7722L22.1216 26.7824L22.1826 26.7938L22.2435 26.804L22.3032 26.8154L22.3642 26.8268L22.4251 26.8382L22.4848 26.8509L22.5445 26.8636L22.6054 26.8763L22.6651 26.889L22.7248 26.9017L22.7845 26.9157L22.8442 26.9297L22.9039 26.9436L22.9635 26.9576L23.022 26.9728L23.0816 26.9868L23.14 27.0021L23.1997 27.0186L23.2581 27.0338L23.3166 27.0503L23.3762 27.0668L23.4347 27.0833L23.4931 27.0998L23.5502 27.1176L23.6086 27.1341L23.667 27.1519L23.7254 27.1709L23.7826 27.1887L23.8397 27.2078L23.8981 27.2255L23.9553 27.2459L24.0124 27.2649L24.0696 27.284L24.1267 27.3043L24.1839 27.3246L24.2397 27.3449L24.2969 27.3652L24.354 27.3868L24.4099 27.4084L24.4658 27.43L24.5216 27.4516L24.5788 27.4732L24.6346 27.496L24.6893 27.5176L24.7451 27.5405L24.801 27.5646L24.8556 27.5874L24.9115 27.6116L24.9661 27.6344L25.0219 27.6598L25.0766 27.684L25.1312 27.7081L25.1858 27.7335L25.2391 27.7589L25.2937 27.7843L25.3483 27.8097L25.4016 27.8351L25.4562 27.8617L25.5096 27.8884L25.5629 27.9151L25.6162 27.9417L25.6696 27.9684L25.7229 27.9963L25.775 28.0243L25.8283 28.0522L25.8804 28.0801L25.9324 28.1081L25.9858 28.1373L26.0378 28.1665L26.0899 28.1944L26.1419 28.2249L26.1927 28.2541L26.2956 28.3138L26.3985 28.3747L26.5 28.437L26.6004 28.4992L26.7007 28.5627L26.801 28.6274L26.9 28.6935L26.9978 28.7595L27.0956 28.8268L27.1934 28.8954L27.2899 28.9652L27.3851 29.0351L27.4804 29.1062L27.5743 29.1786L27.6683 29.2509L27.761 29.3246L27.8524 29.3982L27.9439 29.4744L28.0353 29.5506L28.1254 29.6268L28.2143 29.7055L28.3019 29.7843L28.3896 29.863L28.4772 29.9443L28.5635 30.0255L28.6486 30.1068L28.7337 30.1893L28.8175 30.2732L28.9 30.3582L28.9826 30.4433L29.0639 30.5284L29.1439 30.616L29.2239 30.7024L29.3026 30.7913L29.3813 30.8801L29.4588 30.9703L29.535 31.0605L29.6099 31.1519L29.6848 31.2433L29.7585 31.336L29.8321 31.4287L29.9045 31.5227L29.9756 31.6179L30.0454 31.7132L30.1153 31.8097L30.1838 31.9062L30.2512 32.0039L30.3185 32.1017L30.3845 32.2008L30.4492 32.3011L30.5127 32.4001L30.5762 32.5017L30.6385 32.6033L30.6994 32.7049L30.7604 32.8078L30.7896 32.8598L30.8188 32.9106L30.848 32.9627L30.8772 33.0147L30.9064 33.0668L30.9343 33.1201L30.9635 33.1722L30.9915 33.2243L31.0194 33.2776L31.0461 33.3309L31.074 33.3843L31.1007 33.4363L31.1273 33.4909L31.154 33.5443L31.1807 33.5976L31.2073 33.6509L31.2327 33.7055L31.2581 33.7601L31.2835 33.8135L31.3089 33.8681L31.3331 33.9227L31.3585 33.9773L31.3826 34.0319L31.4067 34.0878L31.4296 34.1424L31.4537 34.197L31.4765 34.2528L31.4994 34.3087L31.5223 34.3646L31.5451 34.4205L31.5667 34.4763L31.5896 34.5322L31.6111 34.5881L31.6327 34.6439L31.6531 34.7011L31.6746 34.757L31.695 34.8141L31.7153 34.8713L31.7356 34.9284L31.7559 34.9855L31.6797 35.0439L31.6035 35.1036L31.5261 35.162L31.4499 35.2205L31.3724 35.2789L31.295 35.336L31.2162 35.3932L31.1388 35.4503L31.06 35.5062L30.9813 35.562L30.9026 35.6179L30.8226 35.6725L30.7426 35.7284L30.6626 35.783L30.5826 35.8363L30.5026 35.8897L30.4213 35.943L30.34 35.9963L30.2588 36.0484L30.1775 36.1005L30.095 36.1525L30.0137 36.2033L29.9312 36.2541L29.8486 36.3049L29.7648 36.3544L29.6823 36.4039L29.5985 36.4535L29.5146 36.5017L29.4296 36.5512L29.3458 36.5982L29.2607 36.6465L29.1756 36.6935L29.0905 36.7405L29.0054 36.7862L28.9191 36.8319L28.834 36.8776L28.7477 36.922L28.6613 36.9665L28.5737 37.0109L28.4873 37.0554L28.3997 37.0985L28.3121 37.1405L28.2245 37.1836L28.1369 37.2255L28.048 37.2662L27.9604 37.3081L27.8715 37.3487L27.7826 37.3881L27.6924 37.4287L27.6035 37.4681L27.5134 37.5062L27.4232 37.5455L27.3331 37.5824L27.2429 37.6205L27.1527 37.6573L27.0613 37.6941L26.9712 37.7309L26.8797 37.7665L26.7883 37.8008L26.6956 37.8363L26.6042 37.8706L26.5115 37.9036L26.4188 37.9379L26.3261 37.9709L26.2334 38.0027L26.1407 38.0344L26.0467 38.0662L25.954 38.0979L25.86 38.1284L25.7661 38.1589L25.6721 38.1881L25.5769 38.2173L25.4829 38.2452L25.3877 38.2744L25.2924 38.3024L25.1972 38.329L25.1019 38.3557L25.0067 38.3824L24.9102 38.4078L24.815 38.4332L24.7185 38.4585L24.622 38.4827L24.5254 38.5068L24.4289 38.5297L24.3312 38.5525L24.2346 38.5741L24.1369 38.597L24.0391 38.6185L23.9426 38.6389L23.8435 38.6592L23.7458 38.6795L23.648 38.6985L23.5489 38.7176L23.4512 38.7354L23.3521 38.7531L23.2531 38.7709L23.154 38.7874L23.0537 38.8039L22.9547 38.8192L22.8556 38.8344L22.7553 38.8497L22.655 38.8636L22.5547 38.8776L22.4543 38.8903L22.354 38.903L22.2537 38.9157L22.1521 38.9271L22.0518 38.9385L21.9502 38.9487L21.8499 38.9589L21.7483 38.969L21.6467 38.9779L21.5451 38.9855L21.4423 38.9944L21.3407 39.0008L21.2378 39.0084L21.1362 39.0147L21.0334 39.0198L20.9305 39.0249L20.8277 39.03L20.7248 39.0338L20.622 39.0376L20.5191 39.0414L20.4162 39.0439L20.3121 39.0452L20.208 39.0465L20.1051 39.0478H20.001H19.8969L19.794 39.0465L19.6899 39.0452L19.5858 39.0439L19.4829 39.0414L19.3801 39.0376L19.2772 39.0338L19.1743 39.03L19.0715 39.0249L18.9686 39.0198L18.8658 39.0147L18.7642 39.0084L18.6613 39.0008L18.5597 38.9944L18.4569 38.9855L18.3553 38.9779L18.2537 38.969L18.1521 38.9589L18.0518 38.9487L17.9502 38.9385L17.8499 38.9271L17.7483 38.9157L17.648 38.903L17.5477 38.8903L17.4474 38.8776L17.347 38.8636L17.2467 38.8497L17.1464 38.8344L17.0474 38.8192L16.9483 38.8039L16.848 38.7874L16.7489 38.7709L16.6499 38.7531L16.5508 38.7354L16.4531 38.7176L16.354 38.6985L16.2562 38.6795L16.1585 38.6592L16.0594 38.6389L15.9629 38.6185L15.8651 38.597L15.7674 38.5741L15.6708 38.5525L15.5731 38.5297L15.4766 38.5068L15.3801 38.4827L15.2835 38.4585L15.187 38.4332L15.0918 38.4078L14.9953 38.3824L14.9001 38.3557L14.8048 38.329L14.7096 38.3024L14.6143 38.2744L14.5191 38.2452L14.4251 38.2173L14.3299 38.1881L14.2359 38.1589L14.142 38.1284L14.048 38.0979L13.9553 38.0662L13.8613 38.0344L13.7686 38.0027L13.6759 37.9709L13.5832 37.9379L13.4905 37.9036L13.3978 37.8706L13.3064 37.8363L13.2137 37.8008L13.1223 37.7665L13.0309 37.7309L12.9407 37.6941L12.8493 37.6573L12.7591 37.6205L12.6689 37.5824L12.5788 37.5455L12.4886 37.5062L12.3985 37.4681L12.3096 37.4287L12.2194 37.3881L12.1305 37.3487L12.0416 37.3081L11.954 37.2662L11.8651 37.2255L11.7775 37.1836L11.6899 37.1405L11.6023 37.0985L11.5147 37.0554L11.4283 37.0109L11.3407 36.9665L11.2543 36.922L11.168 36.8776L11.0829 36.8319L10.9966 36.7862L10.9115 36.7405L10.8264 36.6935L10.7413 36.6465L10.6562 36.5982L10.5724 36.5512L10.4874 36.5017L10.4036 36.4535L10.3197 36.4039L10.2372 36.3544L10.1534 36.3049L10.0709 36.2541L9.98831 36.2033L9.90704 36.1525L9.8245 36.1005L9.74323 36.0484L9.66197 35.9963L9.5807 35.943L9.49943 35.8897L9.41943 35.8363L9.33943 35.783L9.25943 35.7284L9.17943 35.6725L9.09943 35.6179L9.0207 35.562L8.94197 35.5062L8.86324 35.4503L8.78578 35.3932L8.70705 35.336L8.62959 35.2789L8.55213 35.2205L8.47593 35.162L8.39847 35.1036L8.32228 35.0439L8.24609 34.9855L8.26641 34.9284L8.28673 34.8713L8.30705 34.8141L8.32736 34.757L8.34895 34.7011L8.36927 34.6439L8.39086 34.5881L8.41244 34.5322L8.4353 34.4763L8.45689 34.4205L8.47974 34.3646L8.5026 34.3087L8.52546 34.2528L8.54832 34.197L8.57244 34.1424L8.5953 34.0878L8.61943 34.0319L8.64355 33.9773L8.66895 33.9227L8.69308 33.8681L8.71847 33.8135L8.74387 33.7601L8.76927 33.7055L8.79466 33.6509L8.82133 33.5976L8.848 33.5443L8.87466 33.4909L8.90133 33.4363L8.928 33.3843L8.95593 33.3309L8.9826 33.2776L9.01054 33.2243L9.03847 33.1722L9.06768 33.1201L9.09562 33.0668L9.12482 33.0147L9.15403 32.9627L9.18324 32.9106L9.21244 32.8598L9.24165 32.8078L9.3026 32.7049L9.36355 32.6033L9.42577 32.5017L9.48927 32.4001L9.55276 32.3011L9.61752 32.2008L9.68355 32.1017L9.75085 32.0039L9.81816 31.9062L9.88673 31.8097L9.95657 31.7132L10.0264 31.6179L10.0975 31.5227L10.1699 31.4287L10.2436 31.336L10.3172 31.2433L10.3921 31.1519L10.467 31.0605L10.5432 30.9703L10.6207 30.8801L10.6994 30.7913L10.7782 30.7024L10.8582 30.616L10.9382 30.5284L11.0194 30.4433L11.102 30.3582L11.1845 30.2732L11.2683 30.1893L11.3534 30.1068L11.4385 30.0255L11.5248 29.9443L11.6124 29.863L11.7001 29.7843L11.7877 29.7055L11.8766 29.6268L11.9667 29.5506L12.0582 29.4744L12.1496 29.3982L12.241 29.3246L12.3337 29.2509L12.4277 29.1786L12.5216 29.1062L12.6169 29.0351L12.7121 28.9652L12.8086 28.8954L12.9064 28.8268L13.0042 28.7595L13.102 28.6935L13.201 28.6274L13.3013 28.5627L13.4016 28.4992L13.502 28.437L13.6035 28.3747L13.7064 28.3138L13.8093 28.2541L13.8601 28.2249L13.9121 28.1944L13.9642 28.1665L14.0162 28.1373L14.0696 28.1081L14.1216 28.0801L14.1737 28.0522L14.227 28.0243L14.2791 27.9963L14.3324 27.9684L14.3858 27.9417L14.4391 27.9151L14.4924 27.8884L14.5458 27.8617L14.6004 27.8351L14.6537 27.8097L14.7083 27.7843L14.7629 27.7589L14.8162 27.7335L14.8708 27.7081L14.9255 27.684L14.9801 27.6598L15.0359 27.6344L15.0905 27.6116L15.1464 27.5874L15.201 27.5646L15.2569 27.5405L15.3128 27.5176L15.3674 27.496L15.4232 27.4732L15.4804 27.4516L15.5362 27.43L15.5921 27.4084L15.648 27.3868L15.7051 27.3652L15.7623 27.3449L15.8182 27.3246L15.8753 27.3043L15.9324 27.284L15.9896 27.2649L16.0467 27.2459L16.1039 27.2255L16.1623 27.2078L16.2194 27.1887L16.2766 27.1709L16.335 27.1519L16.3934 27.1341L16.4518 27.1176L16.5089 27.0998L16.5674 27.0833L16.6258 27.0668L16.6855 27.0503L16.7439 27.0338L16.8023 27.0186L16.862 27.0021L16.9204 26.9868L16.9801 26.9728L17.0385 26.9576L17.0981 26.9436L17.1578 26.9297L17.2175 26.9157L17.2772 26.9017L17.3369 26.889L17.3966 26.8763L17.4575 26.8636L17.5172 26.8509L17.5769 26.8382L17.6378 26.8268L17.6988 26.8154L17.7585 26.804L17.8194 26.7938L17.8804 26.7824L17.9413 26.7722L18.0023 26.7621L18.0632 26.7519L18.1242 26.743L18.1851 26.7341L18.2474 26.7252L18.3083 26.7163L18.3693 26.7087L18.4315 26.6998L18.4937 26.6922L18.5547 26.6859L18.6169 26.6782L18.6791 26.6719L18.7413 26.6655L18.8035 26.6592L18.8658 26.6528L18.928 26.6478L18.9902 26.6427L19.0524 26.6376L19.1159 26.6325L19.1781 26.6287L19.2416 26.6249L19.3039 26.6211L19.3674 26.6173L19.4296 26.6147L19.4931 26.6122L19.5566 26.6097L19.6201 26.6071L19.6835 26.6059L19.747 26.6046L19.8105 26.6033L19.874 26.6021H19.9375H20.001H20.0645ZM19.9439 27.9354H19.8867L19.8296 27.9367L19.7737 27.9379L19.7166 27.9392L19.6594 27.9405L19.6035 27.9417L19.5464 27.9443L19.4905 27.9468L19.4334 27.9494L19.3775 27.9532L19.3216 27.9557L19.2658 27.9595L19.2099 27.9633L19.154 27.9671L19.0981 27.9722L19.0423 27.976L18.9864 27.9811L18.9305 27.9862L18.8747 27.9913L18.8201 27.9976L18.7642 28.004L18.7083 28.0103L18.6537 28.0167L18.5991 28.023L18.5432 28.0306L18.4886 28.0382L18.434 28.0459L18.3794 28.0535L18.3248 28.0611L18.2702 28.07L18.2156 28.0789L18.161 28.0878L18.1064 28.0967L18.0518 28.1055L17.9985 28.1157L17.9439 28.1259L17.8905 28.136L17.8359 28.1462L17.7826 28.1576L17.7293 28.1678L17.6759 28.1792L17.6213 28.1906L17.568 28.2033L17.5147 28.2147L17.4626 28.2274L17.4093 28.2401L17.3559 28.2528L17.3026 28.2655L17.2505 28.2795L17.1972 28.2935L17.1451 28.3062L17.0931 28.3214L17.0397 28.3354L16.9877 28.3494L16.9356 28.3646L16.8835 28.3798L16.8315 28.3951L16.7794 28.4103L16.7286 28.4268L16.6766 28.4421L16.6258 28.4586L16.5737 28.4751L16.5229 28.4916L16.4708 28.5094L16.4201 28.5271L16.3693 28.5436L16.3185 28.5614L16.2677 28.5805L16.2169 28.5982L16.1661 28.616L16.1166 28.6351L16.0658 28.6541L16.015 28.6732L15.9655 28.6935L15.9159 28.7125L15.8651 28.7328L15.8156 28.7532L15.7661 28.7735L15.7166 28.7938L15.667 28.8141L15.6188 28.8357L15.5693 28.8573L15.5197 28.8789L15.4715 28.9005L15.4232 28.922L15.3737 28.9449L15.3255 28.9665L15.2772 28.9894L15.2289 29.0122L15.1807 29.0351L15.1324 29.0592L15.0855 29.082L15.0372 29.1062L14.9902 29.1303L14.942 29.1544L14.895 29.1786L14.848 29.204L14.801 29.2294L14.754 29.2535L14.707 29.2789L14.6601 29.3043L14.6131 29.3309L14.5674 29.3563L14.5204 29.383L14.4759 29.4084L14.3832 29.463L14.2918 29.5176L14.2004 29.5722L14.1102 29.6281L14.0213 29.6852L13.9324 29.7436L13.8435 29.802L13.7559 29.8605L13.6683 29.9214L13.582 29.9824L13.4956 30.0446L13.4105 30.1068L13.3255 30.1703L13.2416 30.2338L13.1578 30.2998L13.0753 30.3646L12.9928 30.4319L12.9102 30.4992L12.8302 30.5665L12.7489 30.6363L12.6702 30.7049L12.5902 30.776L12.5128 30.8471L12.4353 30.9182L12.3578 30.9906L12.2816 31.0643L12.2055 31.1379L12.1305 31.2128L12.0569 31.2878L11.9832 31.364L11.9109 31.4414L11.8385 31.5189L11.7674 31.5963L11.6962 31.6751L11.6264 31.7551L11.5578 31.8351L11.4893 31.9163L11.422 31.9976L11.3559 32.0801L11.2899 32.1627L11.2239 32.2452L11.1591 32.3303L11.0956 32.4141L11.0334 32.4992L10.9712 32.5855L10.9102 32.6719L10.8493 32.7595L10.7896 32.8471L10.7312 32.9347L10.6728 33.0236L10.6156 33.1138L10.5597 33.204L10.5039 33.2941L10.4493 33.3855L10.3947 33.4782L10.3693 33.5227L10.3426 33.5684L10.3159 33.6154L10.2905 33.6624L10.2651 33.7081L10.2397 33.7551L10.2143 33.802L10.1889 33.849L10.1648 33.896L10.1394 33.943L10.1153 33.9913L10.0912 34.0382L10.067 34.0865L10.0429 34.1335L10.0201 34.1817L9.9972 34.23L9.97308 34.2782L9.95022 34.3265L9.92863 34.3747L9.90577 34.423L9.88419 34.4713L9.86133 34.5208V34.5233L9.93752 34.5766L10.0124 34.6274L10.0861 34.6782L10.161 34.729L10.2359 34.7786L10.3109 34.8281L10.387 34.8776L10.462 34.9259L10.5382 34.9741L10.6143 35.0224L10.6905 35.0706L10.768 35.1176L10.8442 35.1646L10.9216 35.2103L10.9991 35.2573L11.0766 35.303L11.1553 35.3474L11.234 35.3932L11.3115 35.4376L11.3902 35.482L11.4702 35.5252L11.5489 35.5684L11.6277 35.6116L11.7077 35.6547L11.7877 35.6966L11.8677 35.7385L11.9489 35.7805L12.0289 35.8211L12.1102 35.8617L12.1915 35.9024L12.2728 35.9417L12.354 35.9811L12.4366 36.0205L12.5178 36.0585L12.6004 36.0966L12.6829 36.1347L12.7655 36.1716L12.848 36.2097L12.9318 36.2452L13.0156 36.282L13.0982 36.3176L13.182 36.3532L13.267 36.3874L13.3509 36.4217L13.4359 36.456L13.5197 36.4903L13.6048 36.5233L13.6899 36.5551L13.775 36.5881L13.8613 36.6198L13.9464 36.6516L14.0328 36.682L14.1191 36.7125L14.2055 36.743L14.2918 36.7735L14.3782 36.8027L14.4658 36.8306L14.5521 36.8598L14.6397 36.8878L14.7274 36.9157L14.815 36.9424L14.9026 36.969L14.9915 36.9957L15.0791 37.0211L15.168 37.0465L15.2569 37.0706L15.3458 37.096L15.4347 37.1189L15.5235 37.143L15.6137 37.1658L15.7026 37.1887L15.7928 37.2103L15.8829 37.2332L15.9731 37.2535L16.0632 37.2751L16.1534 37.2954L16.2435 37.3144L16.335 37.3347L16.4264 37.3525L16.5166 37.3716L16.608 37.3893L16.6994 37.4071L16.7921 37.4236L16.8835 37.4401L16.9762 37.4566L17.0677 37.4719L17.1604 37.4871L17.2531 37.5024L17.3458 37.5163L17.4385 37.5303L17.5312 37.543L17.6239 37.5557L17.7178 37.5684L17.8105 37.5798L17.9045 37.5912L17.9985 37.6027L18.0924 37.6128L18.1864 37.623L18.2804 37.6319L18.3756 37.6408L18.4696 37.6497L18.5648 37.6573L18.6588 37.6649L18.754 37.6712L18.8493 37.6776L18.9445 37.6839L19.0397 37.689L19.135 37.6941L19.2315 37.6979L19.3267 37.7017L19.4232 37.7055L19.5185 37.7081L19.615 37.7106L19.7115 37.7119L19.808 37.7132L19.9045 37.7144H20.001H20.0975L20.194 37.7132L20.2905 37.7119L20.387 37.7106L20.4835 37.7081L20.5788 37.7055L20.6753 37.7017L20.7705 37.6979L20.867 37.6941L20.9623 37.689L21.0575 37.6839L21.1527 37.6776L21.248 37.6712L21.3432 37.6649L21.4372 37.6573L21.5324 37.6497L21.6264 37.6408L21.7216 37.6319L21.8156 37.623L21.9096 37.6128L22.0035 37.6027L22.0975 37.5912L22.1915 37.5798L22.2842 37.5684L22.3781 37.5557L22.4708 37.543L22.5635 37.5303L22.6562 37.5163L22.7489 37.5024L22.8416 37.4871L22.9343 37.4719L23.0258 37.4566L23.1185 37.4401L23.2099 37.4236L23.3026 37.4071L23.394 37.3893L23.4854 37.3716L23.5756 37.3525L23.667 37.3347L23.7585 37.3144L23.8486 37.2954L23.9388 37.2751L24.0289 37.2535L24.1191 37.2332L24.2093 37.2103L24.2994 37.1887L24.3883 37.1658L24.4785 37.143L24.5673 37.1189L24.6562 37.096L24.7451 37.0706L24.834 37.0465L24.9229 37.0211L25.0105 36.9957L25.0994 36.969L25.187 36.9424L25.2746 36.9157L25.3623 36.8878L25.4499 36.8598L25.5362 36.8306L25.6239 36.8027L25.7102 36.7735L25.7966 36.743L25.8829 36.7125L25.9693 36.682L26.0556 36.6516L26.1407 36.6198L26.227 36.5881L26.3121 36.5551L26.3972 36.5233L26.4823 36.4903L26.5661 36.456L26.6512 36.4217L26.735 36.3874L26.82 36.3532L26.9039 36.3176L26.9864 36.282L27.0702 36.2452L27.154 36.2097L27.2366 36.1716L27.3191 36.1347L27.4016 36.0966L27.4842 36.0585L27.5654 36.0205L27.648 35.9811L27.7292 35.9417L27.8105 35.9024L27.8918 35.8617L27.9731 35.8211L28.0531 35.7805L28.1343 35.7385L28.2143 35.6966L28.2943 35.6547L28.3743 35.6116L28.4531 35.5684L28.5318 35.5252L28.6118 35.482L28.6905 35.4376L28.768 35.3932L28.8467 35.3474L28.9254 35.303L29.0029 35.2573L29.0804 35.2103L29.1578 35.1646L29.234 35.1176L29.3115 35.0706L29.3877 35.0224L29.4639 34.9741L29.54 34.9259L29.615 34.8776L29.6912 34.8281L29.7661 34.7786L29.841 34.729L29.9159 34.6782L29.9896 34.6274L30.0645 34.5766L30.1381 34.5259L30.1407 34.5233V34.5208L30.1178 34.4713L30.0962 34.423L30.0734 34.3747L30.0518 34.3265L30.0289 34.2782L30.0048 34.23L29.9819 34.1817L29.9591 34.1335L29.935 34.0865L29.9108 34.0382L29.8867 33.9913L29.8626 33.943L29.8372 33.896L29.8131 33.849L29.7877 33.802L29.7623 33.7551L29.7369 33.7081L29.7115 33.6624L29.6861 33.6154L29.6594 33.5684L29.6327 33.5227L29.6073 33.4782L29.5527 33.3855L29.4981 33.2941L29.4423 33.204L29.3864 33.1138L29.3292 33.0236L29.2708 32.9347L29.2124 32.8471L29.1527 32.7595L29.0918 32.6719L29.0308 32.5855L28.9686 32.4992L28.9064 32.4141L28.8429 32.3303L28.7781 32.2452L28.7121 32.1627L28.6461 32.0801L28.58 31.9976L28.5127 31.9163L28.4442 31.8351L28.3756 31.7551L28.3058 31.6751L28.2346 31.5963L28.1635 31.5189L28.0912 31.4414L28.0188 31.364L27.9451 31.2878L27.8715 31.2128L27.7966 31.1379L27.7204 31.0643L27.6442 30.9906L27.5667 30.9182L27.4892 30.8471L27.4118 30.776L27.3318 30.7049L27.2531 30.6363L27.1718 30.5665L27.0918 30.4992L27.0092 30.4319L26.9267 30.3646L26.8442 30.2998L26.7604 30.2338L26.6766 30.1703L26.5915 30.1068L26.5064 30.0446L26.42 29.9824L26.3337 29.9214L26.2461 29.8605L26.1585 29.802L26.0696 29.7436L25.9807 29.6852L25.8918 29.6281L25.8016 29.5722L25.7102 29.5176L25.6188 29.463L25.5261 29.4084L25.4816 29.383L25.4346 29.3563L25.3889 29.3309L25.3419 29.3043L25.295 29.2789L25.248 29.2535L25.201 29.2294L25.154 29.204L25.107 29.1786L25.06 29.1544L25.0118 29.1303L24.9648 29.1062L24.9166 29.082L24.8696 29.0592L24.8213 29.0351L24.7731 29.0122L24.7248 28.9894L24.6766 28.9665L24.6283 28.9449L24.5788 28.922L24.5305 28.9005L24.4823 28.8789L24.4327 28.8573L24.3832 28.8357L24.335 28.8141L24.2854 28.7938L24.2359 28.7735L24.1864 28.7532L24.1369 28.7328L24.0861 28.7125L24.0366 28.6935L23.987 28.6732L23.9362 28.6541L23.8854 28.6351L23.8359 28.616L23.7851 28.5982L23.7343 28.5805L23.6835 28.5614L23.6327 28.5436L23.582 28.5271L23.5312 28.5094L23.4791 28.4916L23.4283 28.4751L23.3762 28.4586L23.3254 28.4421L23.2734 28.4268L23.2213 28.4103L23.1705 28.3951L23.1185 28.3798L23.0664 28.3646L23.0143 28.3494L22.9623 28.3354L22.9089 28.3214L22.8569 28.3062L22.8048 28.2935L22.7515 28.2795L22.6994 28.2655L22.6461 28.2528L22.5927 28.2401L22.5394 28.2274L22.4873 28.2147L22.434 28.2033L22.3807 28.1906L22.3261 28.1792L22.2727 28.1678L22.2194 28.1576L22.1661 28.1462L22.1115 28.136L22.0581 28.1259L22.0035 28.1157L21.9502 28.1055L21.8956 28.0967L21.841 28.0878L21.7864 28.0789L21.7318 28.07L21.6772 28.0611L21.6226 28.0535L21.568 28.0459L21.5134 28.0382L21.4588 28.0306L21.4029 28.023L21.3483 28.0167L21.2937 28.0103L21.2378 28.004L21.182 27.9976L21.1274 27.9913L21.0715 27.9862L21.0156 27.9811L20.9597 27.976L20.9039 27.9722L20.848 27.9671L20.7921 27.9633L20.7362 27.9595L20.6804 27.9557L20.6245 27.9532L20.5686 27.9494L20.5115 27.9468L20.4556 27.9443L20.3985 27.9417L20.3426 27.9405L20.2854 27.9392L20.2283 27.9379L20.1724 27.9367L20.1153 27.9354H20.0581H20.001H19.9439Z" fill="#F1A3AD"/>
</g>
</g>
<defs>
<clipPath id="clip0_40484_64710">
<rect width="40" height="40" fill="white"/>
</clipPath>
</defs>
</svg>
