<svg width="182" height="36" viewBox="0 0 182 36" fill="none" xmlns="http://www.w3.org/2000/svg">
<path d="M2.15669 16.0553V27.6775H0V1.91699H7.4286C9.7051 1.91699 11.5023 2.51607 12.7005 3.71423C13.8987 4.91239 14.6176 6.70964 14.6176 8.98614C14.6176 10.4239 14.2581 11.6221 13.5392 12.7004C12.9401 13.7788 11.9816 14.4977 10.7834 15.0968C12.1014 15.4562 13.06 16.1751 13.659 17.2535C14.2581 18.212 14.4977 19.53 14.4977 21.0876V23.4839C14.4977 24.3226 14.6176 25.0415 14.7374 25.6406C14.8572 26.3595 15.2166 26.8387 15.5761 27.1982V27.6775H13.2996C12.9401 27.1982 12.7005 26.5991 12.5807 25.8802C12.4609 25.1613 12.3411 24.3226 12.3411 23.4839V21.0876C12.3411 19.53 11.9816 18.3318 11.1429 17.3733C10.424 16.4147 9.34566 16.0553 7.90786 16.0553H2.15669ZM2.15669 14.1382H7.18897C8.98621 14.1382 10.3042 13.7788 11.1429 12.8203C11.9816 11.8617 12.4609 10.5438 12.4609 8.98614C12.4609 7.30872 11.9816 5.99074 11.1429 5.03221C10.3042 4.1935 9.10602 3.71423 7.4286 3.71423H2.15669V14.1382Z" fill="#366396"/>
<path d="M27.4371 27.6775C27.3173 26.9586 27.1974 26.4793 27.1974 26.0001C27.0776 25.6406 27.0776 25.1613 27.0776 24.6821C26.4785 25.6406 25.7596 26.4793 24.8011 27.0784C23.8426 27.6775 22.8841 28.0369 21.6859 28.0369C20.1283 28.0369 18.9301 27.5577 18.0914 26.5991C17.1329 25.5208 16.7734 24.2028 16.7734 22.5254C16.7734 20.7282 17.3725 19.2904 18.5707 18.3318C19.8887 17.2535 21.5661 16.6544 23.7228 16.6544H27.0776V14.3779C27.0776 12.9401 26.7182 11.8618 25.9993 11.1429C25.4002 10.3042 24.4417 9.9447 23.1237 9.9447C22.0453 9.9447 21.0868 10.3042 20.3679 11.023C19.649 11.8618 19.1698 12.7005 19.1698 13.7788H17.2527V13.659C17.1329 12.2212 17.732 10.9032 18.8103 9.82489C20.0085 8.74654 21.4463 8.14746 23.2435 8.14746C25.0407 8.14746 26.4785 8.62673 27.5569 9.70507C28.6352 10.7834 29.2343 12.341 29.2343 14.3779V23.8434C29.2343 24.4425 29.2343 25.1613 29.2343 25.7604C29.3541 26.4793 29.4739 27.0784 29.5938 27.6775H27.4371ZM21.9255 26.1199C23.1237 26.1199 24.202 25.7604 25.1606 25.0415C25.9993 24.4425 26.7182 23.4839 27.0776 22.5254V18.3318H23.603C22.1652 18.3318 21.0868 18.6913 20.1283 19.53C19.2896 20.3687 18.9301 21.447 18.9301 22.6452C18.9301 23.6037 19.1698 24.4425 19.649 25.1613C20.2481 25.7604 20.967 26.1199 21.9255 26.1199Z" fill="#366396"/>
<path d="M34.0264 8.50691L34.2661 11.6221C34.7453 10.5438 35.3444 9.70507 36.3029 9.10599C37.1417 8.38709 38.1002 8.14746 39.1785 8.14746C40.9758 8.14746 42.2937 8.74654 43.1325 10.0645C44.091 11.2627 44.5702 13.2996 44.5702 15.9355V27.6775H42.4136V15.9355C42.4136 13.7788 42.0541 12.2212 41.455 11.3825C40.7361 10.5438 39.8974 10.0645 38.6993 10.0645C37.5011 10.0645 36.6624 10.424 35.9435 11.1429C35.2246 11.8618 34.6255 12.8203 34.2661 14.0184V27.6775H32.1094V8.50691H34.0264Z" fill="#366396"/>
<path d="M46.7285 17.1337C46.7285 14.3779 47.3276 12.2212 48.4059 10.5438C49.4843 8.98617 51.0419 8.14746 52.959 8.14746C54.0373 8.14746 54.9958 8.38709 55.7147 8.86636C56.5534 9.46544 57.2723 10.1843 57.7516 11.1429L57.9912 8.50691H59.7885V27.6775C59.7885 30.0738 59.1894 31.9909 58.111 33.4287C56.9129 34.7466 55.2355 35.3457 53.1986 35.3457C52.4797 35.3457 51.641 35.2259 50.8023 35.1061C49.8437 34.8664 49.1248 34.507 48.4059 34.1476L49.005 32.2305C49.6041 32.5899 50.2032 32.9494 50.9221 33.0692C51.641 33.3088 52.3599 33.4287 53.1986 33.4287C54.6364 33.4287 55.8345 32.9494 56.5534 31.9909C57.2723 31.0323 57.6318 29.5945 57.6318 27.6775V25.401C57.1525 26.2397 56.4336 26.8388 55.5949 27.318C54.876 27.7973 53.9175 28.0369 52.8391 28.0369C50.9221 28.0369 49.4843 27.318 48.4059 25.7604C47.3276 24.2028 46.7285 22.2858 46.7285 19.7696V17.1337ZM48.8852 19.7696C48.8852 21.6867 49.2447 23.2443 49.9635 24.4424C50.6824 25.5208 51.8806 26.1199 53.3184 26.1199C54.3967 26.1199 55.2355 25.8802 55.9544 25.2812C56.6733 24.6821 57.2723 23.9632 57.6318 23.0047V13.4194C57.2723 12.4608 56.6733 11.6221 55.9544 11.023C55.3553 10.424 54.3967 10.0645 53.4382 10.0645C51.8806 10.0645 50.8023 10.6636 49.9635 11.9816C49.2447 13.2996 48.8852 15.0968 48.8852 17.1337V19.7696Z" fill="#366396"/>
<path d="M72.6083 27.6775C72.4885 26.9586 72.4885 26.4793 72.3686 26.0001C72.3686 25.6406 72.3686 25.1613 72.3686 24.6821C71.7696 25.6406 71.0507 26.4793 70.0921 27.0784C69.1336 27.6775 68.0553 28.0369 66.9769 28.0369C65.4193 28.0369 64.2211 27.5577 63.2626 26.5991C62.4239 25.5208 62.0645 24.2028 62.0645 22.5254C62.0645 20.7282 62.6635 19.2904 63.8617 18.3318C65.1797 17.2535 66.8571 16.6544 69.0138 16.6544H72.3686V14.3779C72.3686 12.9401 72.0092 11.8618 71.2903 11.1429C70.5714 10.3042 69.6129 9.9447 68.4147 9.9447C67.3364 9.9447 66.3778 10.3042 65.5391 11.023C64.8202 11.8618 64.4608 12.7005 64.4608 13.7788H62.5437L62.4239 13.659C62.4239 12.2212 62.9032 10.9032 64.1013 9.82489C65.2995 8.74654 66.7373 8.14746 68.5345 8.14746C70.3318 8.14746 71.7696 8.62673 72.8479 9.70507C73.9262 10.7834 74.4055 12.341 74.4055 14.3779V23.8434C74.4055 24.4425 74.5253 25.1613 74.5253 25.7604C74.6451 26.4793 74.765 27.0784 74.8848 27.6775H72.6083ZM67.2165 26.1199C68.4147 26.1199 69.4931 25.7604 70.3318 25.0415C71.2903 24.4425 71.8894 23.4839 72.3686 22.5254V18.3318H68.894C67.4562 18.3318 66.258 18.6913 65.4193 19.53C64.5806 20.3687 64.1013 21.447 64.1013 22.6452C64.1013 23.6037 64.4608 24.4425 64.94 25.1613C65.5391 25.7604 66.258 26.1199 67.2165 26.1199Z" fill="#366396"/>
<path d="M79.1976 8.50691L79.4373 11.5023C79.9165 10.424 80.6354 9.58525 81.4741 8.98617C82.3128 8.38709 83.2714 8.14746 84.3497 8.14746C85.5479 8.14746 86.5064 8.50691 87.3451 9.10599C88.064 9.82489 88.6631 10.9032 89.0225 12.2212C89.5018 11.023 90.2207 9.9447 91.0594 9.22581C91.8981 8.50691 92.9765 8.14746 94.1746 8.14746C95.8521 8.14746 97.17 8.86636 98.1286 10.1843C99.0871 11.5023 99.5664 13.659 99.5664 16.4148V27.6775H97.4097V16.4148C97.4097 14.0184 97.0502 12.4608 96.4511 11.5023C95.7322 10.5438 94.8935 10.0645 93.6954 10.0645C92.3774 10.0645 91.4189 10.5438 90.8198 11.6221C90.1009 12.7005 89.6216 14.0184 89.5018 15.5761V16.1751V27.6775H87.3451V16.4148C87.3451 14.1383 86.9857 12.4608 86.3866 11.5023C85.6677 10.5438 84.829 10.0645 83.6308 10.0645C82.5525 10.0645 81.594 10.424 80.9949 11.023C80.276 11.7419 79.7967 12.7005 79.4373 13.8986V27.6775H77.4004V8.50691H79.1976Z" fill="#366396"/>
<path d="M118.138 18.3317H118.258L121.014 1.79712H125.926L120.894 27.6774H116.221L112.626 11.8617H112.507L108.912 27.6774H104.239L99.207 1.79712H104.119L106.875 18.3317H106.995L110.709 1.79712H114.304L118.138 18.3317Z" fill="#0B8039"/>
<path d="M125.568 16.894C125.568 14.3779 126.287 12.2212 127.605 10.5438C128.923 8.98617 130.84 8.14746 133.356 8.14746C135.753 8.14746 137.67 8.98617 139.108 10.5438C140.426 12.2212 141.144 14.3779 141.144 16.894V19.2904C141.144 21.9263 140.426 23.9632 139.108 25.6406C137.67 27.1982 135.753 28.0369 133.356 28.0369C130.84 28.0369 128.923 27.1982 127.605 25.6406C126.287 23.9632 125.568 21.9263 125.568 19.2904V16.894ZM130.601 19.2904C130.601 20.7282 130.72 21.9263 131.2 22.765C131.559 23.6037 132.278 23.9632 133.356 23.9632C134.315 23.9632 135.034 23.6037 135.513 22.765C135.873 21.9263 136.112 20.7282 136.112 19.2904V16.894C136.112 15.4562 135.873 14.2581 135.513 13.4194C135.034 12.5807 134.315 12.2212 133.356 12.2212C132.278 12.2212 131.559 12.5807 131.2 13.4194C130.72 14.2581 130.601 15.4562 130.601 16.894V19.2904Z" fill="#0B8039"/>
<path d="M151.568 13.0599H149.771C149.172 13.0599 148.812 13.1797 148.453 13.4194C148.094 13.659 147.734 14.0184 147.614 14.4977V27.6775H142.582V8.50691H147.255L147.494 11.023V11.1429C147.854 10.1843 148.333 9.46544 148.812 8.86636C149.412 8.38709 150.011 8.14746 150.73 8.14746C150.969 8.14746 151.209 8.14746 151.448 8.14746C151.688 8.26728 151.928 8.26728 152.167 8.38709L151.568 13.0599Z" fill="#0B8039"/>
<path d="M158.877 19.7697H158.038V27.6775H153.006V0H158.038V15.6959H158.757L162.112 8.50694H167.863L162.831 17.1337L168.702 27.6775H162.951L158.877 19.7697Z" fill="#0B8039"/>
<path d="M177.086 22.6452C177.086 22.0461 176.967 21.6867 176.487 21.2074C176.128 20.848 175.289 20.3687 174.091 19.7696C172.174 19.0507 170.736 18.212 169.778 17.3733C168.819 16.4148 168.34 15.2166 168.34 13.7788C168.34 12.2212 168.939 10.9032 170.137 9.82489C171.335 8.62673 173.013 8.14746 175.05 8.14746C177.206 8.14746 178.884 8.74654 180.082 9.82489C181.4 11.023 181.999 12.4608 181.999 14.1383L181.879 14.2581H177.086C177.086 13.4194 176.847 12.8203 176.487 12.341C176.248 11.8618 175.649 11.6221 175.05 11.6221C174.451 11.6221 173.971 11.8618 173.612 12.2212C173.252 12.5807 173.013 13.0599 173.013 13.5392C173.013 14.1383 173.252 14.4977 173.612 14.8572C173.971 15.2166 174.81 15.6959 176.128 16.295C178.165 17.0139 179.603 17.8526 180.561 18.8111C181.52 19.6498 181.999 20.9678 181.999 22.4056C181.999 24.083 181.4 25.401 180.082 26.4793C178.764 27.5577 177.086 28.0369 174.93 28.0369C172.773 28.0369 170.976 27.4379 169.658 26.1199C168.46 24.8019 167.741 23.3641 167.861 21.6867H172.533C172.533 22.6452 172.773 23.3641 173.252 23.8434C173.612 24.3226 174.331 24.5623 175.05 24.5623C175.768 24.5623 176.248 24.3226 176.607 23.9632C176.967 23.7236 177.086 23.2443 177.086 22.6452Z" fill="#0B8039"/>
</svg>
