<svg width="42" height="42" viewBox="0 0 42 42" fill="none" xmlns="http://www.w3.org/2000/svg">
<path id="Vector" d="M20.9996 9.9094C21.139 9.91307 21.2741 9.95667 21.3882 10.0348C21.5023 10.1129 21.5902 10.222 21.6409 10.3484C21.6917 10.4749 21.703 10.6132 21.6735 10.7459C21.644 10.8786 21.575 10.9999 21.4751 11.0947C21.3752 11.1894 21.2489 11.2533 21.1119 11.2785C20.9748 11.3037 20.8332 11.289 20.7048 11.2362C20.5763 11.1834 20.4667 11.0949 20.3896 10.9818C20.3124 10.8686 20.2713 10.7359 20.2712 10.6001C20.2712 10.5078 20.2902 10.4164 20.327 10.3314C20.3638 10.2463 20.4178 10.1694 20.4857 10.105C20.5536 10.0406 20.634 9.99011 20.7223 9.95652C20.8106 9.92293 20.9048 9.90691 20.9996 9.9094ZM22.4371 7.1094C22.4371 6.7381 22.2856 6.382 22.016 6.11945C21.7465 5.8569 21.3808 5.7094 20.9996 5.7094C20.6183 5.7094 20.2527 5.8569 19.9831 6.11945C19.7135 6.382 19.5621 6.7381 19.5621 7.1094C19.5621 7.4807 19.7135 7.8368 19.9831 8.09935C20.2527 8.3619 20.6183 8.5094 20.9996 8.5094C21.3808 8.5094 21.7465 8.3619 22.016 8.09935C22.2856 7.8368 22.4371 7.4807 22.4371 7.1094ZM20.9996 3.82407C21.3285 3.82038 21.649 3.72202 21.9207 3.54134C22.1924 3.36067 22.4031 3.10577 22.5264 2.80872C22.6497 2.51167 22.68 2.18574 22.6135 1.87195C22.547 1.55817 22.3867 1.27055 22.1528 1.04529C21.9188 0.820031 21.6217 0.667204 21.2987 0.606039C20.9758 0.544875 20.6415 0.578107 20.3379 0.701553C20.0344 0.825 19.775 1.03314 19.5927 1.29979C19.4103 1.56644 19.3129 1.87967 19.3129 2.20007C19.318 2.63248 19.4979 3.04552 19.8136 3.34956C20.1294 3.65359 20.5555 3.82409 20.9996 3.82407ZM11.1862 20.8667C11.1901 20.7257 11.1506 20.5868 11.0729 20.4677C10.9952 20.3486 10.8829 20.2548 10.7502 20.1982C10.6175 20.1417 10.4704 20.1249 10.3279 20.1502C10.1854 20.1754 10.0538 20.2414 9.95006 20.3398C9.84627 20.4383 9.77498 20.5646 9.74529 20.7027C9.7156 20.8408 9.72886 20.9843 9.78337 21.115C9.83789 21.2457 9.93119 21.3576 10.0513 21.4364C10.1715 21.5152 10.313 21.5573 10.4579 21.5574C10.5526 21.5599 10.6469 21.5439 10.7352 21.5103C10.8234 21.4767 10.9039 21.4262 10.9718 21.3618C11.0397 21.2974 11.0937 21.2205 11.1305 21.1354C11.1673 21.0504 11.1863 20.959 11.1862 20.8667ZM6.85457 22.2667C7.23582 22.2667 7.60145 22.1192 7.87104 21.8567C8.14062 21.5941 8.29207 21.238 8.29207 20.8667C8.29207 20.4954 8.14062 20.1393 7.87104 19.8768C7.60145 19.6142 7.23582 19.4667 6.85457 19.4667C6.47332 19.4667 6.10769 19.6142 5.8381 19.8768C5.56852 20.1393 5.41707 20.4954 5.41707 20.8667C5.41707 21.238 5.56852 21.5941 5.8381 21.8567C6.10769 22.1192 6.47332 22.2667 6.85457 22.2667ZM1.8329 19.2427C1.50395 19.2464 1.18346 19.3448 0.911771 19.5255C0.640085 19.7061 0.429343 19.961 0.306068 20.2581C0.182793 20.5551 0.152493 20.8811 0.218982 21.1948C0.285472 21.5086 0.445778 21.7963 0.679727 22.0215C0.913676 22.2468 1.21081 22.3996 1.53374 22.4608C1.85667 22.5219 2.19096 22.4887 2.49454 22.3652C2.79812 22.2418 3.05743 22.0337 3.23982 21.767C3.42222 21.5004 3.51955 21.1871 3.51957 20.8667C3.51453 20.4343 3.3346 20.0213 3.01883 19.7172C2.70307 19.4132 2.27694 19.2427 1.8329 19.2427ZM31.5412 21.5574C31.6806 21.5537 31.8158 21.5101 31.9299 21.432C32.0439 21.3539 32.1319 21.2448 32.1826 21.1184C32.2333 20.9919 32.2447 20.8536 32.2152 20.7209C32.1857 20.5882 32.1167 20.4669 32.0168 20.3721C31.9169 20.2774 31.7905 20.2135 31.6535 20.1883C31.5165 20.1631 31.3749 20.1778 31.2464 20.2306C31.118 20.2834 31.0083 20.3719 30.9312 20.485C30.8541 20.5982 30.813 20.7309 30.8129 20.8667C30.8129 20.959 30.8318 21.0504 30.8687 21.1354C30.9055 21.2205 30.9595 21.2974 31.0273 21.3618C31.0952 21.4262 31.1757 21.4767 31.264 21.5103C31.3522 21.5439 31.4465 21.5599 31.5412 21.5574ZM35.1446 19.4667C34.7633 19.4667 34.3977 19.6142 34.1281 19.8768C33.8585 20.1393 33.7071 20.4954 33.7071 20.8667C33.7071 21.238 33.8585 21.5941 34.1281 21.8567C34.3977 22.1192 34.7633 22.2667 35.1446 22.2667C35.5258 22.2667 35.8915 22.1192 36.161 21.8567C36.4306 21.5941 36.5821 21.238 36.5821 20.8667C36.5821 20.4954 36.4306 20.1393 36.161 19.8768C35.8915 19.6142 35.5258 19.4667 35.1446 19.4667ZM40.1662 19.2427C39.8373 19.2464 39.5168 19.3448 39.2451 19.5255C38.9734 19.7061 38.7627 19.961 38.6394 20.2581C38.5161 20.5551 38.4858 20.8811 38.5523 21.1948C38.6188 21.5086 38.7791 21.7963 39.0131 22.0215C39.247 22.2468 39.5441 22.3996 39.8671 22.4608C40.19 22.5219 40.5243 22.4887 40.8279 22.3652C41.1315 22.2418 41.3908 22.0337 41.5732 21.767C41.7556 21.5004 41.8529 21.1871 41.8529 20.8667C41.8479 20.4343 41.6679 20.0213 41.3522 19.7172C41.0364 19.4132 40.6103 19.2427 40.1662 19.2427ZM13.0454 27.6241C12.9787 27.689 12.9258 27.7661 12.8897 27.851C12.8536 27.9359 12.835 28.0269 12.835 28.1187C12.835 28.2106 12.8536 28.3016 12.8897 28.3864C12.9258 28.4713 12.9787 28.5484 13.0454 28.6134C13.1121 28.6784 13.1913 28.7299 13.2784 28.765C13.3656 28.8002 13.459 28.8183 13.5533 28.8183C13.6476 28.8183 13.7411 28.8002 13.8282 28.765C13.9154 28.7299 13.9945 28.6784 14.0612 28.6134C14.1959 28.4822 14.2716 28.3043 14.2716 28.1187C14.2716 27.9332 14.1959 27.7553 14.0612 27.6241C13.9265 27.4929 13.7438 27.4192 13.5533 27.4192C13.3628 27.4192 13.1801 27.4929 13.0454 27.6241ZM9.97874 29.6027C9.77372 29.8006 9.63369 30.0534 9.57644 30.3289C9.51917 30.6045 9.54726 30.8904 9.65713 31.1503C9.767 31.4103 9.9537 31.6326 10.1935 31.789C10.4334 31.9455 10.7155 32.029 11.0042 32.029C11.2928 32.029 11.575 31.9455 11.8148 31.789C12.0546 31.6326 12.2413 31.4103 12.3512 31.1503C12.461 30.8904 12.4891 30.6045 12.4319 30.3289C12.3746 30.0534 12.2346 29.8006 12.0296 29.6027C11.7544 29.3438 11.3868 29.1991 11.0042 29.1991C10.6216 29.1991 10.2539 29.3438 9.97874 29.6027ZM6.2604 32.9067C6.0233 33.136 5.86145 33.4287 5.79538 33.7476C5.72931 34.0666 5.762 34.3975 5.8893 34.6983C6.0166 34.9992 6.23277 35.2564 6.51041 35.4375C6.78804 35.6185 7.11463 35.7151 7.44874 35.7151C7.78285 35.7151 8.10943 35.6185 8.38707 35.4375C8.6647 35.2564 8.88088 34.9992 9.00818 34.6983C9.13548 34.3975 9.16817 34.0666 9.1021 33.7476C9.03603 33.4287 8.87418 33.136 8.63707 32.9067C8.32112 32.6012 7.89396 32.4298 7.44874 32.4298C7.00352 32.4298 6.57636 32.6012 6.2604 32.9067ZM27.9379 13.1201C27.8712 13.185 27.8183 13.2621 27.7822 13.347C27.7461 13.4319 27.7275 13.5229 27.7275 13.6147C27.7275 13.7066 27.7461 13.7976 27.7822 13.8824C27.8183 13.9673 27.8712 14.0444 27.9379 14.1094C28.0046 14.1744 28.0838 14.2259 28.1709 14.261C28.2581 14.2962 28.3515 14.3143 28.4458 14.3143C28.5402 14.3143 28.6336 14.2962 28.7207 14.261C28.8079 14.2259 28.887 14.1744 28.9537 14.1094C29.0884 13.9782 29.1641 13.8003 29.1641 13.6147C29.1641 13.4292 29.0884 13.2513 28.9537 13.1201C28.819 12.9889 28.6363 12.9152 28.4458 12.9152C28.2553 12.9152 28.0726 12.9889 27.9379 13.1201ZM29.9696 10.1334C29.7646 10.3313 29.6245 10.5841 29.5673 10.8596C29.51 11.1351 29.5381 11.421 29.648 11.681C29.7578 11.941 29.9445 12.1633 30.1844 12.3197C30.4242 12.4762 30.7063 12.5597 30.995 12.5597C31.2836 12.5597 31.5658 12.4762 31.8056 12.3197C32.0454 12.1633 32.2321 11.941 32.342 11.681C32.4519 11.421 32.48 11.1351 32.4227 10.8596C32.3654 10.5841 32.2254 10.3313 32.0204 10.1334C31.7452 9.8745 31.3776 9.72979 30.995 9.72979C30.6124 9.72979 30.2447 9.8745 29.9696 10.1334ZM35.7196 8.82673C35.9567 8.59748 36.1185 8.3048 36.1846 7.98584C36.2507 7.66687 36.218 7.33597 36.0907 7.03512C35.9634 6.73427 35.7472 6.47702 35.4696 6.296C35.1919 6.11497 34.8653 6.01833 34.5312 6.01833C34.1971 6.01833 33.8705 6.11497 33.5929 6.296C33.3153 6.47702 33.0991 6.73427 32.9718 7.03512C32.8445 7.33597 32.8118 7.66687 32.8779 7.98584C32.944 8.3048 33.1058 8.59748 33.3429 8.82673C33.4997 8.98081 33.6863 9.10311 33.8919 9.18657C34.0975 9.27004 34.3181 9.31301 34.5408 9.31301C34.7636 9.31301 34.9841 9.27004 35.1897 9.18657C35.3953 9.10311 35.5819 8.98081 35.7387 8.82673H35.7196ZM27.9379 27.6241C27.8099 27.7586 27.7388 27.9353 27.7388 28.1187C27.7388 28.3022 27.8099 28.4788 27.9379 28.6134C28.0046 28.6784 28.0838 28.7299 28.1709 28.765C28.2581 28.8002 28.3515 28.8183 28.4458 28.8183C28.5402 28.8183 28.6336 28.8002 28.7207 28.765C28.8079 28.7299 28.887 28.6784 28.9537 28.6134C29.0204 28.5484 29.0734 28.4713 29.1094 28.3864C29.1455 28.3016 29.1641 28.2106 29.1641 28.1187C29.1641 28.0269 29.1455 27.9359 29.1094 27.851C29.0734 27.7661 29.0204 27.689 28.9537 27.6241C28.8156 27.4994 28.6342 27.4302 28.4458 27.4302C28.2575 27.4302 28.0761 27.4994 27.9379 27.6241ZM29.9696 29.6027C29.7646 29.8006 29.6245 30.0534 29.5673 30.3289C29.51 30.6045 29.5381 30.8904 29.648 31.1503C29.7578 31.4103 29.9445 31.6326 30.1844 31.789C30.4242 31.9455 30.7063 32.029 30.995 32.029C31.2836 32.029 31.5658 31.9455 31.8056 31.789C32.0454 31.6326 32.2321 31.4103 32.342 31.1503C32.4519 30.8904 32.48 30.6045 32.4227 30.3289C32.3654 30.0534 32.2254 29.8006 32.0204 29.6027C31.7452 29.3438 31.3776 29.1991 30.995 29.1991C30.6124 29.1991 30.2447 29.3438 29.9696 29.6027ZM33.3621 32.9067C33.125 33.136 32.9631 33.4287 32.897 33.7476C32.831 34.0666 32.8637 34.3975 32.991 34.6983C33.1183 34.9992 33.3344 35.2564 33.6121 35.4375C33.8897 35.6185 34.2163 35.7151 34.5504 35.7151C34.8845 35.7151 35.2111 35.6185 35.4887 35.4375C35.7664 35.2564 35.9825 34.9992 36.1098 34.6983C36.2371 34.3975 36.2698 34.0666 36.2038 33.7476C36.1377 33.4287 35.9758 33.136 35.7387 32.9067C35.4228 32.6012 34.9956 32.4298 34.5504 32.4298C34.1052 32.4298 33.678 32.6012 33.3621 32.9067ZM13.0454 13.1201C12.9776 13.1844 12.9237 13.2613 12.8869 13.3463C12.8501 13.4313 12.8312 13.5225 12.8312 13.6147C12.8312 13.7069 12.8501 13.7982 12.8869 13.8832C12.9237 13.9681 12.9776 14.045 13.0454 14.1094C13.1801 14.2406 13.3628 14.3143 13.5533 14.3143C13.7438 14.3143 13.9265 14.2406 14.0612 14.1094C14.1959 13.9782 14.2716 13.8003 14.2716 13.6147C14.2716 13.4292 14.1959 13.2513 14.0612 13.1201C13.9952 13.054 13.9162 13.0015 13.8289 12.9657C13.7417 12.9299 13.648 12.9114 13.5533 12.9114C13.4586 12.9114 13.3649 12.9299 13.2777 12.9657C13.1905 13.0015 13.1115 13.054 13.0454 13.1201ZM9.97874 10.1334C9.77372 10.3313 9.63369 10.5841 9.57644 10.8596C9.51917 11.1351 9.54726 11.421 9.65713 11.681C9.767 11.941 9.9537 12.1633 10.1935 12.3197C10.4334 12.4762 10.7155 12.5597 11.0042 12.5597C11.2928 12.5597 11.575 12.4762 11.8148 12.3197C12.0546 12.1633 12.2413 11.941 12.3512 11.681C12.461 11.421 12.4891 11.1351 12.4319 10.8596C12.3746 10.5841 12.2346 10.3313 12.0296 10.1334C11.7544 9.8745 11.3868 9.72979 11.0042 9.72979C10.6216 9.72979 10.2539 9.8745 9.97874 10.1334ZM6.2604 6.51207C6.0233 6.74132 5.86145 7.03399 5.79538 7.35296C5.72931 7.67193 5.762 8.00282 5.8893 8.30368C6.0166 8.60452 6.23277 8.86178 6.51041 9.0428C6.78804 9.22383 7.11463 9.32047 7.44874 9.32047C7.78285 9.32047 8.10943 9.22383 8.38707 9.0428C8.6647 8.86178 8.88088 8.60452 9.00818 8.30368C9.13548 8.00282 9.16817 7.67193 9.1021 7.35296C9.03603 7.03399 8.87418 6.74132 8.63707 6.51207C8.32112 6.20657 7.89396 6.03513 7.44874 6.03513C7.00352 6.03513 6.57636 6.20657 6.2604 6.51207ZM20.9996 26.2241C19.8623 26.2241 18.7506 25.8956 17.805 25.2803C16.8595 24.665 16.1225 23.7904 15.6873 22.7671C15.2521 21.7438 15.1382 20.6179 15.3601 19.5316C15.5819 18.4453 16.1296 17.4474 16.9337 16.6643C17.7379 15.8811 18.7624 15.3477 19.8778 15.1317C20.9932 14.9156 22.1493 15.0265 23.2 15.4503C24.2507 15.8742 25.1487 16.592 25.7805 17.5129C26.4123 18.4338 26.7496 19.5165 26.7496 20.6241C26.7496 22.1093 26.1438 23.5337 25.0654 24.5839C23.9871 25.6341 22.5246 26.2241 20.9996 26.2241ZM24.8329 20.6241C24.8329 19.8857 24.6081 19.1639 24.1869 18.5499C23.7657 17.936 23.167 17.4575 22.4665 17.1749C21.7661 16.8923 20.9953 16.8184 20.2517 16.9625C19.5081 17.1065 18.8251 17.4621 18.289 17.9842C17.7529 18.5063 17.3878 19.1715 17.2399 19.8957C17.092 20.6199 17.1679 21.3706 17.458 22.0527C17.7482 22.7349 18.2395 23.318 18.8699 23.7282C19.5003 24.1384 20.2414 24.3574 20.9996 24.3574C22.0162 24.3574 22.9913 23.9641 23.7101 23.2639C24.429 22.5638 24.8329 21.6142 24.8329 20.6241ZM20.9996 26.2241C22.5246 26.2241 23.9871 26.8141 25.0654 27.8643C26.1438 28.9145 26.7496 30.3389 26.7496 31.8241V41.1574H15.2496V31.8241C15.2496 30.3389 15.8554 28.9145 16.9337 27.8643C18.012 26.8141 19.4746 26.2241 20.9996 26.2241ZM17.1662 39.2907H24.8329V31.8241C24.8329 30.8339 24.429 29.8843 23.7101 29.1842C22.9913 28.4841 22.0162 28.0907 20.9996 28.0907C19.9829 28.0907 19.0079 28.4841 18.289 29.1842C17.5701 29.8843 17.1662 30.8339 17.1662 31.8241V39.2907Z" fill="#2A42E4"/>
</svg>
