<svg width="50" height="49" viewBox="0 0 50 49" fill="none" xmlns="http://www.w3.org/2000/svg">
<g id="File Icon (Pink)">
<path id="Vector" d="M15.6041 45.9143H39.19C40.5729 45.9143 41.6979 44.8031 41.6979 43.4373V10.6999C41.6979 9.33406 40.5729 8.22288 39.19 8.22288H36.901V5.95036C36.901 4.58453 35.776 3.47335 34.3932 3.47335C13.3971 3.47335 13.608 3.42705 13.3932 3.55051C13.319 3.59295 8.47129 8.3502 8.47129 8.39264C8.22129 8.63957 8.31114 8.39264 8.29942 38.6878C8.29942 40.0536 9.42442 41.1648 10.8072 41.1648H13.0963V43.4373C13.0963 44.8031 14.2213 45.9143 15.6041 45.9143ZM9.47129 38.6878V9.38036H11.7604C13.1432 9.38036 14.2682 8.26917 14.2682 6.90335V4.63083H34.3932C35.1315 4.63083 35.7291 5.22114 35.7291 5.95036V38.6878C35.7291 39.417 35.1315 40.0073 34.3932 40.0073H10.8072C10.0689 40.0073 9.47129 39.417 9.47129 38.6878ZM10.2994 8.22288L13.1002 5.45264V6.90335C13.1002 7.63256 12.5025 8.22288 11.7643 8.22288H10.2994ZM34.3932 41.1648C35.776 41.1648 36.901 40.0536 36.901 38.6878V9.38036H39.19C39.9283 9.38036 40.526 9.97067 40.526 10.6999V43.4373C40.526 44.1665 39.9283 44.7568 39.19 44.7568H15.6041C14.8658 44.7568 14.2682 44.1665 14.2682 43.4373V41.1648H34.3932Z" fill="#48BE97"/>
<path id="Vector_2" d="M18.1426 12.0129H27.0605C27.834 12.0129 27.834 10.8555 27.0605 10.8555H18.1426C17.3691 10.8555 17.3691 12.0129 18.1426 12.0129Z" fill="#48BE97"/>
<path id="Vector_3" d="M13.6816 16.3294H31.5176C32.291 16.3294 32.291 15.1719 31.5176 15.1719H13.6816C12.9082 15.1719 12.9082 16.3294 13.6816 16.3294Z" fill="#48BE97"/>
<path id="Vector_4" d="M13.6816 20.6458H31.5176C32.291 20.6458 32.291 19.4883 31.5176 19.4883H13.6816C12.9082 19.4883 12.9082 20.6458 13.6816 20.6458Z" fill="#48BE97"/>
<path id="Vector_5" d="M18.1426 23.8008C17.3691 23.8008 17.3691 24.9583 18.1426 24.9583H27.0605C27.834 24.9583 27.834 23.8008 27.0605 23.8008H18.1426Z" fill="#48BE97"/>
<path id="Vector_6" d="M13.6816 29.2747H31.5176C32.291 29.2747 32.291 28.1172 31.5176 28.1172H13.6816C12.9082 28.1172 12.9082 29.2747 13.6816 29.2747Z" fill="#48BE97"/>
<path id="Vector_7" d="M13.6816 33.5911H31.5176C32.291 33.5911 32.291 32.4336 31.5176 32.4336H13.6816C12.9082 32.4336 12.9082 33.5911 13.6816 33.5911Z" fill="#48BE97"/>
</g>
</svg>
