<svg width="40" height="40" viewBox="0 0 40 40" fill="none" xmlns="http://www.w3.org/2000/svg">
<g id="reminder icon" clip-path="url(#clip0_40484_64726)">
<path id="Vector" d="M6.82031 19.542C6.82031 22.0893 7.59338 24.5794 9.04175 26.6974C10.4901 28.8154 12.5488 30.4662 14.9573 31.441C17.3659 32.4158 20.0162 32.6709 22.5731 32.1739C25.13 31.6769 27.4787 30.4503 29.3221 28.6491C31.1655 26.8479 32.4209 24.553 32.9295 22.0546C33.4381 19.5563 33.1771 16.9667 32.1794 14.6133C31.1818 12.2599 29.4923 10.2484 27.3247 8.83317C25.157 7.41796 22.6086 6.6626 20.0016 6.6626C16.5069 6.66664 13.1566 8.02487 10.6856 10.4393C8.21451 12.8538 6.82445 16.1274 6.82031 19.542ZM19.3766 7.89924V8.9313C19.3766 9.09326 19.4424 9.24859 19.5596 9.36312C19.6768 9.47765 19.8358 9.54199 20.0016 9.54199C20.1673 9.54199 20.3263 9.47765 20.4435 9.36312C20.5607 9.24859 20.6266 9.09326 20.6266 8.9313V7.89924C23.5698 8.05332 26.3509 9.26508 28.4351 11.3015C30.5193 13.338 31.7595 16.0554 31.9172 18.9313H30.8609C30.6952 18.9313 30.5362 18.9956 30.419 19.1102C30.3018 19.2247 30.2359 19.38 30.2359 19.542C30.2359 19.7039 30.3018 19.8593 30.419 19.9738C30.5362 20.0883 30.6952 20.1527 30.8609 20.1527H31.9172C31.7595 23.0285 30.5193 25.746 28.4351 27.7824C26.3509 29.8189 23.5698 31.0307 20.6266 31.1847V30.1527C20.6266 29.9907 20.5607 29.8354 20.4435 29.7208C20.3263 29.6063 20.1673 29.542 20.0016 29.542C19.8358 29.542 19.6768 29.6063 19.5596 29.7208C19.4424 29.8354 19.3766 29.9907 19.3766 30.1527V31.1847C16.4333 31.0307 13.6522 29.8189 11.568 27.7824C9.48379 25.746 8.24362 23.0285 8.08594 20.1527H9.14219C9.30795 20.1527 9.46692 20.0883 9.58413 19.9738C9.70134 19.8593 9.76719 19.7039 9.76719 19.542C9.76719 19.38 9.70134 19.2247 9.58413 19.1102C9.46692 18.9956 9.30795 18.9313 9.14219 18.9313H8.08594C8.24362 16.0554 9.48379 13.338 11.568 11.3015C13.6522 9.26508 16.4333 8.05332 19.3766 7.89924Z" fill="#EFB37D"/>
<path id="Vector_2" d="M16.6268 25.9115C16.6999 25.9486 16.7796 25.9712 16.8616 25.978C16.9436 25.9849 17.0261 25.9758 17.1045 25.9514C17.1829 25.927 17.2556 25.8878 17.3184 25.8358C17.3812 25.7839 17.433 25.7204 17.4706 25.6489L19.6018 21.6215C20.1473 21.7224 20.7116 21.6149 21.1782 21.321C21.6449 21.0271 21.9782 20.5694 22.1093 20.0423C22.2405 19.5152 22.1594 18.9591 21.883 18.4887C21.6065 18.0183 21.1557 17.6696 20.6237 17.5146V11.3375C20.6237 11.1755 20.5579 11.0202 20.4407 10.9057C20.3235 10.7911 20.1645 10.7268 19.9987 10.7268C19.833 10.7268 19.674 10.7911 19.5568 10.9057C19.4396 11.0202 19.3737 11.1755 19.3737 11.3375V17.5146C19.0108 17.6203 18.6825 17.8172 18.4217 18.0856C18.161 18.354 17.9768 18.6845 17.8876 19.0442C17.7985 19.4039 17.8074 19.7801 17.9135 20.1354C18.0196 20.4906 18.2193 20.8125 18.4925 21.0688L16.3581 25.0902C16.2825 25.234 16.2684 25.4012 16.3187 25.5551C16.3691 25.7091 16.4799 25.8373 16.6268 25.9115ZM19.9987 18.6444C20.1804 18.6444 20.3581 18.697 20.5092 18.7957C20.6602 18.8943 20.778 19.0345 20.8475 19.1985C20.9171 19.3626 20.9353 19.5431 20.8998 19.7172C20.8644 19.8913 20.7769 20.0513 20.6484 20.1769C20.5199 20.3024 20.3562 20.3879 20.178 20.4225C19.9997 20.4572 19.815 20.4394 19.6471 20.3715C19.4793 20.3035 19.3358 20.1884 19.2348 20.0408C19.1339 19.8932 19.08 19.7196 19.08 19.5421C19.08 19.304 19.1768 19.0756 19.3491 18.9073C19.5214 18.7389 19.7551 18.6444 19.9987 18.6444Z" fill="#EFB37D"/>
<path id="Vector_3" d="M26.9532 1.22161C26.8758 1.19202 26.7933 1.17778 26.7102 1.17972C26.6272 1.18166 26.5454 1.19975 26.4697 1.23293C26.3939 1.26611 26.3256 1.31371 26.2689 1.37296C26.2121 1.4322 26.168 1.5019 26.1392 1.57798C26.1103 1.65407 26.0973 1.73501 26.1008 1.81607C26.1043 1.89714 26.1243 1.97671 26.1596 2.05014C26.195 2.12356 26.2449 2.18937 26.3066 2.24372C26.3683 2.29806 26.4404 2.33985 26.5188 2.36665C30.6017 3.84449 34.031 6.66467 36.2182 10.3433C38.4054 14.0219 39.2142 18.3296 38.5057 22.5273C37.7973 26.7249 35.6158 30.5508 32.3356 33.3485C29.0555 36.1462 24.881 37.7412 20.5287 37.8599C16.1763 37.9786 11.9173 36.6135 8.48255 33.999C5.04777 31.3844 2.65132 27.6833 1.70439 23.5308C0.757456 19.3783 1.31909 15.0332 3.29291 11.2411C5.26674 7.44904 8.5297 4.44637 12.5219 2.74833L11.7438 5.22161C11.715 5.29943 11.7028 5.38213 11.7077 5.46472C11.7127 5.5473 11.7348 5.62804 11.7726 5.70203C11.8105 5.77603 11.8633 5.84173 11.928 5.89516C11.9926 5.9486 12.0677 5.98864 12.1486 6.01287C12.2296 6.0371 12.3147 6.045 12.3989 6.0361C12.4831 6.0272 12.5645 6.00168 12.6383 5.9611C12.7121 5.92051 12.7766 5.8657 12.8281 5.8C12.8795 5.73429 12.9168 5.65906 12.9375 5.57887L14.0875 1.91474C14.1117 1.83796 14.12 1.75728 14.1122 1.67733C14.1043 1.59738 14.0804 1.51972 14.0418 1.44882C14.0032 1.37791 13.9507 1.31514 13.8872 1.2641C13.8237 1.21306 13.7506 1.17476 13.6719 1.15138L9.92192 0.0277199C9.76639 -0.010762 9.60167 0.0106709 9.46186 0.087581C9.32206 0.164491 9.21788 0.290988 9.1709 0.440879C9.12391 0.590771 9.13772 0.752577 9.20946 0.892796C9.2812 1.03302 9.40538 1.14091 9.55629 1.19413L11.5969 1.80482C7.39976 3.70148 4.00492 6.96066 1.9902 11.0277C-0.0245237 15.0947 -0.53464 19.7182 0.54667 24.1113C1.62798 28.5044 4.23389 32.3957 7.92091 35.1229C11.6079 37.85 16.1482 39.2445 20.769 39.069C25.3898 38.8935 29.8056 37.1589 33.2648 34.1603C36.7241 31.1618 39.013 27.0846 39.7421 22.6227C40.4711 18.1609 39.5953 13.59 37.2636 9.68804C34.9318 5.78611 31.2883 2.79423 26.9532 1.22161Z" fill="#EFB37D"/>
</g>
<defs>
<clipPath id="clip0_40484_64726">
<rect width="40" height="40" fill="white"/>
</clipPath>
</defs>
</svg>
